<svg width="28" height="28" viewBox="0 0 28 28" fill="none" xmlns="http://www.w3.org/2000/svg">
<path d="M14.1641 17.5817V15.295C14.1641 12.355 16.5441 9.96332 19.4957 9.96332H21.7824" stroke="#292D32" stroke-width="1.5" stroke-linecap="round" stroke-linejoin="round"/>
<path d="M6.55859 9.97501H8.84529C11.7853 9.97501 14.177 12.355 14.177 15.3067V16.065V20.125" stroke="#292D32" stroke-width="1.5" stroke-linecap="round" stroke-linejoin="round"/>
<path d="M8.33045 7.875L6.23047 9.975L8.33045 12.075" stroke="#292D32" stroke-width="1.5" stroke-linecap="round" stroke-linejoin="round"/>
<path d="M19.6719 7.875L21.7719 9.975L19.6719 12.075" stroke="#292D32" stroke-width="1.5" stroke-linecap="round" stroke-linejoin="round"/>
<path d="M10.4987 25.6667H17.4987C23.332 25.6667 25.6654 23.3333 25.6654 17.5V10.5C25.6654 4.66666 23.332 2.33333 17.4987 2.33333H10.4987C4.66536 2.33333 2.33203 4.66666 2.33203 10.5V17.5C2.33203 23.3333 4.66536 25.6667 10.4987 25.6667Z" stroke="#292D32" stroke-width="1.5" stroke-linecap="round" stroke-linejoin="round"/>
</svg>
