<svg width="36" height="36" viewBox="0 0 36 36" fill="none" xmlns="http://www.w3.org/2000/svg">
<g id="vuesax/bulk/arrow-square-down">
<g id="arrow-square-down">
<path id="Vector" opacity="0.4" d="M24.285 3H11.715C6.255 3 3 6.255 3 11.715V24.27C3 29.745 6.255 33 11.715 33H24.27C29.73 33 32.985 29.745 32.985 24.285V11.715C33 6.255 29.745 3 24.285 3Z" fill="#292D32"/>
<path id="Vector_2" d="M17.9983 22.365C17.7133 22.365 17.4283 22.26 17.2033 22.035L11.9083 16.74C11.4733 16.305 11.4733 15.585 11.9083 15.15C12.3433 14.715 13.0633 14.715 13.4983 15.15L17.9983 19.65L22.4983 15.15C22.9333 14.715 23.6533 14.715 24.0883 15.15C24.5233 15.585 24.5233 16.305 24.0883 16.74L18.7933 22.035C18.5683 22.26 18.2833 22.365 17.9983 22.365Z" fill="#292D32"/>
</g>
</g>
</svg>
