<svg width="80" height="81" viewBox="0 0 80 81" fill="none" xmlns="http://www.w3.org/2000/svg">
<g clip-path="url(#clip0_10_278)">
<path d="M62.2 65.5C67.9 61.2999 71.3 54.7 70.8 45C70.7216 44.6388 70.6881 44.2693 70.7 43.9H62.2V65.5ZM8.60002 44.9C8.10002 54.6 11.5 61.2 17.2 65.4V43.7999H8.80002C8.69402 44.1584 8.62696 44.5272 8.60002 44.9ZM44.2 43.7999V49.9C45.419 50.6648 46.4239 51.7267 47.1204 52.986C47.8169 54.2453 48.1823 55.6609 48.1823 57.0999C48.1823 58.539 47.8169 59.9546 47.1204 61.2139C46.4239 62.4732 45.419 63.5351 44.2 64.3V71C47.2416 70.8578 50.259 70.3884 53.2 69.5999V43.7999H44.2ZM31.2 57.0999C31.2019 55.6592 31.57 54.2425 32.2697 52.9831C32.9694 51.7236 33.9777 50.6627 35.2 49.9V43.7999H26.2V69.5999C29.1411 70.3884 32.1585 70.8578 35.2 71V64.3C33.9777 63.5372 32.9694 62.4763 32.2697 61.2168C31.57 59.9574 31.2019 58.5407 31.2 57.0999ZM12.8 16C13.3631 18.8335 13.4308 21.7433 13 24.6H21.8V32.5H30.4V24.6H39.6V16H30.4V7.29995L27.4 5.69995C25.657 6.71569 23.7683 7.45768 21.8 7.89995V16H12.8ZM58.1 32.5V8.09995C57.0419 7.89288 56.0045 7.59168 55 7.19995V32.5999H58.1V32.5ZM45.7 32.5V8.39995C44.6898 8.70496 43.6511 8.906 42.6 8.99995V32.5H45.7ZM64.2 32.5V8.69995L61.1 8.49995V32.5H64.2ZM51.9 32.5V5.69995L48.8 7.29995V32.5H51.9Z" fill="white"/>
<path d="M79.3 40L78.2 38.7C73.2 33.5 66.1 20.4 75.1 8.4L75.8 7.5L72.4 2.7L71.2 3.1C69.3965 3.72161 67.5072 4.05898 65.6 4.1C60.4 4.1 57 3.6 52.8 0.8L51.8 0.2L50.8 0.9C47.5755 3.24699 43.6882 4.50774 39.7 4.5C35.6563 4.46414 31.7307 3.13224 28.5 0.7L27.5 0L26.5 0.6C22.3 3.4 18.9 3.9 13.7 3.9C11.789 3.89958 9.89307 3.56103 8.1 2.9L6.9 2.5L3.5 7.3L4.2 8.2C13.3 20.5 6.2 33.5 1.2 38.7L0 39.9L1.2 41.2L3.9 44V44.6C3.4 53.4 5.7 60.6 10.6 66C15.5 71.4 24 75.2 33.7 75.7C36.1 77.9 38.5 79.7 38.6 79.8L39.6 80.6L40.6 79.8C40.7 79.7 43.1 77.9 45.5 75.7C55.2 75.2 63.3 71.7 68.6 66C73.9 60.3 75.8 53.4 75.3 44.7V44L78 41.2L79.3 40ZM73.6 43.4C73.7 44.3 73.6 44.2 73.7 44.8C74.7 64.2 61.2 73.3 44.9 74C42.4 76.3 39.7 78.4 39.7 78.4C37.8422 77.0468 36.0719 75.5772 34.4 74C18.1 73.3 4.6 64.1 5.6 44.7C5.7 44.2 5.6 44.2 5.7 43.3L2.4 39.9C8.3 33.8 15.1 19.9 5.6 7.3L7.6 4.6C9.55335 5.3206 11.618 5.69291 13.7 5.7C19.1 5.7 22.9 5.2 27.4 2.1C30.9309 4.72211 35.2021 6.15752 39.6 6.2C43.9979 6.15752 48.2691 4.72211 51.8 2.1C56.4 5.1 60.1 5.7 65.5 5.7C67.582 5.69291 69.6466 5.3206 71.6 4.6L73.6 7.3C64.1 19.9 70.9 33.8 76.8 39.9L73.6 43.4Z" fill="white"/>
<path d="M8.40001 43.8C8.42374 44.0054 8.38908 44.2134 8.30001 44.4C8.3063 44.5722 8.27205 44.7435 8.20001 44.9C7.80001 52.4 9.70001 58.4 13.7 62.8C17.7 67.2 25.9 70.8 35.5 71.2H43.6C53.2 70.8 60.7 67.9 65.4 62.8C70.1 57.7 71.3 52.3 70.9 44.8C70.9 44.5 70.9 44.4 70.8 44.3C70.808 44.0953 70.774 43.8911 70.7 43.7V43.5H8.50001L8.40001 43.8ZM8.80001 45C8.7693 44.8267 8.805 44.6482 8.90001 44.5C8.89782 44.3602 8.9323 44.2223 9.00001 44.1H70.4C70.4 44.3 70.4 44.4 70.5 44.5C70.4937 44.6722 70.528 44.8435 70.6 45C71 52.3 69.2 58.2 65.2 62.6C61.2 67 53.2 70.4 43.8 70.8H35.7C26.2 70.4 18.8 67.5 14.2 62.5C9.60001 57.5 8.40001 52.3 8.80001 45ZM10.5 32.4L10.3 32.8H68.9L68.7 32.4C66.2 26.6 64.2 17.7 69.6 8.50002L69.9 8.00002H69.3C68.012 8.23208 66.7083 8.3658 65.4 8.40002C60.2 8.40002 56.3 7.90002 51.9 5.40002H51.7C48.0705 7.68119 43.8862 8.92612 39.6 9.00002C35.3141 9.02037 31.1132 7.80522 27.5 5.50002H27.3C22.9 8.00002 19 8.50002 13.8 8.50002C12.5223 8.51077 11.2475 8.37658 10 8.10002H9.40001L9.70001 8.60002C15 17.7 13.1 26.6 10.5 32.4ZM39.8 9.50002C44.0789 9.47155 48.2666 8.26023 51.9 6.00002C56.4 8.50002 60.3 9.00002 65.6 9.00002C66.7399 8.99959 67.8776 8.89921 69 8.70002C64 17.7 65.7 26.4 68.2 32.2H39.8V9.50002ZM10.3 8.70002L13.7 9.00002C19 9.00002 22.9 8.50002 27.4 6.00002C30.9816 8.21139 35.0915 9.42017 39.3 9.50002V32.2H11.2C13.6 26.4 15.4 17.7 10.3 8.70002ZM32.3 35.9V34.2H26.5V42.2H28.2V38.9H30.6V37.2H28.2V35.9H32.3ZM39.1 35.8C39.3833 35.7975 39.6622 35.8702 39.9082 36.0108C40.1541 36.1513 40.3584 36.3547 40.5 36.6L42.1 35.9C41.8393 35.3328 41.4135 34.8575 40.8782 34.5364C40.3429 34.2152 39.7232 34.0631 39.1 34.1C37 34.1 35.5 35.8 35.5 38.2C35.5 40.6 36.9 42.3 39 42.3C39.6232 42.3369 40.2429 42.1848 40.7782 41.8637C41.3135 41.5425 41.7393 41.0672 42 40.5L40.5 39.6C40.3794 39.8981 40.1718 40.153 39.9043 40.3314C39.6367 40.5098 39.3216 40.6034 39 40.6C37.9 40.6 37.2 39.6 37.2 38.2C37.2 36.8 38 35.8 39.1 35.8ZM52.5 36.3C52.5 34.9 51.5 34.1 49.9 34.1H46.2V42.1H49.9C51.7 42.1 52.8 41.1 52.8 39.5C52.8168 39.1501 52.7312 38.8028 52.5536 38.5009C52.3759 38.1989 52.114 37.9553 51.8 37.8C52.0424 37.6376 52.2357 37.412 52.3591 37.1476C52.4824 36.8832 52.5312 36.5901 52.5 36.3ZM48 35.8H49.9C50.7 35.8 50.8 36.2 50.8 36.5C50.801 36.601 50.7802 36.701 50.739 36.7932C50.6977 36.8854 50.637 36.9675 50.561 37.034C50.485 37.1005 50.3955 37.1498 50.2987 37.1784C50.2019 37.2071 50.1 37.2145 50 37.2H48V35.8ZM50 40.5H48V38.7H50C50.7 38.7 51 39 51 39.6C51 40.2 50.6 40.5 50 40.5Z" fill="white"/>
<path d="M39.6 65.7001C41.3207 65.7001 43.0028 65.1898 44.4335 64.2338C45.8642 63.2779 46.9793 61.9191 47.6378 60.3294C48.2963 58.7397 48.4685 56.9904 48.1329 55.3028C47.7972 53.6151 46.9686 52.0649 45.7519 50.8482C44.5351 49.6315 42.9849 48.8029 41.2973 48.4672C39.6097 48.1315 37.8604 48.3038 36.2707 48.9623C34.681 49.6208 33.3222 50.7359 32.3662 52.1666C31.4103 53.5973 30.9 55.2794 30.9 57.0001C30.9 59.3074 31.8166 61.5203 33.4482 63.1519C35.0798 64.7834 37.2926 65.7001 39.6 65.7001ZM39.6 65.2001C37.9603 65.2097 36.3563 64.7216 35 63.8001C36.883 63.7496 38.7297 63.2708 40.4 62.4001C41.8 61.6001 43.2 60.6001 43.5 59.2001C43.8164 59.0356 44.168 58.9506 44.5245 58.9522C44.881 58.9538 45.2318 59.0421 45.5467 59.2093C45.8615 59.3766 46.131 59.6179 46.3319 59.9124C46.5328 60.2069 46.6592 60.5459 46.7 60.9001C46.0321 62.205 45.0142 63.2983 43.7603 64.0577C42.5064 64.8171 41.0659 65.2126 39.6 65.2001ZM35.6 58.9001C36.0521 59.1858 36.5669 59.3574 37.1 59.4001C37.7585 59.3916 38.3946 59.1592 38.9035 58.7412C39.4124 58.3232 39.7638 57.7444 39.9 57.1001C40.1335 56.8828 40.418 56.7278 40.7271 56.6494C41.0363 56.571 41.3602 56.5716 41.6691 56.6513C41.9779 56.731 42.2617 56.8872 42.4943 57.1054C42.7269 57.3237 42.9008 57.5969 43 57.9001C43.7 59.6001 42.2 60.8001 40.3 62.0001C38.4942 62.879 36.5082 63.3241 34.5 63.3001C33.6098 62.5402 32.8645 61.6254 32.3 60.6001H32.5C33.123 60.6282 33.7416 60.4845 34.2884 60.1847C34.8351 59.8849 35.2889 59.4404 35.6 58.9001ZM34.3 54.8001C34.3629 53.2709 34.632 51.7572 35.1 50.3001C36.2393 49.5584 37.5452 49.1117 38.9 49.0001C38.504 49.4709 38.304 50.0759 38.3412 50.69C38.3784 51.3041 38.6501 51.8805 39.1 52.3001L38.5 53.0001C38.0628 53.6845 37.9022 54.5096 38.0507 55.3081C38.1993 56.1065 38.6459 56.8187 39.3 57.3001C39.1844 57.82 38.8919 58.2837 38.4724 58.612C38.0529 58.9402 37.5325 59.1128 37 59.1001C35.2 58.7001 34.3 56.9001 34.3 54.8001ZM43.7 58.7001C43.6818 58.3913 43.6143 58.0875 43.5 57.8001C43.3662 57.4386 43.1474 57.1146 42.8619 56.8556C42.5764 56.5966 42.2328 56.4102 41.86 56.3121C41.4873 56.214 41.0964 56.2071 40.7204 56.2921C40.3444 56.377 39.9944 56.5512 39.7 56.8001C39.1313 56.4143 38.7383 55.8191 38.6072 55.1445C38.476 54.4699 38.6172 53.7708 39 53.2001C39.9 51.7001 42.1 52.3001 44.1 53.4001C45.8181 54.3791 47.1302 55.9395 47.8 57.8001C47.7063 58.6554 47.5047 59.4954 47.2 60.3001C47.0776 59.9635 46.8895 59.6546 46.6466 59.3914C46.4037 59.1282 46.1108 58.916 45.7851 58.7671C45.4594 58.6182 45.1073 58.5356 44.7493 58.5241C44.3913 58.5125 44.0346 58.5724 43.7 58.7001ZM44.2 52.9001C42.8 52.1001 40.9 51.4001 39.6 51.9001C39.3354 51.7324 39.1191 51.4986 38.9725 51.2217C38.826 50.9449 38.7542 50.6346 38.7643 50.3215C38.7744 50.0084 38.866 49.7033 39.0301 49.4365C39.1942 49.1697 39.4251 48.9503 39.7 48.8001C41.7736 48.8215 43.762 49.6277 45.2649 51.0565C46.7679 52.4852 47.6737 54.4302 47.8 56.5001C46.9202 55.0177 45.6824 53.7799 44.2 52.9001ZM34.5 50.7001C34.3197 51.2546 34.1859 51.8233 34.1 52.4001C33.7 54.3001 33.7 57.2001 35.2 58.6001C34.9467 59.0873 34.5556 59.4893 34.0756 59.756C33.5955 60.0227 33.0476 60.1424 32.5 60.1001H32.1C31.6908 59.1184 31.4866 58.0635 31.5 57.0001C31.4917 55.7915 31.7574 54.5969 32.277 53.5057C32.7965 52.4146 33.5566 51.4554 34.5 50.7001Z" fill="white"/>
</g>
<defs>
<clipPath id="clip0_10_278">
<rect width="79.3" height="80.6" fill="white"/>
</clipPath>
</defs>
</svg>
