<svg width="25" height="24" viewBox="0 0 25 24" fill="none" xmlns="http://www.w3.org/2000/svg">
<g id="Bathtub">
<path id="Vector" d="M6.87109 18V20.25" stroke="#6D737A" stroke-width="1.60606" stroke-linecap="round" stroke-linejoin="round"/>
<path id="Vector_2" d="M17.3711 18V20.25" stroke="#6D737A" stroke-width="1.60606" stroke-linecap="round" stroke-linejoin="round"/>
<path id="Vector_3" d="M5.37109 9.75V4.875C5.37109 4.37772 5.56864 3.90081 5.92027 3.54917C6.2719 3.19754 6.74881 3 7.24609 3C7.74338 3 8.22029 3.19754 8.57192 3.54917C8.92355 3.90081 9.12109 4.37772 9.12109 4.875" stroke="#6D737A" stroke-width="1.60606" stroke-linecap="round" stroke-linejoin="round"/>
<path id="Vector_4" d="M18.8711 8.99998H12.8711V13.5H18.8711V8.99998Z" stroke="#6D737A" stroke-width="1.60606" stroke-linecap="round" stroke-linejoin="round"/>
<path id="Vector_5" d="M18.8711 9.75002H21.8711C22.07 9.75002 22.2608 9.82903 22.4014 9.96969C22.5421 10.1103 22.6211 10.3011 22.6211 10.5V13.5C22.6211 14.6935 22.147 15.8381 21.3031 16.682C20.4592 17.5259 19.3146 18 18.1211 18H6.12109C4.92762 18 3.78303 17.5259 2.93911 16.682C2.0952 15.8381 1.62109 14.6935 1.62109 13.5V10.5C1.62109 10.3011 1.70011 10.1103 1.84076 9.96969C1.98142 9.82903 2.17218 9.75002 2.37109 9.75002H12.8711" stroke="#6D737A" stroke-width="1.60606" stroke-linecap="round" stroke-linejoin="round"/>
</g>
</svg>
