<svg width="71" height="71" viewBox="0 0 71 71" fill="none" xmlns="http://www.w3.org/2000/svg">
<rect x="0.707107" y="35.3553" width="49" height="49" transform="rotate(-45 0.707107 35.3553)" fill="black" stroke="white"/>
<mask id="path-2-outside-1_3164_870" maskUnits="userSpaceOnUse" x="25" y="22" width="18" height="25" fill="black">
<rect fill="white" x="25" y="22" width="18" height="25"/>
<path d="M26.752 46V23.824H40.288V26.48H29.856V33.072H39.136V35.664H29.856V43.344H41.088V46H26.752Z"/>
</mask>
<path d="M26.752 46V23.824H40.288V26.48H29.856V33.072H39.136V35.664H29.856V43.344H41.088V46H26.752Z" fill="white"/>
<path d="M26.752 46H25.752V47H26.752V46ZM26.752 23.824V22.824H25.752V23.824H26.752ZM40.288 23.824H41.288V22.824H40.288V23.824ZM40.288 26.48V27.48H41.288V26.48H40.288ZM29.856 26.48V25.48H28.856V26.48H29.856ZM29.856 33.072H28.856V34.072H29.856V33.072ZM39.136 33.072H40.136V32.072H39.136V33.072ZM39.136 35.664V36.664H40.136V35.664H39.136ZM29.856 35.664V34.664H28.856V35.664H29.856ZM29.856 43.344H28.856V44.344H29.856V43.344ZM41.088 43.344H42.088V42.344H41.088V43.344ZM41.088 46V47H42.088V46H41.088ZM27.752 46V23.824H25.752V46H27.752ZM26.752 24.824H40.288V22.824H26.752V24.824ZM39.288 23.824V26.48H41.288V23.824H39.288ZM40.288 25.48H29.856V27.48H40.288V25.48ZM28.856 26.48V33.072H30.856V26.48H28.856ZM29.856 34.072H39.136V32.072H29.856V34.072ZM38.136 33.072V35.664H40.136V33.072H38.136ZM39.136 34.664H29.856V36.664H39.136V34.664ZM28.856 35.664V43.344H30.856V35.664H28.856ZM29.856 44.344H41.088V42.344H29.856V44.344ZM40.088 43.344V46H42.088V43.344H40.088ZM41.088 45H26.752V47H41.088V45Z" fill="white" mask="url(#path-2-outside-1_3164_870)"/>
</svg>
