<svg width="71" height="71" viewBox="0 0 71 71" fill="none" xmlns="http://www.w3.org/2000/svg">
<rect x="0.707107" y="35.3553" width="49" height="49" transform="rotate(-45 0.707107 35.3553)" fill="white" stroke="#BB0A21"/>
<path d="M40.288 35.088H43.392V45.456C43.136 45.5413 42.7627 45.6373 42.272 45.744C41.8027 45.8507 41.248 45.9573 40.608 46.064C39.9893 46.1707 39.3067 46.256 38.56 46.32C37.8133 46.4053 37.056 46.448 36.288 46.448C34.7307 46.448 33.312 46.192 32.032 45.68C30.752 45.168 29.6533 44.4213 28.736 43.44C27.8187 42.4587 27.104 41.2533 26.592 39.824C26.1013 38.3947 25.856 36.752 25.856 34.896C25.856 33.04 26.1333 31.3973 26.688 29.968C27.264 28.5173 28.032 27.3013 28.992 26.32C29.952 25.3387 31.072 24.592 32.352 24.08C33.6533 23.568 35.04 23.312 36.512 23.312C37.5147 23.312 38.4 23.376 39.168 23.504C39.9573 23.632 40.6293 23.7813 41.184 23.952C41.7387 24.1227 42.1867 24.2933 42.528 24.464C42.8907 24.6347 43.136 24.7627 43.264 24.848L42.272 27.44C41.6533 27.0347 40.832 26.704 39.808 26.448C38.784 26.1707 37.7387 26.032 36.672 26.032C35.5413 26.032 34.5067 26.2347 33.568 26.64C32.6507 27.0453 31.8613 27.632 31.2 28.4C30.56 29.168 30.0587 30.1067 29.696 31.216C29.3333 32.304 29.152 33.5307 29.152 34.896C29.152 36.2187 29.3013 37.424 29.6 38.512C29.92 39.6 30.3893 40.5387 31.008 41.328C31.648 42.096 32.4267 42.6933 33.344 43.12C34.2827 43.5467 35.3813 43.76 36.64 43.76C37.536 43.76 38.2933 43.7173 38.912 43.632C39.552 43.5253 40.0107 43.4293 40.288 43.344V35.088Z" fill="#BB0A21"/>
</svg>
