<svg width="71" height="71" viewBox="0 0 71 71" fill="none" xmlns="http://www.w3.org/2000/svg">
<rect x="0.707107" y="35.3553" width="49" height="49" transform="rotate(-45 0.707107 35.3553)" fill="white" stroke="#BB0A21"/>
<path d="M44.96 34.896C44.96 36.816 44.6613 38.4907 44.064 39.92C43.4667 41.328 42.624 42.5013 41.536 43.44C40.448 44.3573 39.1467 45.0507 37.632 45.52C36.1173 45.968 34.4533 46.192 32.64 46.192C31.744 46.192 30.752 46.1493 29.664 46.064C28.5973 46 27.6267 45.8613 26.752 45.648V24.144C27.6267 23.9307 28.5973 23.792 29.664 23.728C30.752 23.6427 31.744 23.6 32.64 23.6C34.4533 23.6 36.1173 23.8347 37.632 24.304C39.1467 24.752 40.448 25.4453 41.536 26.384C42.624 27.3013 43.4667 28.4747 44.064 29.904C44.6613 31.312 44.96 32.976 44.96 34.896ZM32.896 43.472C35.84 43.472 38.0373 42.7253 39.488 41.232C40.9387 39.7173 41.664 37.6053 41.664 34.896C41.664 32.1867 40.9387 30.0853 39.488 28.592C38.0373 27.0773 35.84 26.32 32.896 26.32C32.0213 26.32 31.3387 26.3307 30.848 26.352C30.3787 26.3733 30.048 26.3947 29.856 26.416V43.376C30.048 43.3973 30.3787 43.4187 30.848 43.44C31.3387 43.4613 32.0213 43.472 32.896 43.472Z" fill="#BB0A21"/>
</svg>
