<svg width="71" height="71" viewBox="0 0 71 71" fill="none" xmlns="http://www.w3.org/2000/svg">
<rect x="0.707107" y="35.3553" width="49" height="49" transform="rotate(-45 0.707107 35.3553)" fill="black" stroke="white"/>
<mask id="path-2-outside-1_3164_864" maskUnits="userSpaceOnUse" x="24" y="22" width="21" height="26" fill="black">
<rect fill="white" x="24" y="22" width="21" height="26"/>
<path d="M36.288 46.48C34.7307 46.48 33.312 46.224 32.032 45.712C30.752 45.2 29.6533 44.4533 28.736 43.472C27.8187 42.4907 27.104 41.2853 26.592 39.856C26.1013 38.4053 25.856 36.752 25.856 34.896C25.856 33.04 26.1333 31.3973 26.688 29.968C27.264 28.5173 28.032 27.3013 28.992 26.32C29.952 25.3387 31.072 24.592 32.352 24.08C33.632 23.568 34.9973 23.312 36.448 23.312C37.3653 23.312 38.1867 23.376 38.912 23.504C39.6587 23.632 40.2987 23.7813 40.832 23.952C41.3867 24.1227 41.8347 24.2933 42.176 24.464C42.5173 24.6347 42.752 24.7627 42.88 24.848L41.984 27.408C41.792 27.28 41.5147 27.1413 41.152 26.992C40.7893 26.8427 40.3733 26.6933 39.904 26.544C39.456 26.3947 38.9547 26.2773 38.4 26.192C37.8667 26.0853 37.3227 26.032 36.768 26.032C35.5947 26.032 34.5387 26.2347 33.6 26.64C32.6613 27.0453 31.8613 27.632 31.2 28.4C30.5387 29.168 30.0267 30.1067 29.664 31.216C29.3227 32.304 29.152 33.5307 29.152 34.896C29.152 36.2187 29.3013 37.424 29.6 38.512C29.92 39.6 30.3893 40.5387 31.008 41.328C31.6267 42.096 32.3947 42.6933 33.312 43.12C34.2507 43.5467 35.3387 43.76 36.576 43.76C38.0053 43.76 39.1893 43.6107 40.128 43.312C41.0667 43.0133 41.7707 42.7467 42.24 42.512L43.04 45.072C42.8907 45.1787 42.624 45.3173 42.24 45.488C41.856 45.6373 41.376 45.7867 40.8 45.936C40.224 46.0853 39.552 46.2133 38.784 46.32C38.016 46.4267 37.184 46.48 36.288 46.48Z"/>
</mask>
<path d="M36.288 46.48C34.7307 46.48 33.312 46.224 32.032 45.712C30.752 45.2 29.6533 44.4533 28.736 43.472C27.8187 42.4907 27.104 41.2853 26.592 39.856C26.1013 38.4053 25.856 36.752 25.856 34.896C25.856 33.04 26.1333 31.3973 26.688 29.968C27.264 28.5173 28.032 27.3013 28.992 26.32C29.952 25.3387 31.072 24.592 32.352 24.08C33.632 23.568 34.9973 23.312 36.448 23.312C37.3653 23.312 38.1867 23.376 38.912 23.504C39.6587 23.632 40.2987 23.7813 40.832 23.952C41.3867 24.1227 41.8347 24.2933 42.176 24.464C42.5173 24.6347 42.752 24.7627 42.88 24.848L41.984 27.408C41.792 27.28 41.5147 27.1413 41.152 26.992C40.7893 26.8427 40.3733 26.6933 39.904 26.544C39.456 26.3947 38.9547 26.2773 38.4 26.192C37.8667 26.0853 37.3227 26.032 36.768 26.032C35.5947 26.032 34.5387 26.2347 33.6 26.64C32.6613 27.0453 31.8613 27.632 31.2 28.4C30.5387 29.168 30.0267 30.1067 29.664 31.216C29.3227 32.304 29.152 33.5307 29.152 34.896C29.152 36.2187 29.3013 37.424 29.6 38.512C29.92 39.6 30.3893 40.5387 31.008 41.328C31.6267 42.096 32.3947 42.6933 33.312 43.12C34.2507 43.5467 35.3387 43.76 36.576 43.76C38.0053 43.76 39.1893 43.6107 40.128 43.312C41.0667 43.0133 41.7707 42.7467 42.24 42.512L43.04 45.072C42.8907 45.1787 42.624 45.3173 42.24 45.488C41.856 45.6373 41.376 45.7867 40.8 45.936C40.224 46.0853 39.552 46.2133 38.784 46.32C38.016 46.4267 37.184 46.48 36.288 46.48Z" fill="white"/>
<path d="M32.032 45.712L32.4034 44.7835L32.032 45.712ZM28.736 43.472L28.0055 44.1549L28.736 43.472ZM26.592 39.856L25.6447 40.1764L25.6476 40.1848L25.6506 40.1932L26.592 39.856ZM26.688 29.968L25.7586 29.599L25.7557 29.6062L26.688 29.968ZM28.992 26.32L28.2772 25.6207L28.992 26.32ZM32.352 24.08L31.9806 23.1515L31.9806 23.1515L32.352 24.08ZM38.912 23.504L38.7382 24.4888L38.743 24.4896L38.912 23.504ZM40.832 23.952L40.5272 24.9045L40.5379 24.9078L40.832 23.952ZM42.176 24.464L41.7288 25.3584V25.3584L42.176 24.464ZM42.88 24.848L43.8239 25.1784L44.0801 24.4462L43.4347 24.016L42.88 24.848ZM41.984 27.408L41.4293 28.2401L42.502 28.9552L42.9279 27.7383L41.984 27.408ZM41.152 26.992L41.5328 26.0673L41.5327 26.0673L41.152 26.992ZM39.904 26.544L39.5877 27.4928L39.6008 27.4969L39.904 26.544ZM38.4 26.192L38.2039 27.1726L38.2258 27.177L38.2479 27.1804L38.4 26.192ZM29.664 31.216L28.7134 30.9052L28.7099 30.9167L29.664 31.216ZM29.6 38.512L28.6357 38.7767L28.6381 38.7855L28.6406 38.7942L29.6 38.512ZM31.008 41.328L30.2209 41.9449L30.2292 41.9553L31.008 41.328ZM33.312 43.12L32.8903 44.0268L32.8982 44.0304L33.312 43.12ZM40.128 43.312L39.8248 42.3591L40.128 43.312ZM42.24 42.512L43.1945 42.2137L42.8439 41.092L41.7928 41.6176L42.24 42.512ZM43.04 45.072L43.6212 45.8857L44.2105 45.4649L43.9945 44.7737L43.04 45.072ZM42.24 45.488L42.6024 46.42L42.6245 46.4114L42.6461 46.4018L42.24 45.488ZM38.784 46.32L38.6464 45.3295L38.784 46.32ZM36.288 45.48C34.8415 45.48 33.5509 45.2425 32.4034 44.7835L31.6606 46.6405C33.0731 47.2055 34.6199 47.48 36.288 47.48V45.48ZM32.4034 44.7835C31.256 44.3246 30.2809 43.6604 29.4665 42.7891L28.0055 44.1549C29.0257 45.2463 30.248 46.0754 31.6606 46.6405L32.4034 44.7835ZM29.4665 42.7891C28.6537 41.9196 28.0054 40.8364 27.5334 39.5188L25.6506 40.1932C26.2026 41.7343 26.9836 43.0617 28.0055 44.1549L29.4665 42.7891ZM27.5393 39.5356C27.09 38.2074 26.856 36.6654 26.856 34.896H24.856C24.856 36.8386 25.1126 38.6033 25.6447 40.1764L27.5393 39.5356ZM26.856 34.896C26.856 33.1384 27.1187 31.6223 27.6203 30.3298L25.7557 29.6062C25.148 31.1724 24.856 32.9416 24.856 34.896H26.856ZM27.6174 30.337C28.1512 28.9928 28.8514 27.8937 29.7068 27.0193L28.2772 25.6207C27.2126 26.7089 26.3768 28.0419 25.7586 29.599L27.6174 30.337ZM29.7068 27.0193C30.5691 26.1378 31.572 25.469 32.7234 25.0085L31.9806 23.1515C30.572 23.715 29.3349 24.5395 28.2772 25.6207L29.7068 27.0193ZM32.7234 25.0085C33.8792 24.5462 35.1178 24.312 36.448 24.312V22.312C34.8769 22.312 33.3848 22.5898 31.9806 23.1515L32.7234 25.0085ZM36.448 24.312C37.3206 24.312 38.0822 24.373 38.7382 24.4888L39.0858 22.5192C38.2912 22.379 37.4101 22.312 36.448 22.312V24.312ZM38.743 24.4896C39.4586 24.6123 40.0507 24.7519 40.5272 24.9044L41.1368 22.9996C40.5466 22.8107 39.8587 22.6517 39.081 22.5184L38.743 24.4896ZM40.5379 24.9078C41.0641 25.0697 41.4551 25.2216 41.7288 25.3584L42.6232 23.5696C42.2143 23.3651 41.7093 23.1757 41.1261 22.9962L40.5379 24.9078ZM41.7288 25.3584C42.0714 25.5297 42.255 25.6332 42.3253 25.68L43.4347 24.016C43.249 23.8922 42.9633 23.7396 42.6232 23.5696L41.7288 25.3584ZM41.9361 24.5176L41.0401 27.0776L42.9279 27.7383L43.8239 25.1784L41.9361 24.5176ZM42.5387 26.5759C42.267 26.3948 41.9204 26.2269 41.5328 26.0673L40.7712 27.9167C41.1089 28.0557 41.317 28.1652 41.4293 28.2401L42.5387 26.5759ZM41.5327 26.0673C41.1392 25.9053 40.6965 25.7467 40.2072 25.5911L39.6008 27.4969C40.0502 27.6399 40.4395 27.7801 40.7713 27.9167L41.5327 26.0673ZM40.2202 25.5953C39.7099 25.4252 39.1524 25.296 38.5521 25.2036L38.2479 27.1804C38.7569 27.2587 39.2021 27.3641 39.5878 27.4927L40.2202 25.5953ZM38.5961 25.2114C37.9969 25.0916 37.3872 25.032 36.768 25.032V27.032C37.2581 27.032 37.7364 27.0791 38.2039 27.1726L38.5961 25.2114ZM36.768 25.032C35.4783 25.032 34.2845 25.2551 33.2036 25.7219L33.9964 27.5581C34.7928 27.2142 35.711 27.032 36.768 27.032V25.032ZM33.2036 25.7219C32.1272 26.1867 31.2033 26.8637 30.4422 27.7475L31.9578 29.0525C32.5194 28.4003 33.1955 27.9039 33.9964 27.5581L33.2036 25.7219ZM30.4422 27.7475C29.6827 28.6296 29.111 29.6892 28.7135 30.9053L30.6145 31.5267C30.9423 30.5241 31.3947 29.7064 31.9578 29.0525L30.4422 27.7475ZM28.7099 30.9167C28.3328 32.1184 28.152 33.4485 28.152 34.896H30.152C30.152 33.6128 30.3125 32.4896 30.6181 31.5153L28.7099 30.9167ZM28.152 34.896C28.152 36.2932 28.3097 37.5892 28.6357 38.7767L30.5643 38.2473C30.293 37.2588 30.152 36.1442 30.152 34.896H28.152ZM28.6406 38.7942C28.9917 39.9878 29.5146 41.0437 30.2209 41.9449L31.7951 40.7111C31.264 40.0336 30.8483 39.2122 30.5594 38.2298L28.6406 38.7942ZM30.2292 41.9553C30.9465 42.8457 31.8378 43.5372 32.8903 44.0267L33.7337 42.2133C32.9515 41.8495 32.3068 41.3463 31.7868 40.7007L30.2292 41.9553ZM32.8982 44.0304C33.9902 44.5267 35.224 44.76 36.576 44.76V42.76C35.4533 42.76 34.5112 42.5666 33.7258 42.2096L32.8982 44.0304ZM36.576 44.76C38.0661 44.76 39.3611 44.6054 40.4312 44.2649L39.8248 42.3591C39.0175 42.6159 37.9445 42.76 36.576 42.76V44.76ZM40.4312 44.2649C41.3844 43.9616 42.1474 43.6763 42.6872 43.4064L41.7928 41.6176C41.394 41.817 40.7489 42.065 39.8248 42.3591L40.4312 44.2649ZM41.2855 42.8103L42.0855 45.3703L43.9945 44.7737L43.1945 42.2137L41.2855 42.8103ZM42.4588 44.2583C42.3991 44.3009 42.2144 44.405 41.8339 44.5742L42.6461 46.4018C43.0336 46.2296 43.3822 46.0564 43.6212 45.8857L42.4588 44.2583ZM41.8776 44.556C41.542 44.6865 41.1022 44.8246 40.549 44.968L41.051 46.904C41.6498 46.7488 42.17 46.5882 42.6024 46.42L41.8776 44.556ZM40.549 44.968C40.0196 45.1053 39.387 45.2267 38.6464 45.3295L38.9216 47.3105C39.717 47.2 40.4284 47.0654 41.051 46.904L40.549 44.968ZM38.6464 45.3295C37.9304 45.429 37.1449 45.48 36.288 45.48V47.48C37.2231 47.48 38.1016 47.4244 38.9216 47.3105L38.6464 45.3295Z" fill="white" mask="url(#path-2-outside-1_3164_864)"/>
</svg>
