<svg width="71" height="71" viewBox="0 0 71 71" fill="none" xmlns="http://www.w3.org/2000/svg">
<rect x="0.707107" y="35.3553" width="49" height="49" transform="rotate(-45 0.707107 35.3553)" fill="black" stroke="white"/>
<mask id="path-2-outside-1_3164_879" maskUnits="userSpaceOnUse" x="25" y="22" width="20" height="25" fill="black">
<rect fill="white" x="25" y="22" width="20" height="25"/>
<path d="M40.704 23.824H43.808V46H40.704V35.76H29.856V46H26.752V23.824H29.856V33.072H40.704V23.824Z"/>
</mask>
<path d="M40.704 23.824H43.808V46H40.704V35.76H29.856V46H26.752V23.824H29.856V33.072H40.704V23.824Z" fill="white"/>
<path d="M40.704 23.824V22.824H39.704V23.824H40.704ZM43.808 23.824H44.808V22.824H43.808V23.824ZM43.808 46V47H44.808V46H43.808ZM40.704 46H39.704V47H40.704V46ZM40.704 35.76H41.704V34.76H40.704V35.76ZM29.856 35.76V34.76H28.856V35.76H29.856ZM29.856 46V47H30.856V46H29.856ZM26.752 46H25.752V47H26.752V46ZM26.752 23.824V22.824H25.752V23.824H26.752ZM29.856 23.824H30.856V22.824H29.856V23.824ZM29.856 33.072H28.856V34.072H29.856V33.072ZM40.704 33.072V34.072H41.704V33.072H40.704ZM40.704 24.824H43.808V22.824H40.704V24.824ZM42.808 23.824V46H44.808V23.824H42.808ZM43.808 45H40.704V47H43.808V45ZM41.704 46V35.76H39.704V46H41.704ZM40.704 34.76H29.856V36.76H40.704V34.76ZM28.856 35.76V46H30.856V35.76H28.856ZM29.856 45H26.752V47H29.856V45ZM27.752 46V23.824H25.752V46H27.752ZM26.752 24.824H29.856V22.824H26.752V24.824ZM28.856 23.824V33.072H30.856V23.824H28.856ZM29.856 34.072H40.704V32.072H29.856V34.072ZM41.704 33.072V23.824H39.704V33.072H41.704Z" fill="white" mask="url(#path-2-outside-1_3164_879)"/>
</svg>
