<svg width="71" height="71" viewBox="0 0 71 71" fill="none" xmlns="http://www.w3.org/2000/svg">
<rect x="0.707107" y="35.3553" width="49" height="49" transform="rotate(-45 0.707107 35.3553)" fill="black" stroke="white"/>
<mask id="path-2-outside-1_3164_867" maskUnits="userSpaceOnUse" x="25" y="22" width="21" height="26" fill="black">
<rect fill="white" x="25" y="22" width="21" height="26"/>
<path d="M44.96 34.896C44.96 36.816 44.6613 38.4907 44.064 39.92C43.4667 41.328 42.624 42.5013 41.536 43.44C40.448 44.3573 39.1467 45.0507 37.632 45.52C36.1173 45.968 34.4533 46.192 32.64 46.192C31.744 46.192 30.752 46.1493 29.664 46.064C28.5973 46 27.6267 45.8613 26.752 45.648V24.144C27.6267 23.9307 28.5973 23.792 29.664 23.728C30.752 23.6427 31.744 23.6 32.64 23.6C34.4533 23.6 36.1173 23.8347 37.632 24.304C39.1467 24.752 40.448 25.4453 41.536 26.384C42.624 27.3013 43.4667 28.4747 44.064 29.904C44.6613 31.312 44.96 32.976 44.96 34.896ZM32.896 43.472C35.84 43.472 38.0373 42.7253 39.488 41.232C40.9387 39.7173 41.664 37.6053 41.664 34.896C41.664 32.1867 40.9387 30.0853 39.488 28.592C38.0373 27.0773 35.84 26.32 32.896 26.32C32.0213 26.32 31.3387 26.3307 30.848 26.352C30.3787 26.3733 30.048 26.3947 29.856 26.416V43.376C30.048 43.3973 30.3787 43.4187 30.848 43.44C31.3387 43.4613 32.0213 43.472 32.896 43.472Z"/>
</mask>
<path d="M44.96 34.896C44.96 36.816 44.6613 38.4907 44.064 39.92C43.4667 41.328 42.624 42.5013 41.536 43.44C40.448 44.3573 39.1467 45.0507 37.632 45.52C36.1173 45.968 34.4533 46.192 32.64 46.192C31.744 46.192 30.752 46.1493 29.664 46.064C28.5973 46 27.6267 45.8613 26.752 45.648V24.144C27.6267 23.9307 28.5973 23.792 29.664 23.728C30.752 23.6427 31.744 23.6 32.64 23.6C34.4533 23.6 36.1173 23.8347 37.632 24.304C39.1467 24.752 40.448 25.4453 41.536 26.384C42.624 27.3013 43.4667 28.4747 44.064 29.904C44.6613 31.312 44.96 32.976 44.96 34.896ZM32.896 43.472C35.84 43.472 38.0373 42.7253 39.488 41.232C40.9387 39.7173 41.664 37.6053 41.664 34.896C41.664 32.1867 40.9387 30.0853 39.488 28.592C38.0373 27.0773 35.84 26.32 32.896 26.32C32.0213 26.32 31.3387 26.3307 30.848 26.352C30.3787 26.3733 30.048 26.3947 29.856 26.416V43.376C30.048 43.3973 30.3787 43.4187 30.848 43.44C31.3387 43.4613 32.0213 43.472 32.896 43.472Z" fill="white"/>
<path d="M44.064 39.92L44.9846 40.3106L44.9867 40.3056L44.064 39.92ZM41.536 43.44L42.1806 44.2046L42.1892 44.1972L41.536 43.44ZM37.632 45.52L37.9157 46.479L37.928 46.4752L37.632 45.52ZM29.664 46.064L29.7422 45.0671L29.733 45.0663L29.7239 45.0658L29.664 46.064ZM26.752 45.648H25.752V46.4334L26.515 46.6195L26.752 45.648ZM26.752 24.144L26.515 23.1725L25.752 23.3586V24.144H26.752ZM29.664 23.728L29.7239 24.7262L29.733 24.7257L29.7422 24.7249L29.664 23.728ZM37.632 24.304L37.336 25.2593L37.3484 25.2629L37.632 24.304ZM41.536 26.384L40.8827 27.1412L40.8914 27.1485L41.536 26.384ZM44.064 29.904L43.1413 30.2896L43.1434 30.2945L44.064 29.904ZM39.488 41.232L40.2053 41.9288L40.2102 41.9237L39.488 41.232ZM39.488 28.592L38.7658 29.2837L38.7707 29.2888L39.488 28.592ZM30.848 26.352L30.8046 25.3529L30.8026 25.353L30.848 26.352ZM29.856 26.416L29.7456 25.4221L28.856 25.521V26.416H29.856ZM29.856 43.376H28.856V44.271L29.7456 44.3699L29.856 43.376ZM30.848 43.44L30.8026 44.439L30.8046 44.4391L30.848 43.44ZM43.96 34.896C43.96 36.7143 43.677 38.2527 43.1413 39.5344L44.9867 40.3056C45.6457 38.7287 45.96 36.9177 45.96 34.896H43.96ZM43.1434 39.5294C42.602 40.8057 41.8473 41.8507 40.8828 42.6828L42.1892 44.1972C43.4007 43.152 44.3313 41.8503 44.9846 40.3105L43.1434 39.5294ZM40.8914 42.6755C39.9168 43.4972 38.7375 44.1305 37.336 44.5648L37.928 46.4752C39.5558 45.9708 40.9792 45.2174 42.1806 44.2045L40.8914 42.6755ZM37.3484 44.5611C35.9382 44.9781 34.3712 45.192 32.64 45.192V47.192C34.5355 47.192 36.2964 46.9578 37.9156 46.4789L37.3484 44.5611ZM32.64 45.192C31.775 45.192 30.8095 45.1508 29.7422 45.0671L29.5858 47.0609C30.6945 47.1479 31.713 47.192 32.64 47.192V45.192ZM29.7239 45.0658C28.7062 45.0047 27.796 44.8733 26.989 44.6765L26.515 46.6195C27.4574 46.8494 28.4884 46.9953 29.6041 47.0622L29.7239 45.0658ZM27.752 45.648V24.144H25.752V45.648H27.752ZM26.989 25.1155C27.796 24.9187 28.7062 24.7873 29.7239 24.7262L29.6041 22.7298C28.4884 22.7967 27.4574 22.9426 26.515 23.1725L26.989 25.1155ZM29.7422 24.7249C30.8095 24.6412 31.775 24.6 32.64 24.6V22.6C31.713 22.6 30.6945 22.6441 29.5858 22.7311L29.7422 24.7249ZM32.64 24.6C34.3671 24.6 35.9298 24.8235 37.336 25.2592L37.928 23.3488C36.3048 22.8459 34.5396 22.6 32.64 22.6V24.6ZM37.3484 25.2629C38.7405 25.6747 39.9125 26.3041 40.8828 27.1412L42.1892 25.6268C40.9835 24.5866 39.5528 23.8293 37.9156 23.3451L37.3484 25.2629ZM40.8914 27.1485C41.8474 27.9546 42.5997 28.9936 43.1413 30.2896L44.9867 29.5184C44.3336 27.9557 43.4006 26.6481 42.1806 25.6195L40.8914 27.1485ZM43.1434 30.2945C43.6768 31.5518 43.96 33.0771 43.96 34.896H45.96C45.96 32.8749 45.6459 31.0722 44.9846 29.5134L43.1434 30.2945ZM32.896 44.472C35.9966 44.472 38.4996 43.6846 40.2053 41.9288L38.7707 40.5352C37.5751 41.7661 35.6834 42.472 32.896 42.472V44.472ZM40.2102 41.9237C41.8867 40.1732 42.664 37.785 42.664 34.896H40.664C40.664 37.4256 39.9907 39.2614 38.7658 40.5403L40.2102 41.9237ZM42.664 34.896C42.664 32.0078 41.887 29.6264 40.2053 27.8952L38.7707 29.2888C39.9904 30.5443 40.664 32.3655 40.664 34.896H42.664ZM40.2102 27.9003C38.5052 26.1201 36.0003 25.32 32.896 25.32V27.32C35.6797 27.32 37.5695 28.0346 38.7658 29.2837L40.2102 27.9003ZM32.896 25.32C32.0161 25.32 31.3167 25.3307 30.8046 25.3529L30.8914 27.3511C31.3606 27.3307 32.0265 27.32 32.896 27.32V25.32ZM30.8026 25.353C30.3335 25.3744 29.9735 25.3968 29.7456 25.4221L29.9664 27.4099C30.1225 27.3925 30.4239 27.3723 30.8934 27.351L30.8026 25.353ZM28.856 26.416V43.376H30.856V26.416H28.856ZM29.7456 44.3699C29.9735 44.3952 30.3335 44.4176 30.8026 44.439L30.8934 42.441C30.4239 42.4197 30.1225 42.3995 29.9664 42.3821L29.7456 44.3699ZM30.8046 44.4391C31.3167 44.4613 32.0161 44.472 32.896 44.472V42.472C32.0265 42.472 31.3606 42.4613 30.8914 42.4409L30.8046 44.4391Z" fill="white" mask="url(#path-2-outside-1_3164_867)"/>
</svg>
