<svg width="71" height="71" viewBox="0 0 71 71" fill="none" xmlns="http://www.w3.org/2000/svg">
<rect x="0.707107" y="35.3553" width="49" height="49" transform="rotate(-45 0.707107 35.3553)" fill="black" stroke="white"/>
<mask id="path-2-outside-1_3162_860" maskUnits="userSpaceOnUse" x="25" y="22" width="19" height="26" fill="black">
<rect fill="white" x="25" y="22" width="19" height="26"/>
<path d="M32.736 46.192C32.288 46.192 31.7973 46.1813 31.264 46.16C30.752 46.1387 30.2293 46.1067 29.696 46.064C29.184 46.0213 28.672 45.968 28.16 45.904C27.648 45.84 27.1787 45.7547 26.752 45.648V24.144C27.1787 24.0373 27.648 23.952 28.16 23.888C28.672 23.824 29.184 23.7707 29.696 23.728C30.2293 23.6853 30.752 23.6533 31.264 23.632C31.776 23.6107 32.256 23.6 32.704 23.6C33.984 23.6 35.1787 23.696 36.288 23.888C37.4187 24.08 38.3893 24.4107 39.2 24.88C40.032 25.328 40.6827 25.9253 41.152 26.672C41.6213 27.4187 41.856 28.336 41.856 29.424C41.856 30.64 41.568 31.6427 40.992 32.432C40.416 33.2 39.648 33.776 38.688 34.16C39.9893 34.544 41.024 35.152 41.792 35.984C42.56 36.816 42.944 37.9893 42.944 39.504C42.944 41.7227 42.1227 43.3973 40.48 44.528C38.8587 45.6373 36.2773 46.192 32.736 46.192ZM29.824 35.664V43.472C30.0587 43.4933 30.336 43.5147 30.656 43.536C30.9333 43.5573 31.2533 43.5787 31.616 43.6C32 43.6 32.4373 43.6 32.928 43.6C33.8453 43.6 34.7093 43.5467 35.52 43.44C36.352 43.312 37.0773 43.0987 37.696 42.8C38.3147 42.5013 38.8053 42.0853 39.168 41.552C39.552 41.0187 39.744 40.3467 39.744 39.536C39.744 38.8107 39.6053 38.2027 39.328 37.712C39.0507 37.2 38.6453 36.7947 38.112 36.496C37.6 36.1973 36.9813 35.984 36.256 35.856C35.5307 35.728 34.72 35.664 33.824 35.664H29.824ZM29.824 33.168H33.088C33.856 33.168 34.5813 33.1147 35.264 33.008C35.9467 32.9013 36.5333 32.7093 37.024 32.432C37.536 32.1547 37.9307 31.792 38.208 31.344C38.5067 30.896 38.656 30.3307 38.656 29.648C38.656 29.008 38.5067 28.4747 38.208 28.048C37.9093 27.6 37.4933 27.248 36.96 26.992C36.448 26.7147 35.84 26.512 35.136 26.384C34.432 26.256 33.6853 26.192 32.896 26.192C32.1067 26.192 31.488 26.2027 31.04 26.224C30.592 26.2453 30.1867 26.2773 29.824 26.32V33.168Z"/>
</mask>
<path d="M32.736 46.192C32.288 46.192 31.7973 46.1813 31.264 46.16C30.752 46.1387 30.2293 46.1067 29.696 46.064C29.184 46.0213 28.672 45.968 28.16 45.904C27.648 45.84 27.1787 45.7547 26.752 45.648V24.144C27.1787 24.0373 27.648 23.952 28.16 23.888C28.672 23.824 29.184 23.7707 29.696 23.728C30.2293 23.6853 30.752 23.6533 31.264 23.632C31.776 23.6107 32.256 23.6 32.704 23.6C33.984 23.6 35.1787 23.696 36.288 23.888C37.4187 24.08 38.3893 24.4107 39.2 24.88C40.032 25.328 40.6827 25.9253 41.152 26.672C41.6213 27.4187 41.856 28.336 41.856 29.424C41.856 30.64 41.568 31.6427 40.992 32.432C40.416 33.2 39.648 33.776 38.688 34.16C39.9893 34.544 41.024 35.152 41.792 35.984C42.56 36.816 42.944 37.9893 42.944 39.504C42.944 41.7227 42.1227 43.3973 40.48 44.528C38.8587 45.6373 36.2773 46.192 32.736 46.192ZM29.824 35.664V43.472C30.0587 43.4933 30.336 43.5147 30.656 43.536C30.9333 43.5573 31.2533 43.5787 31.616 43.6C32 43.6 32.4373 43.6 32.928 43.6C33.8453 43.6 34.7093 43.5467 35.52 43.44C36.352 43.312 37.0773 43.0987 37.696 42.8C38.3147 42.5013 38.8053 42.0853 39.168 41.552C39.552 41.0187 39.744 40.3467 39.744 39.536C39.744 38.8107 39.6053 38.2027 39.328 37.712C39.0507 37.2 38.6453 36.7947 38.112 36.496C37.6 36.1973 36.9813 35.984 36.256 35.856C35.5307 35.728 34.72 35.664 33.824 35.664H29.824ZM29.824 33.168H33.088C33.856 33.168 34.5813 33.1147 35.264 33.008C35.9467 32.9013 36.5333 32.7093 37.024 32.432C37.536 32.1547 37.9307 31.792 38.208 31.344C38.5067 30.896 38.656 30.3307 38.656 29.648C38.656 29.008 38.5067 28.4747 38.208 28.048C37.9093 27.6 37.4933 27.248 36.96 26.992C36.448 26.7147 35.84 26.512 35.136 26.384C34.432 26.256 33.6853 26.192 32.896 26.192C32.1067 26.192 31.488 26.2027 31.04 26.224C30.592 26.2453 30.1867 26.2773 29.824 26.32V33.168Z" fill="white"/>
<path d="M31.264 46.16L31.2224 47.1591L31.224 47.1592L31.264 46.16ZM29.696 46.064L29.613 47.0606L29.6163 47.0608L29.696 46.064ZM26.752 45.648H25.752V46.4288L26.5095 46.6181L26.752 45.648ZM26.752 24.144L26.5095 23.1739L25.752 23.3632V24.144H26.752ZM28.16 23.888L28.036 22.8957L28.036 22.8957L28.16 23.888ZM29.696 23.728L29.6163 22.7312L29.613 22.7315L29.696 23.728ZM31.264 23.632L31.2224 22.6329H31.2224L31.264 23.632ZM36.288 23.888L36.1175 24.8734L36.1206 24.8739L36.288 23.888ZM39.2 24.88L38.699 25.7454L38.7123 25.7532L38.7259 25.7605L39.2 24.88ZM40.992 32.432L41.7921 33.0321L41.7998 33.0215L40.992 32.432ZM38.688 34.16L38.3166 33.2315L35.6385 34.3028L38.405 35.1191L38.688 34.16ZM41.792 35.984L42.5268 35.3057L41.792 35.984ZM40.48 44.528L41.0447 45.3533L41.047 45.3517L40.48 44.528ZM29.824 35.664V34.664H28.824V35.664H29.824ZM29.824 43.472H28.824V44.3852L29.7335 44.4679L29.824 43.472ZM30.656 43.536L30.7327 42.5389L30.7225 42.5382L30.656 43.536ZM31.616 43.6L31.5573 44.5983L31.5866 44.6H31.616V43.6ZM35.52 43.44L35.6505 44.4315L35.6613 44.43L35.6721 44.4284L35.52 43.44ZM37.696 42.8L38.1307 43.7006H38.1308L37.696 42.8ZM39.168 41.552L38.3565 40.9677L38.3486 40.9786L38.3411 40.9897L39.168 41.552ZM39.328 37.712L38.4487 38.1883L38.453 38.1962L38.4574 38.2041L39.328 37.712ZM38.112 36.496L37.6081 37.3598L37.6157 37.3642L37.6234 37.3685L38.112 36.496ZM36.256 35.856L36.0822 36.8408L36.256 35.856ZM29.824 33.168H28.824V34.168H29.824V33.168ZM35.264 33.008L35.4184 33.996L35.264 33.008ZM37.024 32.432L36.5477 31.5527L36.5398 31.557L36.5319 31.5614L37.024 32.432ZM38.208 31.344L37.376 30.7893L37.3666 30.8033L37.3577 30.8176L38.208 31.344ZM38.208 28.048L37.376 28.6027L37.3823 28.6122L37.3888 28.6215L38.208 28.048ZM36.96 26.992L36.4837 27.8713L36.5052 27.8829L36.5273 27.8935L36.96 26.992ZM29.824 26.32L29.7072 25.3268L28.824 25.4308V26.32H29.824ZM32.736 45.192C32.3036 45.192 31.8264 45.1817 31.304 45.1608L31.224 47.1592C31.7683 47.181 32.2724 47.192 32.736 47.192V45.192ZM31.3056 45.1609C30.8069 45.1401 30.2969 45.1089 29.7757 45.0672L29.6163 47.0608C30.1617 47.1045 30.6971 47.1372 31.2224 47.1591L31.3056 45.1609ZM29.779 45.0675C29.2808 45.0259 28.7825 44.974 28.284 44.9117L28.036 46.8963C28.5615 46.962 29.0872 47.0167 29.613 47.0605L29.779 45.0675ZM28.284 44.9117C27.8053 44.8519 27.3762 44.7733 26.9945 44.6779L26.5095 46.6181C26.9811 46.7361 27.4907 46.8281 28.036 46.8963L28.284 44.9117ZM27.752 45.648V24.144H25.752V45.648H27.752ZM26.9945 25.1141C27.3762 25.0187 27.8053 24.9401 28.284 24.8803L28.036 22.8957C27.4907 22.9639 26.9811 23.0559 26.5095 23.1739L26.9945 25.1141ZM28.284 24.8803C28.7825 24.818 29.2808 24.7661 29.779 24.7245L29.613 22.7315C29.0872 22.7753 28.5615 22.83 28.036 22.8957L28.284 24.8803ZM29.7757 24.7248C30.2969 24.6831 30.8069 24.6519 31.3056 24.6311L31.2224 22.6329C30.6971 22.6548 30.1617 22.6875 29.6163 22.7312L29.7757 24.7248ZM31.3056 24.6311C31.8057 24.6103 32.2717 24.6 32.704 24.6V22.6C32.2403 22.6 31.7463 22.611 31.2224 22.6329L31.3056 24.6311ZM32.704 24.6C33.9344 24.6 35.0715 24.6923 36.1175 24.8733L36.4585 22.9026C35.2859 22.6997 34.0336 22.6 32.704 22.6V24.6ZM36.1206 24.8739C37.1592 25.0503 38.0117 25.3475 38.699 25.7454L39.701 24.0146C38.767 23.4738 37.6781 23.1097 36.4554 22.9021L36.1206 24.8739ZM38.7259 25.7605C39.4169 26.1326 39.9346 26.6143 40.3054 27.2042L41.9986 26.1398C41.4308 25.2364 40.6471 24.5234 39.6741 23.9995L38.7259 25.7605ZM40.3054 27.2042C40.6534 27.7579 40.856 28.4803 40.856 29.424H42.856C42.856 28.1917 42.5893 27.0795 41.9986 26.1398L40.3054 27.2042ZM40.856 29.424C40.856 30.4806 40.6076 31.2624 40.1842 31.8425L41.7998 33.0215C42.5284 32.023 42.856 30.7994 42.856 29.424H40.856ZM40.192 31.832C39.7345 32.442 39.1199 32.9102 38.3166 33.2315L39.0594 35.0885C40.1761 34.6418 41.0975 33.958 41.792 33.032L40.192 31.832ZM38.405 35.1191C39.5676 35.4622 40.434 35.9871 41.0572 36.6623L42.5268 35.3057C41.614 34.3169 40.411 33.6258 38.971 33.2009L38.405 35.1191ZM41.0572 36.6623C41.6039 37.2545 41.944 38.1542 41.944 39.504H43.944C43.944 37.8245 43.5161 36.3775 42.5268 35.3057L41.0572 36.6623ZM41.944 39.504C41.944 41.4369 41.2508 42.7835 39.913 43.7043L41.047 45.3517C42.9946 44.0112 43.944 42.0085 43.944 39.504H41.944ZM39.9153 43.7027C38.5474 44.6386 36.2166 45.192 32.736 45.192V47.192C36.3381 47.192 39.1699 46.6361 41.0447 45.3533L39.9153 43.7027ZM28.824 35.664V43.472H30.824V35.664H28.824ZM29.7335 44.4679C29.9784 44.4902 30.2641 44.5121 30.5895 44.5338L30.7225 42.5382C30.4079 42.5172 30.1389 42.4965 29.9145 42.4761L29.7335 44.4679ZM30.5793 44.5331C30.8641 44.555 31.1903 44.5767 31.5573 44.5983L31.6747 42.6017C31.3164 42.5806 31.0026 42.5597 30.7327 42.5389L30.5793 44.5331ZM31.616 44.6C31.6168 44.6 31.6175 44.6 31.6183 44.6C31.619 44.6 31.6198 44.6 31.6205 44.6C31.6213 44.6 31.622 44.6 31.6228 44.6C31.6235 44.6 31.6243 44.6 31.625 44.6C31.6258 44.6 31.6265 44.6 31.6273 44.6C31.628 44.6 31.6288 44.6 31.6295 44.6C31.6303 44.6 31.631 44.6 31.6318 44.6C31.6325 44.6 31.6333 44.6 31.634 44.6C31.6348 44.6 31.6355 44.6 31.6363 44.6C31.6371 44.6 31.6378 44.6 31.6386 44.6C31.6393 44.6 31.6401 44.6 31.6408 44.6C31.6416 44.6 31.6423 44.6 31.6431 44.6C31.6438 44.6 31.6446 44.6 31.6454 44.6C31.6461 44.6 31.6469 44.6 31.6476 44.6C31.6484 44.6 31.6491 44.6 31.6499 44.6C31.6506 44.6 31.6514 44.6 31.6522 44.6C31.6529 44.6 31.6537 44.6 31.6544 44.6C31.6552 44.6 31.6559 44.6 31.6567 44.6C31.6575 44.6 31.6582 44.6 31.659 44.6C31.6597 44.6 31.6605 44.6 31.6612 44.6C31.662 44.6 31.6628 44.6 31.6635 44.6C31.6643 44.6 31.665 44.6 31.6658 44.6C31.6666 44.6 31.6673 44.6 31.6681 44.6C31.6688 44.6 31.6696 44.6 31.6704 44.6C31.6711 44.6 31.6719 44.6 31.6726 44.6C31.6734 44.6 31.6742 44.6 31.6749 44.6C31.6757 44.6 31.6764 44.6 31.6772 44.6C31.678 44.6 31.6787 44.6 31.6795 44.6C31.6802 44.6 31.681 44.6 31.6818 44.6C31.6825 44.6 31.6833 44.6 31.684 44.6C31.6848 44.6 31.6856 44.6 31.6863 44.6C31.6871 44.6 31.6879 44.6 31.6886 44.6C31.6894 44.6 31.6902 44.6 31.6909 44.6C31.6917 44.6 31.6924 44.6 31.6932 44.6C31.694 44.6 31.6947 44.6 31.6955 44.6C31.6963 44.6 31.697 44.6 31.6978 44.6C31.6986 44.6 31.6993 44.6 31.7001 44.6C31.7009 44.6 31.7016 44.6 31.7024 44.6C31.7031 44.6 31.7039 44.6 31.7047 44.6C31.7054 44.6 31.7062 44.6 31.707 44.6C31.7077 44.6 31.7085 44.6 31.7093 44.6C31.71 44.6 31.7108 44.6 31.7116 44.6C31.7123 44.6 31.7131 44.6 31.7139 44.6C31.7146 44.6 31.7154 44.6 31.7162 44.6C31.7169 44.6 31.7177 44.6 31.7185 44.6C31.7193 44.6 31.72 44.6 31.7208 44.6C31.7216 44.6 31.7223 44.6 31.7231 44.6C31.7239 44.6 31.7246 44.6 31.7254 44.6C31.7262 44.6 31.7269 44.6 31.7277 44.6C31.7285 44.6 31.7293 44.6 31.73 44.6C31.7308 44.6 31.7316 44.6 31.7323 44.6C31.7331 44.6 31.7339 44.6 31.7347 44.6C31.7354 44.6 31.7362 44.6 31.737 44.6C31.7377 44.6 31.7385 44.6 31.7393 44.6C31.7401 44.6 31.7408 44.6 31.7416 44.6C31.7424 44.6 31.7431 44.6 31.7439 44.6C31.7447 44.6 31.7455 44.6 31.7462 44.6C31.747 44.6 31.7478 44.6 31.7486 44.6C31.7493 44.6 31.7501 44.6 31.7509 44.6C31.7516 44.6 31.7524 44.6 31.7532 44.6C31.754 44.6 31.7547 44.6 31.7555 44.6C31.7563 44.6 31.7571 44.6 31.7578 44.6C31.7586 44.6 31.7594 44.6 31.7602 44.6C31.7609 44.6 31.7617 44.6 31.7625 44.6C31.7633 44.6 31.7641 44.6 31.7648 44.6C31.7656 44.6 31.7664 44.6 31.7672 44.6C31.7679 44.6 31.7687 44.6 31.7695 44.6C31.7703 44.6 31.771 44.6 31.7718 44.6C31.7726 44.6 31.7734 44.6 31.7742 44.6C31.7749 44.6 31.7757 44.6 31.7765 44.6C31.7773 44.6 31.778 44.6 31.7788 44.6C31.7796 44.6 31.7804 44.6 31.7812 44.6C31.7819 44.6 31.7827 44.6 31.7835 44.6C31.7843 44.6 31.7851 44.6 31.7858 44.6C31.7866 44.6 31.7874 44.6 31.7882 44.6C31.789 44.6 31.7897 44.6 31.7905 44.6C31.7913 44.6 31.7921 44.6 31.7929 44.6C31.7937 44.6 31.7944 44.6 31.7952 44.6C31.796 44.6 31.7968 44.6 31.7976 44.6C31.7983 44.6 31.7991 44.6 31.7999 44.6C31.8007 44.6 31.8015 44.6 31.8023 44.6C31.803 44.6 31.8038 44.6 31.8046 44.6C31.8054 44.6 31.8062 44.6 31.807 44.6C31.8077 44.6 31.8085 44.6 31.8093 44.6C31.8101 44.6 31.8109 44.6 31.8117 44.6C31.8124 44.6 31.8132 44.6 31.814 44.6C31.8148 44.6 31.8156 44.6 31.8164 44.6C31.8172 44.6 31.8179 44.6 31.8187 44.6C31.8195 44.6 31.8203 44.6 31.8211 44.6C31.8219 44.6 31.8227 44.6 31.8234 44.6C31.8242 44.6 31.825 44.6 31.8258 44.6C31.8266 44.6 31.8274 44.6 31.8282 44.6C31.829 44.6 31.8297 44.6 31.8305 44.6C31.8313 44.6 31.8321 44.6 31.8329 44.6C31.8337 44.6 31.8345 44.6 31.8353 44.6C31.836 44.6 31.8368 44.6 31.8376 44.6C31.8384 44.6 31.8392 44.6 31.84 44.6C31.8408 44.6 31.8416 44.6 31.8424 44.6C31.8432 44.6 31.8439 44.6 31.8447 44.6C31.8455 44.6 31.8463 44.6 31.8471 44.6C31.8479 44.6 31.8487 44.6 31.8495 44.6C31.8503 44.6 31.8511 44.6 31.8519 44.6C31.8526 44.6 31.8534 44.6 31.8542 44.6C31.855 44.6 31.8558 44.6 31.8566 44.6C31.8574 44.6 31.8582 44.6 31.859 44.6C31.8598 44.6 31.8606 44.6 31.8614 44.6C31.8622 44.6 31.8629 44.6 31.8637 44.6C31.8645 44.6 31.8653 44.6 31.8661 44.6C31.8669 44.6 31.8677 44.6 31.8685 44.6C31.8693 44.6 31.8701 44.6 31.8709 44.6C31.8717 44.6 31.8725 44.6 31.8733 44.6C31.8741 44.6 31.8749 44.6 31.8757 44.6C31.8765 44.6 31.8772 44.6 31.878 44.6C31.8788 44.6 31.8796 44.6 31.8804 44.6C31.8812 44.6 31.882 44.6 31.8828 44.6C31.8836 44.6 31.8844 44.6 31.8852 44.6C31.886 44.6 31.8868 44.6 31.8876 44.6C31.8884 44.6 31.8892 44.6 31.89 44.6C31.8908 44.6 31.8916 44.6 31.8924 44.6C31.8932 44.6 31.894 44.6 31.8948 44.6C31.8956 44.6 31.8964 44.6 31.8972 44.6C31.898 44.6 31.8988 44.6 31.8996 44.6C31.9004 44.6 31.9012 44.6 31.902 44.6C31.9028 44.6 31.9036 44.6 31.9044 44.6C31.9052 44.6 31.906 44.6 31.9068 44.6C31.9076 44.6 31.9084 44.6 31.9092 44.6C31.91 44.6 31.9108 44.6 31.9116 44.6C31.9124 44.6 31.9132 44.6 31.914 44.6C31.9148 44.6 31.9156 44.6 31.9164 44.6C31.9172 44.6 31.918 44.6 31.9188 44.6C31.9196 44.6 31.9204 44.6 31.9212 44.6C31.922 44.6 31.9228 44.6 31.9236 44.6C31.9244 44.6 31.9252 44.6 31.926 44.6C31.9269 44.6 31.9277 44.6 31.9285 44.6C31.9293 44.6 31.9301 44.6 31.9309 44.6C31.9317 44.6 31.9325 44.6 31.9333 44.6C31.9341 44.6 31.9349 44.6 31.9357 44.6C31.9365 44.6 31.9373 44.6 31.9381 44.6C31.9389 44.6 31.9397 44.6 31.9405 44.6C31.9413 44.6 31.9422 44.6 31.943 44.6C31.9438 44.6 31.9446 44.6 31.9454 44.6C31.9462 44.6 31.947 44.6 31.9478 44.6C31.9486 44.6 31.9494 44.6 31.9502 44.6C31.951 44.6 31.9518 44.6 31.9527 44.6C31.9535 44.6 31.9543 44.6 31.9551 44.6C31.9559 44.6 31.9567 44.6 31.9575 44.6C31.9583 44.6 31.9591 44.6 31.9599 44.6C31.9607 44.6 31.9616 44.6 31.9624 44.6C31.9632 44.6 31.964 44.6 31.9648 44.6C31.9656 44.6 31.9664 44.6 31.9672 44.6C31.968 44.6 31.9689 44.6 31.9697 44.6C31.9705 44.6 31.9713 44.6 31.9721 44.6C31.9729 44.6 31.9737 44.6 31.9745 44.6C31.9754 44.6 31.9762 44.6 31.977 44.6C31.9778 44.6 31.9786 44.6 31.9794 44.6C31.9802 44.6 31.981 44.6 31.9819 44.6C31.9827 44.6 31.9835 44.6 31.9843 44.6C31.9851 44.6 31.9859 44.6 31.9867 44.6C31.9876 44.6 31.9884 44.6 31.9892 44.6C31.99 44.6 31.9908 44.6 31.9916 44.6C31.9924 44.6 31.9933 44.6 31.9941 44.6C31.9949 44.6 31.9957 44.6 31.9965 44.6C31.9973 44.6 31.9982 44.6 31.999 44.6C31.9998 44.6 32.0006 44.6 32.0014 44.6C32.0022 44.6 32.003 44.6 32.0039 44.6C32.0047 44.6 32.0055 44.6 32.0063 44.6C32.0071 44.6 32.008 44.6 32.0088 44.6C32.0096 44.6 32.0104 44.6 32.0112 44.6C32.012 44.6 32.0129 44.6 32.0137 44.6C32.0145 44.6 32.0153 44.6 32.0161 44.6C32.017 44.6 32.0178 44.6 32.0186 44.6C32.0194 44.6 32.0202 44.6 32.0211 44.6C32.0219 44.6 32.0227 44.6 32.0235 44.6C32.0243 44.6 32.0252 44.6 32.026 44.6C32.0268 44.6 32.0276 44.6 32.0284 44.6C32.0293 44.6 32.0301 44.6 32.0309 44.6C32.0317 44.6 32.0325 44.6 32.0334 44.6C32.0342 44.6 32.035 44.6 32.0358 44.6C32.0367 44.6 32.0375 44.6 32.0383 44.6C32.0391 44.6 32.04 44.6 32.0408 44.6C32.0416 44.6 32.0424 44.6 32.0432 44.6C32.0441 44.6 32.0449 44.6 32.0457 44.6C32.0465 44.6 32.0474 44.6 32.0482 44.6C32.049 44.6 32.0498 44.6 32.0507 44.6C32.0515 44.6 32.0523 44.6 32.0531 44.6C32.054 44.6 32.0548 44.6 32.0556 44.6C32.0564 44.6 32.0573 44.6 32.0581 44.6C32.0589 44.6 32.0597 44.6 32.0606 44.6C32.0614 44.6 32.0622 44.6 32.0631 44.6C32.0639 44.6 32.0647 44.6 32.0655 44.6C32.0664 44.6 32.0672 44.6 32.068 44.6C32.0688 44.6 32.0697 44.6 32.0705 44.6C32.0713 44.6 32.0722 44.6 32.073 44.6C32.0738 44.6 32.0746 44.6 32.0755 44.6C32.0763 44.6 32.0771 44.6 32.078 44.6C32.0788 44.6 32.0796 44.6 32.0804 44.6C32.0813 44.6 32.0821 44.6 32.0829 44.6C32.0838 44.6 32.0846 44.6 32.0854 44.6C32.0863 44.6 32.0871 44.6 32.0879 44.6C32.0888 44.6 32.0896 44.6 32.0904 44.6C32.0912 44.6 32.0921 44.6 32.0929 44.6C32.0937 44.6 32.0946 44.6 32.0954 44.6C32.0962 44.6 32.0971 44.6 32.0979 44.6C32.0987 44.6 32.0996 44.6 32.1004 44.6C32.1012 44.6 32.1021 44.6 32.1029 44.6C32.1037 44.6 32.1046 44.6 32.1054 44.6C32.1062 44.6 32.1071 44.6 32.1079 44.6C32.1087 44.6 32.1096 44.6 32.1104 44.6C32.1112 44.6 32.1121 44.6 32.1129 44.6C32.1137 44.6 32.1146 44.6 32.1154 44.6C32.1163 44.6 32.1171 44.6 32.1179 44.6C32.1188 44.6 32.1196 44.6 32.1204 44.6C32.1213 44.6 32.1221 44.6 32.1229 44.6C32.1238 44.6 32.1246 44.6 32.1255 44.6C32.1263 44.6 32.1271 44.6 32.128 44.6C32.1288 44.6 32.1296 44.6 32.1305 44.6C32.1313 44.6 32.1322 44.6 32.133 44.6C32.1338 44.6 32.1347 44.6 32.1355 44.6C32.1363 44.6 32.1372 44.6 32.138 44.6C32.1389 44.6 32.1397 44.6 32.1405 44.6C32.1414 44.6 32.1422 44.6 32.1431 44.6C32.1439 44.6 32.1447 44.6 32.1456 44.6C32.1464 44.6 32.1473 44.6 32.1481 44.6C32.1489 44.6 32.1498 44.6 32.1506 44.6C32.1515 44.6 32.1523 44.6 32.1531 44.6C32.154 44.6 32.1548 44.6 32.1557 44.6C32.1565 44.6 32.1574 44.6 32.1582 44.6C32.159 44.6 32.1599 44.6 32.1607 44.6C32.1616 44.6 32.1624 44.6 32.1633 44.6C32.1641 44.6 32.1649 44.6 32.1658 44.6C32.1666 44.6 32.1675 44.6 32.1683 44.6C32.1692 44.6 32.17 44.6 32.1709 44.6C32.1717 44.6 32.1725 44.6 32.1734 44.6C32.1742 44.6 32.1751 44.6 32.1759 44.6C32.1768 44.6 32.1776 44.6 32.1785 44.6C32.1793 44.6 32.1801 44.6 32.181 44.6C32.1818 44.6 32.1827 44.6 32.1835 44.6C32.1844 44.6 32.1852 44.6 32.1861 44.6C32.1869 44.6 32.1878 44.6 32.1886 44.6C32.1895 44.6 32.1903 44.6 32.1912 44.6C32.192 44.6 32.1929 44.6 32.1937 44.6C32.1945 44.6 32.1954 44.6 32.1962 44.6C32.1971 44.6 32.1979 44.6 32.1988 44.6C32.1996 44.6 32.2005 44.6 32.2013 44.6C32.2022 44.6 32.203 44.6 32.2039 44.6C32.2047 44.6 32.2056 44.6 32.2064 44.6C32.2073 44.6 32.2081 44.6 32.209 44.6C32.2098 44.6 32.2107 44.6 32.2115 44.6C32.2124 44.6 32.2132 44.6 32.2141 44.6C32.2149 44.6 32.2158 44.6 32.2166 44.6C32.2175 44.6 32.2184 44.6 32.2192 44.6C32.2201 44.6 32.2209 44.6 32.2218 44.6C32.2226 44.6 32.2235 44.6 32.2243 44.6C32.2252 44.6 32.226 44.6 32.2269 44.6C32.2277 44.6 32.2286 44.6 32.2294 44.6C32.2303 44.6 32.2311 44.6 32.232 44.6C32.2329 44.6 32.2337 44.6 32.2346 44.6C32.2354 44.6 32.2363 44.6 32.2371 44.6C32.238 44.6 32.2388 44.6 32.2397 44.6C32.2405 44.6 32.2414 44.6 32.2423 44.6C32.2431 44.6 32.244 44.6 32.2448 44.6C32.2457 44.6 32.2465 44.6 32.2474 44.6C32.2483 44.6 32.2491 44.6 32.25 44.6C32.2508 44.6 32.2517 44.6 32.2525 44.6C32.2534 44.6 32.2543 44.6 32.2551 44.6C32.256 44.6 32.2568 44.6 32.2577 44.6C32.2585 44.6 32.2594 44.6 32.2603 44.6C32.2611 44.6 32.262 44.6 32.2628 44.6C32.2637 44.6 32.2646 44.6 32.2654 44.6C32.2663 44.6 32.2671 44.6 32.268 44.6C32.2689 44.6 32.2697 44.6 32.2706 44.6C32.2714 44.6 32.2723 44.6 32.2732 44.6C32.274 44.6 32.2749 44.6 32.2757 44.6C32.2766 44.6 32.2775 44.6 32.2783 44.6C32.2792 44.6 32.28 44.6 32.2809 44.6C32.2818 44.6 32.2826 44.6 32.2835 44.6C32.2844 44.6 32.2852 44.6 32.2861 44.6C32.2869 44.6 32.2878 44.6 32.2887 44.6C32.2895 44.6 32.2904 44.6 32.2913 44.6C32.2921 44.6 32.293 44.6 32.2939 44.6C32.2947 44.6 32.2956 44.6 32.2964 44.6C32.2973 44.6 32.2982 44.6 32.299 44.6C32.2999 44.6 32.3008 44.6 32.3016 44.6C32.3025 44.6 32.3034 44.6 32.3042 44.6C32.3051 44.6 32.306 44.6 32.3068 44.6C32.3077 44.6 32.3086 44.6 32.3094 44.6C32.3103 44.6 32.3112 44.6 32.312 44.6C32.3129 44.6 32.3138 44.6 32.3146 44.6C32.3155 44.6 32.3164 44.6 32.3172 44.6C32.3181 44.6 32.319 44.6 32.3198 44.6C32.3207 44.6 32.3216 44.6 32.3224 44.6C32.3233 44.6 32.3242 44.6 32.325 44.6C32.3259 44.6 32.3268 44.6 32.3276 44.6C32.3285 44.6 32.3294 44.6 32.3303 44.6C32.3311 44.6 32.332 44.6 32.3329 44.6C32.3337 44.6 32.3346 44.6 32.3355 44.6C32.3363 44.6 32.3372 44.6 32.3381 44.6C32.339 44.6 32.3398 44.6 32.3407 44.6C32.3416 44.6 32.3424 44.6 32.3433 44.6C32.3442 44.6 32.3451 44.6 32.3459 44.6C32.3468 44.6 32.3477 44.6 32.3485 44.6C32.3494 44.6 32.3503 44.6 32.3512 44.6C32.352 44.6 32.3529 44.6 32.3538 44.6C32.3547 44.6 32.3555 44.6 32.3564 44.6C32.3573 44.6 32.3582 44.6 32.359 44.6C32.3599 44.6 32.3608 44.6 32.3617 44.6C32.3625 44.6 32.3634 44.6 32.3643 44.6C32.3652 44.6 32.366 44.6 32.3669 44.6C32.3678 44.6 32.3687 44.6 32.3695 44.6C32.3704 44.6 32.3713 44.6 32.3722 44.6C32.373 44.6 32.3739 44.6 32.3748 44.6C32.3757 44.6 32.3765 44.6 32.3774 44.6C32.3783 44.6 32.3792 44.6 32.38 44.6C32.3809 44.6 32.3818 44.6 32.3827 44.6C32.3836 44.6 32.3844 44.6 32.3853 44.6C32.3862 44.6 32.3871 44.6 32.3879 44.6C32.3888 44.6 32.3897 44.6 32.3906 44.6C32.3915 44.6 32.3923 44.6 32.3932 44.6C32.3941 44.6 32.395 44.6 32.3959 44.6C32.3967 44.6 32.3976 44.6 32.3985 44.6C32.3994 44.6 32.4003 44.6 32.4011 44.6C32.402 44.6 32.4029 44.6 32.4038 44.6C32.4047 44.6 32.4055 44.6 32.4064 44.6C32.4073 44.6 32.4082 44.6 32.4091 44.6C32.41 44.6 32.4108 44.6 32.4117 44.6C32.4126 44.6 32.4135 44.6 32.4144 44.6C32.4152 44.6 32.4161 44.6 32.417 44.6C32.4179 44.6 32.4188 44.6 32.4197 44.6C32.4205 44.6 32.4214 44.6 32.4223 44.6C32.4232 44.6 32.4241 44.6 32.425 44.6C32.4259 44.6 32.4267 44.6 32.4276 44.6C32.4285 44.6 32.4294 44.6 32.4303 44.6C32.4312 44.6 32.432 44.6 32.4329 44.6C32.4338 44.6 32.4347 44.6 32.4356 44.6C32.4365 44.6 32.4374 44.6 32.4382 44.6C32.4391 44.6 32.44 44.6 32.4409 44.6C32.4418 44.6 32.4427 44.6 32.4436 44.6C32.4445 44.6 32.4453 44.6 32.4462 44.6C32.4471 44.6 32.448 44.6 32.4489 44.6C32.4498 44.6 32.4507 44.6 32.4516 44.6C32.4524 44.6 32.4533 44.6 32.4542 44.6C32.4551 44.6 32.456 44.6 32.4569 44.6C32.4578 44.6 32.4587 44.6 32.4596 44.6C32.4604 44.6 32.4613 44.6 32.4622 44.6C32.4631 44.6 32.464 44.6 32.4649 44.6C32.4658 44.6 32.4667 44.6 32.4676 44.6C32.4685 44.6 32.4694 44.6 32.4702 44.6C32.4711 44.6 32.472 44.6 32.4729 44.6C32.4738 44.6 32.4747 44.6 32.4756 44.6C32.4765 44.6 32.4774 44.6 32.4783 44.6C32.4792 44.6 32.4801 44.6 32.4809 44.6C32.4818 44.6 32.4827 44.6 32.4836 44.6C32.4845 44.6 32.4854 44.6 32.4863 44.6C32.4872 44.6 32.4881 44.6 32.489 44.6C32.4899 44.6 32.4908 44.6 32.4917 44.6C32.4926 44.6 32.4935 44.6 32.4944 44.6C32.4952 44.6 32.4961 44.6 32.497 44.6C32.4979 44.6 32.4988 44.6 32.4997 44.6C32.5006 44.6 32.5015 44.6 32.5024 44.6C32.5033 44.6 32.5042 44.6 32.5051 44.6C32.506 44.6 32.5069 44.6 32.5078 44.6C32.5087 44.6 32.5096 44.6 32.5105 44.6C32.5114 44.6 32.5123 44.6 32.5132 44.6C32.5141 44.6 32.515 44.6 32.5159 44.6C32.5168 44.6 32.5177 44.6 32.5186 44.6C32.5195 44.6 32.5204 44.6 32.5213 44.6C32.5222 44.6 32.5231 44.6 32.524 44.6C32.5249 44.6 32.5258 44.6 32.5267 44.6C32.5276 44.6 32.5285 44.6 32.5294 44.6C32.5303 44.6 32.5312 44.6 32.5321 44.6C32.533 44.6 32.5339 44.6 32.5348 44.6C32.5357 44.6 32.5366 44.6 32.5375 44.6C32.5384 44.6 32.5393 44.6 32.5402 44.6C32.5411 44.6 32.542 44.6 32.5429 44.6C32.5438 44.6 32.5447 44.6 32.5456 44.6C32.5465 44.6 32.5474 44.6 32.5483 44.6C32.5492 44.6 32.5501 44.6 32.551 44.6C32.5519 44.6 32.5528 44.6 32.5537 44.6C32.5546 44.6 32.5555 44.6 32.5564 44.6C32.5573 44.6 32.5582 44.6 32.5591 44.6C32.56 44.6 32.5609 44.6 32.5618 44.6C32.5628 44.6 32.5637 44.6 32.5646 44.6C32.5655 44.6 32.5664 44.6 32.5673 44.6C32.5682 44.6 32.5691 44.6 32.57 44.6C32.5709 44.6 32.5718 44.6 32.5727 44.6C32.5736 44.6 32.5745 44.6 32.5754 44.6C32.5763 44.6 32.5773 44.6 32.5782 44.6C32.5791 44.6 32.58 44.6 32.5809 44.6C32.5818 44.6 32.5827 44.6 32.5836 44.6C32.5845 44.6 32.5854 44.6 32.5863 44.6C32.5872 44.6 32.5882 44.6 32.5891 44.6C32.59 44.6 32.5909 44.6 32.5918 44.6C32.5927 44.6 32.5936 44.6 32.5945 44.6C32.5954 44.6 32.5963 44.6 32.5972 44.6C32.5982 44.6 32.5991 44.6 32.6 44.6C32.6009 44.6 32.6018 44.6 32.6027 44.6C32.6036 44.6 32.6045 44.6 32.6054 44.6C32.6064 44.6 32.6073 44.6 32.6082 44.6C32.6091 44.6 32.61 44.6 32.6109 44.6C32.6118 44.6 32.6127 44.6 32.6137 44.6C32.6146 44.6 32.6155 44.6 32.6164 44.6C32.6173 44.6 32.6182 44.6 32.6191 44.6C32.62 44.6 32.621 44.6 32.6219 44.6C32.6228 44.6 32.6237 44.6 32.6246 44.6C32.6255 44.6 32.6264 44.6 32.6274 44.6C32.6283 44.6 32.6292 44.6 32.6301 44.6C32.631 44.6 32.6319 44.6 32.6329 44.6C32.6338 44.6 32.6347 44.6 32.6356 44.6C32.6365 44.6 32.6374 44.6 32.6384 44.6C32.6393 44.6 32.6402 44.6 32.6411 44.6C32.642 44.6 32.6429 44.6 32.6439 44.6C32.6448 44.6 32.6457 44.6 32.6466 44.6C32.6475 44.6 32.6484 44.6 32.6494 44.6C32.6503 44.6 32.6512 44.6 32.6521 44.6C32.653 44.6 32.6539 44.6 32.6549 44.6C32.6558 44.6 32.6567 44.6 32.6576 44.6C32.6585 44.6 32.6595 44.6 32.6604 44.6C32.6613 44.6 32.6622 44.6 32.6631 44.6C32.6641 44.6 32.665 44.6 32.6659 44.6C32.6668 44.6 32.6677 44.6 32.6687 44.6C32.6696 44.6 32.6705 44.6 32.6714 44.6C32.6724 44.6 32.6733 44.6 32.6742 44.6C32.6751 44.6 32.676 44.6 32.677 44.6C32.6779 44.6 32.6788 44.6 32.6797 44.6C32.6806 44.6 32.6816 44.6 32.6825 44.6C32.6834 44.6 32.6843 44.6 32.6853 44.6C32.6862 44.6 32.6871 44.6 32.688 44.6C32.689 44.6 32.6899 44.6 32.6908 44.6C32.6917 44.6 32.6927 44.6 32.6936 44.6C32.6945 44.6 32.6954 44.6 32.6964 44.6C32.6973 44.6 32.6982 44.6 32.6991 44.6C32.7001 44.6 32.701 44.6 32.7019 44.6C32.7028 44.6 32.7038 44.6 32.7047 44.6C32.7056 44.6 32.7065 44.6 32.7075 44.6C32.7084 44.6 32.7093 44.6 32.7102 44.6C32.7112 44.6 32.7121 44.6 32.713 44.6C32.714 44.6 32.7149 44.6 32.7158 44.6C32.7167 44.6 32.7177 44.6 32.7186 44.6C32.7195 44.6 32.7204 44.6 32.7214 44.6C32.7223 44.6 32.7232 44.6 32.7242 44.6C32.7251 44.6 32.726 44.6 32.727 44.6C32.7279 44.6 32.7288 44.6 32.7297 44.6C32.7307 44.6 32.7316 44.6 32.7325 44.6C32.7335 44.6 32.7344 44.6 32.7353 44.6C32.7363 44.6 32.7372 44.6 32.7381 44.6C32.739 44.6 32.74 44.6 32.7409 44.6C32.7418 44.6 32.7428 44.6 32.7437 44.6C32.7446 44.6 32.7456 44.6 32.7465 44.6C32.7474 44.6 32.7484 44.6 32.7493 44.6C32.7502 44.6 32.7512 44.6 32.7521 44.6C32.753 44.6 32.754 44.6 32.7549 44.6C32.7558 44.6 32.7568 44.6 32.7577 44.6C32.7586 44.6 32.7596 44.6 32.7605 44.6C32.7614 44.6 32.7624 44.6 32.7633 44.6C32.7642 44.6 32.7652 44.6 32.7661 44.6C32.767 44.6 32.768 44.6 32.7689 44.6C32.7698 44.6 32.7708 44.6 32.7717 44.6C32.7727 44.6 32.7736 44.6 32.7745 44.6C32.7755 44.6 32.7764 44.6 32.7773 44.6C32.7783 44.6 32.7792 44.6 32.7802 44.6C32.7811 44.6 32.782 44.6 32.783 44.6C32.7839 44.6 32.7848 44.6 32.7858 44.6C32.7867 44.6 32.7877 44.6 32.7886 44.6C32.7895 44.6 32.7905 44.6 32.7914 44.6C32.7923 44.6 32.7933 44.6 32.7942 44.6C32.7952 44.6 32.7961 44.6 32.797 44.6C32.798 44.6 32.7989 44.6 32.7999 44.6C32.8008 44.6 32.8017 44.6 32.8027 44.6C32.8036 44.6 32.8046 44.6 32.8055 44.6C32.8064 44.6 32.8074 44.6 32.8083 44.6C32.8093 44.6 32.8102 44.6 32.8112 44.6C32.8121 44.6 32.813 44.6 32.814 44.6C32.8149 44.6 32.8159 44.6 32.8168 44.6C32.8177 44.6 32.8187 44.6 32.8196 44.6C32.8206 44.6 32.8215 44.6 32.8225 44.6C32.8234 44.6 32.8243 44.6 32.8253 44.6C32.8262 44.6 32.8272 44.6 32.8281 44.6C32.8291 44.6 32.83 44.6 32.831 44.6C32.8319 44.6 32.8328 44.6 32.8338 44.6C32.8347 44.6 32.8357 44.6 32.8366 44.6C32.8376 44.6 32.8385 44.6 32.8395 44.6C32.8404 44.6 32.8414 44.6 32.8423 44.6C32.8432 44.6 32.8442 44.6 32.8451 44.6C32.8461 44.6 32.847 44.6 32.848 44.6C32.8489 44.6 32.8499 44.6 32.8508 44.6C32.8518 44.6 32.8527 44.6 32.8537 44.6C32.8546 44.6 32.8556 44.6 32.8565 44.6C32.8575 44.6 32.8584 44.6 32.8594 44.6C32.8603 44.6 32.8612 44.6 32.8622 44.6C32.8631 44.6 32.8641 44.6 32.865 44.6C32.866 44.6 32.8669 44.6 32.8679 44.6C32.8688 44.6 32.8698 44.6 32.8707 44.6C32.8717 44.6 32.8726 44.6 32.8736 44.6C32.8745 44.6 32.8755 44.6 32.8764 44.6C32.8774 44.6 32.8784 44.6 32.8793 44.6C32.8803 44.6 32.8812 44.6 32.8822 44.6C32.8831 44.6 32.8841 44.6 32.885 44.6C32.886 44.6 32.8869 44.6 32.8879 44.6C32.8888 44.6 32.8898 44.6 32.8907 44.6C32.8917 44.6 32.8926 44.6 32.8936 44.6C32.8945 44.6 32.8955 44.6 32.8964 44.6C32.8974 44.6 32.8984 44.6 32.8993 44.6C32.9003 44.6 32.9012 44.6 32.9022 44.6C32.9031 44.6 32.9041 44.6 32.905 44.6C32.906 44.6 32.9069 44.6 32.9079 44.6C32.9089 44.6 32.9098 44.6 32.9108 44.6C32.9117 44.6 32.9127 44.6 32.9136 44.6C32.9146 44.6 32.9156 44.6 32.9165 44.6C32.9175 44.6 32.9184 44.6 32.9194 44.6C32.9203 44.6 32.9213 44.6 32.9223 44.6C32.9232 44.6 32.9242 44.6 32.9251 44.6C32.9261 44.6 32.927 44.6 32.928 44.6V42.6C32.927 42.6 32.9261 42.6 32.9251 42.6C32.9242 42.6 32.9232 42.6 32.9223 42.6C32.9213 42.6 32.9203 42.6 32.9194 42.6C32.9184 42.6 32.9175 42.6 32.9165 42.6C32.9156 42.6 32.9146 42.6 32.9136 42.6C32.9127 42.6 32.9117 42.6 32.9108 42.6C32.9098 42.6 32.9089 42.6 32.9079 42.6C32.9069 42.6 32.906 42.6 32.905 42.6C32.9041 42.6 32.9031 42.6 32.9022 42.6C32.9012 42.6 32.9003 42.6 32.8993 42.6C32.8984 42.6 32.8974 42.6 32.8964 42.6C32.8955 42.6 32.8945 42.6 32.8936 42.6C32.8926 42.6 32.8917 42.6 32.8907 42.6C32.8898 42.6 32.8888 42.6 32.8879 42.6C32.8869 42.6 32.886 42.6 32.885 42.6C32.8841 42.6 32.8831 42.6 32.8822 42.6C32.8812 42.6 32.8803 42.6 32.8793 42.6C32.8784 42.6 32.8774 42.6 32.8764 42.6C32.8755 42.6 32.8745 42.6 32.8736 42.6C32.8726 42.6 32.8717 42.6 32.8707 42.6C32.8698 42.6 32.8688 42.6 32.8679 42.6C32.8669 42.6 32.866 42.6 32.865 42.6C32.8641 42.6 32.8631 42.6 32.8622 42.6C32.8612 42.6 32.8603 42.6 32.8594 42.6C32.8584 42.6 32.8575 42.6 32.8565 42.6C32.8556 42.6 32.8546 42.6 32.8537 42.6C32.8527 42.6 32.8518 42.6 32.8508 42.6C32.8499 42.6 32.8489 42.6 32.848 42.6C32.847 42.6 32.8461 42.6 32.8451 42.6C32.8442 42.6 32.8432 42.6 32.8423 42.6C32.8414 42.6 32.8404 42.6 32.8395 42.6C32.8385 42.6 32.8376 42.6 32.8366 42.6C32.8357 42.6 32.8347 42.6 32.8338 42.6C32.8328 42.6 32.8319 42.6 32.831 42.6C32.83 42.6 32.8291 42.6 32.8281 42.6C32.8272 42.6 32.8262 42.6 32.8253 42.6C32.8243 42.6 32.8234 42.6 32.8225 42.6C32.8215 42.6 32.8206 42.6 32.8196 42.6C32.8187 42.6 32.8177 42.6 32.8168 42.6C32.8159 42.6 32.8149 42.6 32.814 42.6C32.813 42.6 32.8121 42.6 32.8112 42.6C32.8102 42.6 32.8093 42.6 32.8083 42.6C32.8074 42.6 32.8064 42.6 32.8055 42.6C32.8046 42.6 32.8036 42.6 32.8027 42.6C32.8017 42.6 32.8008 42.6 32.7999 42.6C32.7989 42.6 32.798 42.6 32.797 42.6C32.7961 42.6 32.7952 42.6 32.7942 42.6C32.7933 42.6 32.7923 42.6 32.7914 42.6C32.7905 42.6 32.7895 42.6 32.7886 42.6C32.7877 42.6 32.7867 42.6 32.7858 42.6C32.7848 42.6 32.7839 42.6 32.783 42.6C32.782 42.6 32.7811 42.6 32.7802 42.6C32.7792 42.6 32.7783 42.6 32.7773 42.6C32.7764 42.6 32.7755 42.6 32.7745 42.6C32.7736 42.6 32.7727 42.6 32.7717 42.6C32.7708 42.6 32.7698 42.6 32.7689 42.6C32.768 42.6 32.767 42.6 32.7661 42.6C32.7652 42.6 32.7642 42.6 32.7633 42.6C32.7624 42.6 32.7614 42.6 32.7605 42.6C32.7596 42.6 32.7586 42.6 32.7577 42.6C32.7568 42.6 32.7558 42.6 32.7549 42.6C32.754 42.6 32.753 42.6 32.7521 42.6C32.7512 42.6 32.7502 42.6 32.7493 42.6C32.7484 42.6 32.7474 42.6 32.7465 42.6C32.7456 42.6 32.7446 42.6 32.7437 42.6C32.7428 42.6 32.7418 42.6 32.7409 42.6C32.74 42.6 32.739 42.6 32.7381 42.6C32.7372 42.6 32.7363 42.6 32.7353 42.6C32.7344 42.6 32.7335 42.6 32.7325 42.6C32.7316 42.6 32.7307 42.6 32.7297 42.6C32.7288 42.6 32.7279 42.6 32.727 42.6C32.726 42.6 32.7251 42.6 32.7242 42.6C32.7232 42.6 32.7223 42.6 32.7214 42.6C32.7204 42.6 32.7195 42.6 32.7186 42.6C32.7177 42.6 32.7167 42.6 32.7158 42.6C32.7149 42.6 32.714 42.6 32.713 42.6C32.7121 42.6 32.7112 42.6 32.7102 42.6C32.7093 42.6 32.7084 42.6 32.7075 42.6C32.7065 42.6 32.7056 42.6 32.7047 42.6C32.7038 42.6 32.7028 42.6 32.7019 42.6C32.701 42.6 32.7001 42.6 32.6991 42.6C32.6982 42.6 32.6973 42.6 32.6964 42.6C32.6954 42.6 32.6945 42.6 32.6936 42.6C32.6927 42.6 32.6917 42.6 32.6908 42.6C32.6899 42.6 32.689 42.6 32.688 42.6C32.6871 42.6 32.6862 42.6 32.6853 42.6C32.6843 42.6 32.6834 42.6 32.6825 42.6C32.6816 42.6 32.6806 42.6 32.6797 42.6C32.6788 42.6 32.6779 42.6 32.677 42.6C32.676 42.6 32.6751 42.6 32.6742 42.6C32.6733 42.6 32.6724 42.6 32.6714 42.6C32.6705 42.6 32.6696 42.6 32.6687 42.6C32.6677 42.6 32.6668 42.6 32.6659 42.6C32.665 42.6 32.6641 42.6 32.6631 42.6C32.6622 42.6 32.6613 42.6 32.6604 42.6C32.6595 42.6 32.6585 42.6 32.6576 42.6C32.6567 42.6 32.6558 42.6 32.6549 42.6C32.6539 42.6 32.653 42.6 32.6521 42.6C32.6512 42.6 32.6503 42.6 32.6494 42.6C32.6484 42.6 32.6475 42.6 32.6466 42.6C32.6457 42.6 32.6448 42.6 32.6439 42.6C32.6429 42.6 32.642 42.6 32.6411 42.6C32.6402 42.6 32.6393 42.6 32.6384 42.6C32.6374 42.6 32.6365 42.6 32.6356 42.6C32.6347 42.6 32.6338 42.6 32.6329 42.6C32.6319 42.6 32.631 42.6 32.6301 42.6C32.6292 42.6 32.6283 42.6 32.6274 42.6C32.6264 42.6 32.6255 42.6 32.6246 42.6C32.6237 42.6 32.6228 42.6 32.6219 42.6C32.621 42.6 32.62 42.6 32.6191 42.6C32.6182 42.6 32.6173 42.6 32.6164 42.6C32.6155 42.6 32.6146 42.6 32.6137 42.6C32.6127 42.6 32.6118 42.6 32.6109 42.6C32.61 42.6 32.6091 42.6 32.6082 42.6C32.6073 42.6 32.6064 42.6 32.6054 42.6C32.6045 42.6 32.6036 42.6 32.6027 42.6C32.6018 42.6 32.6009 42.6 32.6 42.6C32.5991 42.6 32.5982 42.6 32.5972 42.6C32.5963 42.6 32.5954 42.6 32.5945 42.6C32.5936 42.6 32.5927 42.6 32.5918 42.6C32.5909 42.6 32.59 42.6 32.5891 42.6C32.5882 42.6 32.5872 42.6 32.5863 42.6C32.5854 42.6 32.5845 42.6 32.5836 42.6C32.5827 42.6 32.5818 42.6 32.5809 42.6C32.58 42.6 32.5791 42.6 32.5782 42.6C32.5773 42.6 32.5763 42.6 32.5754 42.6C32.5745 42.6 32.5736 42.6 32.5727 42.6C32.5718 42.6 32.5709 42.6 32.57 42.6C32.5691 42.6 32.5682 42.6 32.5673 42.6C32.5664 42.6 32.5655 42.6 32.5646 42.6C32.5637 42.6 32.5628 42.6 32.5618 42.6C32.5609 42.6 32.56 42.6 32.5591 42.6C32.5582 42.6 32.5573 42.6 32.5564 42.6C32.5555 42.6 32.5546 42.6 32.5537 42.6C32.5528 42.6 32.5519 42.6 32.551 42.6C32.5501 42.6 32.5492 42.6 32.5483 42.6C32.5474 42.6 32.5465 42.6 32.5456 42.6C32.5447 42.6 32.5438 42.6 32.5429 42.6C32.542 42.6 32.5411 42.6 32.5402 42.6C32.5393 42.6 32.5384 42.6 32.5375 42.6C32.5366 42.6 32.5357 42.6 32.5348 42.6C32.5339 42.6 32.533 42.6 32.5321 42.6C32.5312 42.6 32.5303 42.6 32.5294 42.6C32.5285 42.6 32.5276 42.6 32.5267 42.6C32.5258 42.6 32.5249 42.6 32.524 42.6C32.5231 42.6 32.5222 42.6 32.5213 42.6C32.5204 42.6 32.5195 42.6 32.5186 42.6C32.5177 42.6 32.5168 42.6 32.5159 42.6C32.515 42.6 32.5141 42.6 32.5132 42.6C32.5123 42.6 32.5114 42.6 32.5105 42.6C32.5096 42.6 32.5087 42.6 32.5078 42.6C32.5069 42.6 32.506 42.6 32.5051 42.6C32.5042 42.6 32.5033 42.6 32.5024 42.6C32.5015 42.6 32.5006 42.6 32.4997 42.6C32.4988 42.6 32.4979 42.6 32.497 42.6C32.4961 42.6 32.4952 42.6 32.4944 42.6C32.4935 42.6 32.4926 42.6 32.4917 42.6C32.4908 42.6 32.4899 42.6 32.489 42.6C32.4881 42.6 32.4872 42.6 32.4863 42.6C32.4854 42.6 32.4845 42.6 32.4836 42.6C32.4827 42.6 32.4818 42.6 32.4809 42.6C32.4801 42.6 32.4792 42.6 32.4783 42.6C32.4774 42.6 32.4765 42.6 32.4756 42.6C32.4747 42.6 32.4738 42.6 32.4729 42.6C32.472 42.6 32.4711 42.6 32.4702 42.6C32.4694 42.6 32.4685 42.6 32.4676 42.6C32.4667 42.6 32.4658 42.6 32.4649 42.6C32.464 42.6 32.4631 42.6 32.4622 42.6C32.4613 42.6 32.4604 42.6 32.4596 42.6C32.4587 42.6 32.4578 42.6 32.4569 42.6C32.456 42.6 32.4551 42.6 32.4542 42.6C32.4533 42.6 32.4524 42.6 32.4516 42.6C32.4507 42.6 32.4498 42.6 32.4489 42.6C32.448 42.6 32.4471 42.6 32.4462 42.6C32.4453 42.6 32.4445 42.6 32.4436 42.6C32.4427 42.6 32.4418 42.6 32.4409 42.6C32.44 42.6 32.4391 42.6 32.4382 42.6C32.4374 42.6 32.4365 42.6 32.4356 42.6C32.4347 42.6 32.4338 42.6 32.4329 42.6C32.432 42.6 32.4312 42.6 32.4303 42.6C32.4294 42.6 32.4285 42.6 32.4276 42.6C32.4267 42.6 32.4259 42.6 32.425 42.6C32.4241 42.6 32.4232 42.6 32.4223 42.6C32.4214 42.6 32.4205 42.6 32.4197 42.6C32.4188 42.6 32.4179 42.6 32.417 42.6C32.4161 42.6 32.4152 42.6 32.4144 42.6C32.4135 42.6 32.4126 42.6 32.4117 42.6C32.4108 42.6 32.41 42.6 32.4091 42.6C32.4082 42.6 32.4073 42.6 32.4064 42.6C32.4055 42.6 32.4047 42.6 32.4038 42.6C32.4029 42.6 32.402 42.6 32.4011 42.6C32.4003 42.6 32.3994 42.6 32.3985 42.6C32.3976 42.6 32.3967 42.6 32.3959 42.6C32.395 42.6 32.3941 42.6 32.3932 42.6C32.3923 42.6 32.3915 42.6 32.3906 42.6C32.3897 42.6 32.3888 42.6 32.3879 42.6C32.3871 42.6 32.3862 42.6 32.3853 42.6C32.3844 42.6 32.3836 42.6 32.3827 42.6C32.3818 42.6 32.3809 42.6 32.38 42.6C32.3792 42.6 32.3783 42.6 32.3774 42.6C32.3765 42.6 32.3757 42.6 32.3748 42.6C32.3739 42.6 32.373 42.6 32.3722 42.6C32.3713 42.6 32.3704 42.6 32.3695 42.6C32.3687 42.6 32.3678 42.6 32.3669 42.6C32.366 42.6 32.3652 42.6 32.3643 42.6C32.3634 42.6 32.3625 42.6 32.3617 42.6C32.3608 42.6 32.3599 42.6 32.359 42.6C32.3582 42.6 32.3573 42.6 32.3564 42.6C32.3555 42.6 32.3547 42.6 32.3538 42.6C32.3529 42.6 32.352 42.6 32.3512 42.6C32.3503 42.6 32.3494 42.6 32.3485 42.6C32.3477 42.6 32.3468 42.6 32.3459 42.6C32.3451 42.6 32.3442 42.6 32.3433 42.6C32.3424 42.6 32.3416 42.6 32.3407 42.6C32.3398 42.6 32.339 42.6 32.3381 42.6C32.3372 42.6 32.3363 42.6 32.3355 42.6C32.3346 42.6 32.3337 42.6 32.3329 42.6C32.332 42.6 32.3311 42.6 32.3303 42.6C32.3294 42.6 32.3285 42.6 32.3276 42.6C32.3268 42.6 32.3259 42.6 32.325 42.6C32.3242 42.6 32.3233 42.6 32.3224 42.6C32.3216 42.6 32.3207 42.6 32.3198 42.6C32.319 42.6 32.3181 42.6 32.3172 42.6C32.3164 42.6 32.3155 42.6 32.3146 42.6C32.3138 42.6 32.3129 42.6 32.312 42.6C32.3112 42.6 32.3103 42.6 32.3094 42.6C32.3086 42.6 32.3077 42.6 32.3068 42.6C32.306 42.6 32.3051 42.6 32.3042 42.6C32.3034 42.6 32.3025 42.6 32.3016 42.6C32.3008 42.6 32.2999 42.6 32.299 42.6C32.2982 42.6 32.2973 42.6 32.2964 42.6C32.2956 42.6 32.2947 42.6 32.2939 42.6C32.293 42.6 32.2921 42.6 32.2913 42.6C32.2904 42.6 32.2895 42.6 32.2887 42.6C32.2878 42.6 32.2869 42.6 32.2861 42.6C32.2852 42.6 32.2844 42.6 32.2835 42.6C32.2826 42.6 32.2818 42.6 32.2809 42.6C32.28 42.6 32.2792 42.6 32.2783 42.6C32.2775 42.6 32.2766 42.6 32.2757 42.6C32.2749 42.6 32.274 42.6 32.2732 42.6C32.2723 42.6 32.2714 42.6 32.2706 42.6C32.2697 42.6 32.2689 42.6 32.268 42.6C32.2671 42.6 32.2663 42.6 32.2654 42.6C32.2646 42.6 32.2637 42.6 32.2628 42.6C32.262 42.6 32.2611 42.6 32.2603 42.6C32.2594 42.6 32.2585 42.6 32.2577 42.6C32.2568 42.6 32.256 42.6 32.2551 42.6C32.2543 42.6 32.2534 42.6 32.2525 42.6C32.2517 42.6 32.2508 42.6 32.25 42.6C32.2491 42.6 32.2483 42.6 32.2474 42.6C32.2465 42.6 32.2457 42.6 32.2448 42.6C32.244 42.6 32.2431 42.6 32.2423 42.6C32.2414 42.6 32.2405 42.6 32.2397 42.6C32.2388 42.6 32.238 42.6 32.2371 42.6C32.2363 42.6 32.2354 42.6 32.2346 42.6C32.2337 42.6 32.2329 42.6 32.232 42.6C32.2311 42.6 32.2303 42.6 32.2294 42.6C32.2286 42.6 32.2277 42.6 32.2269 42.6C32.226 42.6 32.2252 42.6 32.2243 42.6C32.2235 42.6 32.2226 42.6 32.2218 42.6C32.2209 42.6 32.2201 42.6 32.2192 42.6C32.2184 42.6 32.2175 42.6 32.2166 42.6C32.2158 42.6 32.2149 42.6 32.2141 42.6C32.2132 42.6 32.2124 42.6 32.2115 42.6C32.2107 42.6 32.2098 42.6 32.209 42.6C32.2081 42.6 32.2073 42.6 32.2064 42.6C32.2056 42.6 32.2047 42.6 32.2039 42.6C32.203 42.6 32.2022 42.6 32.2013 42.6C32.2005 42.6 32.1996 42.6 32.1988 42.6C32.1979 42.6 32.1971 42.6 32.1962 42.6C32.1954 42.6 32.1945 42.6 32.1937 42.6C32.1929 42.6 32.192 42.6 32.1912 42.6C32.1903 42.6 32.1895 42.6 32.1886 42.6C32.1878 42.6 32.1869 42.6 32.1861 42.6C32.1852 42.6 32.1844 42.6 32.1835 42.6C32.1827 42.6 32.1818 42.6 32.181 42.6C32.1801 42.6 32.1793 42.6 32.1785 42.6C32.1776 42.6 32.1768 42.6 32.1759 42.6C32.1751 42.6 32.1742 42.6 32.1734 42.6C32.1725 42.6 32.1717 42.6 32.1709 42.6C32.17 42.6 32.1692 42.6 32.1683 42.6C32.1675 42.6 32.1666 42.6 32.1658 42.6C32.1649 42.6 32.1641 42.6 32.1633 42.6C32.1624 42.6 32.1616 42.6 32.1607 42.6C32.1599 42.6 32.159 42.6 32.1582 42.6C32.1574 42.6 32.1565 42.6 32.1557 42.6C32.1548 42.6 32.154 42.6 32.1531 42.6C32.1523 42.6 32.1515 42.6 32.1506 42.6C32.1498 42.6 32.1489 42.6 32.1481 42.6C32.1473 42.6 32.1464 42.6 32.1456 42.6C32.1447 42.6 32.1439 42.6 32.1431 42.6C32.1422 42.6 32.1414 42.6 32.1405 42.6C32.1397 42.6 32.1389 42.6 32.138 42.6C32.1372 42.6 32.1363 42.6 32.1355 42.6C32.1347 42.6 32.1338 42.6 32.133 42.6C32.1322 42.6 32.1313 42.6 32.1305 42.6C32.1296 42.6 32.1288 42.6 32.128 42.6C32.1271 42.6 32.1263 42.6 32.1255 42.6C32.1246 42.6 32.1238 42.6 32.1229 42.6C32.1221 42.6 32.1213 42.6 32.1204 42.6C32.1196 42.6 32.1188 42.6 32.1179 42.6C32.1171 42.6 32.1163 42.6 32.1154 42.6C32.1146 42.6 32.1137 42.6 32.1129 42.6C32.1121 42.6 32.1112 42.6 32.1104 42.6C32.1096 42.6 32.1087 42.6 32.1079 42.6C32.1071 42.6 32.1062 42.6 32.1054 42.6C32.1046 42.6 32.1037 42.6 32.1029 42.6C32.1021 42.6 32.1012 42.6 32.1004 42.6C32.0996 42.6 32.0987 42.6 32.0979 42.6C32.0971 42.6 32.0962 42.6 32.0954 42.6C32.0946 42.6 32.0937 42.6 32.0929 42.6C32.0921 42.6 32.0912 42.6 32.0904 42.6C32.0896 42.6 32.0888 42.6 32.0879 42.6C32.0871 42.6 32.0863 42.6 32.0854 42.6C32.0846 42.6 32.0838 42.6 32.0829 42.6C32.0821 42.6 32.0813 42.6 32.0804 42.6C32.0796 42.6 32.0788 42.6 32.078 42.6C32.0771 42.6 32.0763 42.6 32.0755 42.6C32.0746 42.6 32.0738 42.6 32.073 42.6C32.0722 42.6 32.0713 42.6 32.0705 42.6C32.0697 42.6 32.0688 42.6 32.068 42.6C32.0672 42.6 32.0664 42.6 32.0655 42.6C32.0647 42.6 32.0639 42.6 32.0631 42.6C32.0622 42.6 32.0614 42.6 32.0606 42.6C32.0597 42.6 32.0589 42.6 32.0581 42.6C32.0573 42.6 32.0564 42.6 32.0556 42.6C32.0548 42.6 32.054 42.6 32.0531 42.6C32.0523 42.6 32.0515 42.6 32.0507 42.6C32.0498 42.6 32.049 42.6 32.0482 42.6C32.0474 42.6 32.0465 42.6 32.0457 42.6C32.0449 42.6 32.0441 42.6 32.0432 42.6C32.0424 42.6 32.0416 42.6 32.0408 42.6C32.04 42.6 32.0391 42.6 32.0383 42.6C32.0375 42.6 32.0367 42.6 32.0358 42.6C32.035 42.6 32.0342 42.6 32.0334 42.6C32.0325 42.6 32.0317 42.6 32.0309 42.6C32.0301 42.6 32.0293 42.6 32.0284 42.6C32.0276 42.6 32.0268 42.6 32.026 42.6C32.0252 42.6 32.0243 42.6 32.0235 42.6C32.0227 42.6 32.0219 42.6 32.0211 42.6C32.0202 42.6 32.0194 42.6 32.0186 42.6C32.0178 42.6 32.017 42.6 32.0161 42.6C32.0153 42.6 32.0145 42.6 32.0137 42.6C32.0129 42.6 32.012 42.6 32.0112 42.6C32.0104 42.6 32.0096 42.6 32.0088 42.6C32.008 42.6 32.0071 42.6 32.0063 42.6C32.0055 42.6 32.0047 42.6 32.0039 42.6C32.003 42.6 32.0022 42.6 32.0014 42.6C32.0006 42.6 31.9998 42.6 31.999 42.6C31.9982 42.6 31.9973 42.6 31.9965 42.6C31.9957 42.6 31.9949 42.6 31.9941 42.6C31.9933 42.6 31.9924 42.6 31.9916 42.6C31.9908 42.6 31.99 42.6 31.9892 42.6C31.9884 42.6 31.9876 42.6 31.9867 42.6C31.9859 42.6 31.9851 42.6 31.9843 42.6C31.9835 42.6 31.9827 42.6 31.9819 42.6C31.981 42.6 31.9802 42.6 31.9794 42.6C31.9786 42.6 31.9778 42.6 31.977 42.6C31.9762 42.6 31.9754 42.6 31.9745 42.6C31.9737 42.6 31.9729 42.6 31.9721 42.6C31.9713 42.6 31.9705 42.6 31.9697 42.6C31.9689 42.6 31.968 42.6 31.9672 42.6C31.9664 42.6 31.9656 42.6 31.9648 42.6C31.964 42.6 31.9632 42.6 31.9624 42.6C31.9616 42.6 31.9607 42.6 31.9599 42.6C31.9591 42.6 31.9583 42.6 31.9575 42.6C31.9567 42.6 31.9559 42.6 31.9551 42.6C31.9543 42.6 31.9535 42.6 31.9527 42.6C31.9518 42.6 31.951 42.6 31.9502 42.6C31.9494 42.6 31.9486 42.6 31.9478 42.6C31.947 42.6 31.9462 42.6 31.9454 42.6C31.9446 42.6 31.9438 42.6 31.943 42.6C31.9422 42.6 31.9413 42.6 31.9405 42.6C31.9397 42.6 31.9389 42.6 31.9381 42.6C31.9373 42.6 31.9365 42.6 31.9357 42.6C31.9349 42.6 31.9341 42.6 31.9333 42.6C31.9325 42.6 31.9317 42.6 31.9309 42.6C31.9301 42.6 31.9293 42.6 31.9285 42.6C31.9277 42.6 31.9269 42.6 31.926 42.6C31.9252 42.6 31.9244 42.6 31.9236 42.6C31.9228 42.6 31.922 42.6 31.9212 42.6C31.9204 42.6 31.9196 42.6 31.9188 42.6C31.918 42.6 31.9172 42.6 31.9164 42.6C31.9156 42.6 31.9148 42.6 31.914 42.6C31.9132 42.6 31.9124 42.6 31.9116 42.6C31.9108 42.6 31.91 42.6 31.9092 42.6C31.9084 42.6 31.9076 42.6 31.9068 42.6C31.906 42.6 31.9052 42.6 31.9044 42.6C31.9036 42.6 31.9028 42.6 31.902 42.6C31.9012 42.6 31.9004 42.6 31.8996 42.6C31.8988 42.6 31.898 42.6 31.8972 42.6C31.8964 42.6 31.8956 42.6 31.8948 42.6C31.894 42.6 31.8932 42.6 31.8924 42.6C31.8916 42.6 31.8908 42.6 31.89 42.6C31.8892 42.6 31.8884 42.6 31.8876 42.6C31.8868 42.6 31.886 42.6 31.8852 42.6C31.8844 42.6 31.8836 42.6 31.8828 42.6C31.882 42.6 31.8812 42.6 31.8804 42.6C31.8796 42.6 31.8788 42.6 31.878 42.6C31.8772 42.6 31.8765 42.6 31.8757 42.6C31.8749 42.6 31.8741 42.6 31.8733 42.6C31.8725 42.6 31.8717 42.6 31.8709 42.6C31.8701 42.6 31.8693 42.6 31.8685 42.6C31.8677 42.6 31.8669 42.6 31.8661 42.6C31.8653 42.6 31.8645 42.6 31.8637 42.6C31.8629 42.6 31.8622 42.6 31.8614 42.6C31.8606 42.6 31.8598 42.6 31.859 42.6C31.8582 42.6 31.8574 42.6 31.8566 42.6C31.8558 42.6 31.855 42.6 31.8542 42.6C31.8534 42.6 31.8526 42.6 31.8519 42.6C31.8511 42.6 31.8503 42.6 31.8495 42.6C31.8487 42.6 31.8479 42.6 31.8471 42.6C31.8463 42.6 31.8455 42.6 31.8447 42.6C31.8439 42.6 31.8432 42.6 31.8424 42.6C31.8416 42.6 31.8408 42.6 31.84 42.6C31.8392 42.6 31.8384 42.6 31.8376 42.6C31.8368 42.6 31.836 42.6 31.8353 42.6C31.8345 42.6 31.8337 42.6 31.8329 42.6C31.8321 42.6 31.8313 42.6 31.8305 42.6C31.8297 42.6 31.829 42.6 31.8282 42.6C31.8274 42.6 31.8266 42.6 31.8258 42.6C31.825 42.6 31.8242 42.6 31.8234 42.6C31.8227 42.6 31.8219 42.6 31.8211 42.6C31.8203 42.6 31.8195 42.6 31.8187 42.6C31.8179 42.6 31.8172 42.6 31.8164 42.6C31.8156 42.6 31.8148 42.6 31.814 42.6C31.8132 42.6 31.8124 42.6 31.8117 42.6C31.8109 42.6 31.8101 42.6 31.8093 42.6C31.8085 42.6 31.8077 42.6 31.807 42.6C31.8062 42.6 31.8054 42.6 31.8046 42.6C31.8038 42.6 31.803 42.6 31.8023 42.6C31.8015 42.6 31.8007 42.6 31.7999 42.6C31.7991 42.6 31.7983 42.6 31.7976 42.6C31.7968 42.6 31.796 42.6 31.7952 42.6C31.7944 42.6 31.7937 42.6 31.7929 42.6C31.7921 42.6 31.7913 42.6 31.7905 42.6C31.7897 42.6 31.789 42.6 31.7882 42.6C31.7874 42.6 31.7866 42.6 31.7858 42.6C31.7851 42.6 31.7843 42.6 31.7835 42.6C31.7827 42.6 31.7819 42.6 31.7812 42.6C31.7804 42.6 31.7796 42.6 31.7788 42.6C31.778 42.6 31.7773 42.6 31.7765 42.6C31.7757 42.6 31.7749 42.6 31.7742 42.6C31.7734 42.6 31.7726 42.6 31.7718 42.6C31.771 42.6 31.7703 42.6 31.7695 42.6C31.7687 42.6 31.7679 42.6 31.7672 42.6C31.7664 42.6 31.7656 42.6 31.7648 42.6C31.7641 42.6 31.7633 42.6 31.7625 42.6C31.7617 42.6 31.7609 42.6 31.7602 42.6C31.7594 42.6 31.7586 42.6 31.7578 42.6C31.7571 42.6 31.7563 42.6 31.7555 42.6C31.7547 42.6 31.754 42.6 31.7532 42.6C31.7524 42.6 31.7516 42.6 31.7509 42.6C31.7501 42.6 31.7493 42.6 31.7486 42.6C31.7478 42.6 31.747 42.6 31.7462 42.6C31.7455 42.6 31.7447 42.6 31.7439 42.6C31.7431 42.6 31.7424 42.6 31.7416 42.6C31.7408 42.6 31.7401 42.6 31.7393 42.6C31.7385 42.6 31.7377 42.6 31.737 42.6C31.7362 42.6 31.7354 42.6 31.7347 42.6C31.7339 42.6 31.7331 42.6 31.7323 42.6C31.7316 42.6 31.7308 42.6 31.73 42.6C31.7293 42.6 31.7285 42.6 31.7277 42.6C31.7269 42.6 31.7262 42.6 31.7254 42.6C31.7246 42.6 31.7239 42.6 31.7231 42.6C31.7223 42.6 31.7216 42.6 31.7208 42.6C31.72 42.6 31.7193 42.6 31.7185 42.6C31.7177 42.6 31.7169 42.6 31.7162 42.6C31.7154 42.6 31.7146 42.6 31.7139 42.6C31.7131 42.6 31.7123 42.6 31.7116 42.6C31.7108 42.6 31.71 42.6 31.7093 42.6C31.7085 42.6 31.7077 42.6 31.707 42.6C31.7062 42.6 31.7054 42.6 31.7047 42.6C31.7039 42.6 31.7031 42.6 31.7024 42.6C31.7016 42.6 31.7009 42.6 31.7001 42.6C31.6993 42.6 31.6986 42.6 31.6978 42.6C31.697 42.6 31.6963 42.6 31.6955 42.6C31.6947 42.6 31.694 42.6 31.6932 42.6C31.6924 42.6 31.6917 42.6 31.6909 42.6C31.6902 42.6 31.6894 42.6 31.6886 42.6C31.6879 42.6 31.6871 42.6 31.6863 42.6C31.6856 42.6 31.6848 42.6 31.684 42.6C31.6833 42.6 31.6825 42.6 31.6818 42.6C31.681 42.6 31.6802 42.6 31.6795 42.6C31.6787 42.6 31.678 42.6 31.6772 42.6C31.6764 42.6 31.6757 42.6 31.6749 42.6C31.6742 42.6 31.6734 42.6 31.6726 42.6C31.6719 42.6 31.6711 42.6 31.6704 42.6C31.6696 42.6 31.6688 42.6 31.6681 42.6C31.6673 42.6 31.6666 42.6 31.6658 42.6C31.665 42.6 31.6643 42.6 31.6635 42.6C31.6628 42.6 31.662 42.6 31.6612 42.6C31.6605 42.6 31.6597 42.6 31.659 42.6C31.6582 42.6 31.6575 42.6 31.6567 42.6C31.6559 42.6 31.6552 42.6 31.6544 42.6C31.6537 42.6 31.6529 42.6 31.6522 42.6C31.6514 42.6 31.6506 42.6 31.6499 42.6C31.6491 42.6 31.6484 42.6 31.6476 42.6C31.6469 42.6 31.6461 42.6 31.6454 42.6C31.6446 42.6 31.6438 42.6 31.6431 42.6C31.6423 42.6 31.6416 42.6 31.6408 42.6C31.6401 42.6 31.6393 42.6 31.6386 42.6C31.6378 42.6 31.6371 42.6 31.6363 42.6C31.6355 42.6 31.6348 42.6 31.634 42.6C31.6333 42.6 31.6325 42.6 31.6318 42.6C31.631 42.6 31.6303 42.6 31.6295 42.6C31.6288 42.6 31.628 42.6 31.6273 42.6C31.6265 42.6 31.6258 42.6 31.625 42.6C31.6243 42.6 31.6235 42.6 31.6228 42.6C31.622 42.6 31.6213 42.6 31.6205 42.6C31.6198 42.6 31.619 42.6 31.6183 42.6C31.6175 42.6 31.6168 42.6 31.616 42.6V44.6ZM32.928 44.6C33.8838 44.6 34.7917 44.5444 35.6505 44.4315L35.3895 42.4485C34.627 42.5489 33.8069 42.6 32.928 42.6V44.6ZM35.6721 44.4284C36.5809 44.2885 37.4053 44.0508 38.1307 43.7006L37.2613 41.8994C36.7494 42.1465 36.1231 42.3355 35.3679 42.4516L35.6721 44.4284ZM38.1308 43.7006C38.8969 43.3307 39.527 42.8024 39.9949 42.1143L38.3411 40.9897C38.0836 41.3683 37.7324 41.672 37.2613 41.8994L38.1308 43.7006ZM39.9795 42.1363C40.5122 41.3965 40.744 40.5067 40.744 39.536H38.744C38.744 40.1866 38.5918 40.6409 38.3565 40.9677L39.9795 42.1363ZM40.744 39.536C40.744 38.6866 40.5817 37.8978 40.1986 37.2199L38.4574 38.2041C38.6289 38.5075 38.744 38.9348 38.744 39.536H40.744ZM40.2073 37.2357C39.8352 36.5489 39.2904 36.0098 38.6006 35.6235L37.6234 37.3685C38.0003 37.5795 38.2661 37.8511 38.4487 38.1883L40.2073 37.2357ZM38.6159 35.6322C37.9805 35.2616 37.2443 35.0149 36.4298 34.8712L36.0822 36.8408C36.7184 36.953 37.2195 37.1331 37.6081 37.3598L38.6159 35.6322ZM36.4298 34.8712C35.6364 34.7312 34.7663 34.664 33.824 34.664V36.664C34.6737 36.664 35.425 36.7248 36.0822 36.8408L36.4298 34.8712ZM33.824 34.664H29.824V36.664H33.824V34.664ZM29.824 34.168H33.088V32.168H29.824V34.168ZM33.088 34.168C33.9021 34.168 34.6794 34.1115 35.4184 33.996L35.1096 32.02C34.4833 32.1178 33.8099 32.168 33.088 32.168V34.168ZM35.4184 33.996C36.1938 33.8749 36.9002 33.6507 37.5161 33.3026L36.5319 31.5614C36.1665 31.768 35.6995 31.9278 35.1096 32.02L35.4184 33.996ZM37.5003 33.3113C38.1491 32.9599 38.6798 32.4818 39.0583 31.8704L37.3577 30.8176C37.1816 31.1022 36.9229 31.3495 36.5477 31.5527L37.5003 33.3113ZM39.0401 31.8987C39.4742 31.2474 39.656 30.4754 39.656 29.648H37.656C37.656 30.186 37.5391 30.5445 37.376 30.7893L39.0401 31.8987ZM39.656 29.648C39.656 28.8504 39.4682 28.1044 39.0272 27.4745L37.3888 28.6215C37.5452 28.8449 37.656 29.1656 37.656 29.648H39.656ZM39.0401 27.4933C38.6322 26.8815 38.0714 26.4163 37.3927 26.0905L36.5273 27.8935C36.9152 28.0797 37.1865 28.3185 37.376 28.6027L39.0401 27.4933ZM37.4363 26.1127C36.8128 25.775 36.1 25.5429 35.3149 25.4001L34.9571 27.3679C35.58 27.4811 36.0832 27.6543 36.4837 27.8713L37.4363 26.1127ZM35.3149 25.4001C34.5462 25.2604 33.7393 25.192 32.896 25.192V27.192C33.6314 27.192 34.3178 27.2516 34.9571 27.3679L35.3149 25.4001ZM32.896 25.192C32.1007 25.192 31.4638 25.2027 30.9924 25.2251L31.0876 27.2229C31.5122 27.2026 32.1126 27.192 32.896 27.192V25.192ZM30.9924 25.2251C30.5263 25.2473 30.0973 25.2809 29.7072 25.3268L29.9408 27.3132C30.276 27.2737 30.6577 27.2433 31.0876 27.2229L30.9924 25.2251ZM28.824 26.32V33.168H30.824V26.32H28.824Z" fill="white" mask="url(#path-2-outside-1_3162_860)"/>
</svg>
