<svg width="71" height="71" viewBox="0 0 71 71" fill="none" xmlns="http://www.w3.org/2000/svg">
<rect x="0.707107" y="35.3553" width="49" height="49" transform="rotate(-45 0.707107 35.3553)" fill="black" stroke="white"/>
<mask id="path-2-outside-1_3164_873" maskUnits="userSpaceOnUse" x="25" y="22" width="17" height="25" fill="black">
<rect fill="white" x="25" y="22" width="17" height="25"/>
<path d="M26.752 46V23.824H40.128V26.48H29.856V33.168H38.976V35.792H29.856V46H26.752Z"/>
</mask>
<path d="M26.752 46V23.824H40.128V26.48H29.856V33.168H38.976V35.792H29.856V46H26.752Z" fill="white"/>
<path d="M26.752 46H25.752V47H26.752V46ZM26.752 23.824V22.824H25.752V23.824H26.752ZM40.128 23.824H41.128V22.824H40.128V23.824ZM40.128 26.48V27.48H41.128V26.48H40.128ZM29.856 26.48V25.48H28.856V26.48H29.856ZM29.856 33.168H28.856V34.168H29.856V33.168ZM38.976 33.168H39.976V32.168H38.976V33.168ZM38.976 35.792V36.792H39.976V35.792H38.976ZM29.856 35.792V34.792H28.856V35.792H29.856ZM29.856 46V47H30.856V46H29.856ZM27.752 46V23.824H25.752V46H27.752ZM26.752 24.824H40.128V22.824H26.752V24.824ZM39.128 23.824V26.48H41.128V23.824H39.128ZM40.128 25.48H29.856V27.48H40.128V25.48ZM28.856 26.48V33.168H30.856V26.48H28.856ZM29.856 34.168H38.976V32.168H29.856V34.168ZM37.976 33.168V35.792H39.976V33.168H37.976ZM38.976 34.792H29.856V36.792H38.976V34.792ZM28.856 35.792V46H30.856V35.792H28.856ZM29.856 45H26.752V47H29.856V45Z" fill="white" mask="url(#path-2-outside-1_3164_873)"/>
</svg>
