<svg width="71" height="71" viewBox="0 0 71 71" fill="none" xmlns="http://www.w3.org/2000/svg">
<rect x="0.707107" y="35.3553" width="49" height="49" transform="rotate(-45 0.707107 35.3553)" fill="white" stroke="#BB0A21"/>
<path d="M36.288 46.48C34.7307 46.48 33.312 46.224 32.032 45.712C30.752 45.2 29.6533 44.4533 28.736 43.472C27.8187 42.4907 27.104 41.2853 26.592 39.856C26.1013 38.4053 25.856 36.752 25.856 34.896C25.856 33.04 26.1333 31.3973 26.688 29.968C27.264 28.5173 28.032 27.3013 28.992 26.32C29.952 25.3387 31.072 24.592 32.352 24.08C33.632 23.568 34.9973 23.312 36.448 23.312C37.3653 23.312 38.1867 23.376 38.912 23.504C39.6587 23.632 40.2987 23.7813 40.832 23.952C41.3867 24.1227 41.8347 24.2933 42.176 24.464C42.5173 24.6347 42.752 24.7627 42.88 24.848L41.984 27.408C41.792 27.28 41.5147 27.1413 41.152 26.992C40.7893 26.8427 40.3733 26.6933 39.904 26.544C39.456 26.3947 38.9547 26.2773 38.4 26.192C37.8667 26.0853 37.3227 26.032 36.768 26.032C35.5947 26.032 34.5387 26.2347 33.6 26.64C32.6613 27.0453 31.8613 27.632 31.2 28.4C30.5387 29.168 30.0267 30.1067 29.664 31.216C29.3227 32.304 29.152 33.5307 29.152 34.896C29.152 36.2187 29.3013 37.424 29.6 38.512C29.92 39.6 30.3893 40.5387 31.008 41.328C31.6267 42.096 32.3947 42.6933 33.312 43.12C34.2507 43.5467 35.3387 43.76 36.576 43.76C38.0053 43.76 39.1893 43.6107 40.128 43.312C41.0667 43.0133 41.7707 42.7467 42.24 42.512L43.04 45.072C42.8907 45.1787 42.624 45.3173 42.24 45.488C41.856 45.6373 41.376 45.7867 40.8 45.936C40.224 46.0853 39.552 46.2133 38.784 46.32C38.016 46.4267 37.184 46.48 36.288 46.48Z" fill="#BB0A21"/>
</svg>
