<svg width="71" height="71" viewBox="0 0 71 71" fill="none" xmlns="http://www.w3.org/2000/svg">
<rect x="0.707107" y="35.3553" width="49" height="49" transform="rotate(-45 0.707107 35.3553)" fill="black" stroke="white"/>
<mask id="path-2-outside-1_3164_876" maskUnits="userSpaceOnUse" x="24" y="22" width="21" height="26" fill="black">
<rect fill="white" x="24" y="22" width="21" height="26"/>
<path d="M40.288 35.088H43.392V45.456C43.136 45.5413 42.7627 45.6373 42.272 45.744C41.8027 45.8507 41.248 45.9573 40.608 46.064C39.9893 46.1707 39.3067 46.256 38.56 46.32C37.8133 46.4053 37.056 46.448 36.288 46.448C34.7307 46.448 33.312 46.192 32.032 45.68C30.752 45.168 29.6533 44.4213 28.736 43.44C27.8187 42.4587 27.104 41.2533 26.592 39.824C26.1013 38.3947 25.856 36.752 25.856 34.896C25.856 33.04 26.1333 31.3973 26.688 29.968C27.264 28.5173 28.032 27.3013 28.992 26.32C29.952 25.3387 31.072 24.592 32.352 24.08C33.6533 23.568 35.04 23.312 36.512 23.312C37.5147 23.312 38.4 23.376 39.168 23.504C39.9573 23.632 40.6293 23.7813 41.184 23.952C41.7387 24.1227 42.1867 24.2933 42.528 24.464C42.8907 24.6347 43.136 24.7627 43.264 24.848L42.272 27.44C41.6533 27.0347 40.832 26.704 39.808 26.448C38.784 26.1707 37.7387 26.032 36.672 26.032C35.5413 26.032 34.5067 26.2347 33.568 26.64C32.6507 27.0453 31.8613 27.632 31.2 28.4C30.56 29.168 30.0587 30.1067 29.696 31.216C29.3333 32.304 29.152 33.5307 29.152 34.896C29.152 36.2187 29.3013 37.424 29.6 38.512C29.92 39.6 30.3893 40.5387 31.008 41.328C31.648 42.096 32.4267 42.6933 33.344 43.12C34.2827 43.5467 35.3813 43.76 36.64 43.76C37.536 43.76 38.2933 43.7173 38.912 43.632C39.552 43.5253 40.0107 43.4293 40.288 43.344V35.088Z"/>
</mask>
<path d="M40.288 35.088H43.392V45.456C43.136 45.5413 42.7627 45.6373 42.272 45.744C41.8027 45.8507 41.248 45.9573 40.608 46.064C39.9893 46.1707 39.3067 46.256 38.56 46.32C37.8133 46.4053 37.056 46.448 36.288 46.448C34.7307 46.448 33.312 46.192 32.032 45.68C30.752 45.168 29.6533 44.4213 28.736 43.44C27.8187 42.4587 27.104 41.2533 26.592 39.824C26.1013 38.3947 25.856 36.752 25.856 34.896C25.856 33.04 26.1333 31.3973 26.688 29.968C27.264 28.5173 28.032 27.3013 28.992 26.32C29.952 25.3387 31.072 24.592 32.352 24.08C33.6533 23.568 35.04 23.312 36.512 23.312C37.5147 23.312 38.4 23.376 39.168 23.504C39.9573 23.632 40.6293 23.7813 41.184 23.952C41.7387 24.1227 42.1867 24.2933 42.528 24.464C42.8907 24.6347 43.136 24.7627 43.264 24.848L42.272 27.44C41.6533 27.0347 40.832 26.704 39.808 26.448C38.784 26.1707 37.7387 26.032 36.672 26.032C35.5413 26.032 34.5067 26.2347 33.568 26.64C32.6507 27.0453 31.8613 27.632 31.2 28.4C30.56 29.168 30.0587 30.1067 29.696 31.216C29.3333 32.304 29.152 33.5307 29.152 34.896C29.152 36.2187 29.3013 37.424 29.6 38.512C29.92 39.6 30.3893 40.5387 31.008 41.328C31.648 42.096 32.4267 42.6933 33.344 43.12C34.2827 43.5467 35.3813 43.76 36.64 43.76C37.536 43.76 38.2933 43.7173 38.912 43.632C39.552 43.5253 40.0107 43.4293 40.288 43.344V35.088Z" fill="white"/>
<path d="M40.288 35.088V34.088H39.288V35.088H40.288ZM43.392 35.088H44.392V34.088H43.392V35.088ZM43.392 45.456L43.7082 46.4047L44.392 46.1768V45.456H43.392ZM42.272 45.744L42.0596 44.7668L42.0504 44.7689L42.272 45.744ZM40.608 46.064L40.4436 45.0776L40.4381 45.0785L40.608 46.064ZM38.56 46.32L38.4746 45.3237L38.4605 45.3249L38.4465 45.3265L38.56 46.32ZM32.032 45.68L31.6606 46.6085L32.032 45.68ZM28.736 43.44L28.0055 44.1229L28.736 43.44ZM26.592 39.824L25.6461 40.1487L25.6506 40.1612L26.592 39.824ZM26.688 29.968L25.7586 29.599L25.7557 29.6062L26.688 29.968ZM28.992 26.32L28.2772 25.6207L28.992 26.32ZM32.352 24.08L31.9859 23.1494L31.9806 23.1515L32.352 24.08ZM39.168 23.504L39.0036 24.4904L39.0079 24.4911L39.168 23.504ZM41.184 23.952L40.8899 24.9078H40.8899L41.184 23.952ZM42.528 24.464L42.0808 25.3584L42.0914 25.3637L42.1022 25.3688L42.528 24.464ZM43.264 24.848L44.1979 25.2054L44.4835 24.4592L43.8187 24.0159L43.264 24.848ZM42.272 27.44L41.724 28.2765L42.7623 28.9567L43.2059 27.7974L42.272 27.44ZM39.808 26.448L39.5466 27.4132L39.556 27.4158L39.5655 27.4181L39.808 26.448ZM33.568 26.64L33.1716 25.7219L33.1638 25.7253L33.568 26.64ZM31.2 28.4L30.4422 27.7475L30.437 27.7536L30.4318 27.7598L31.2 28.4ZM29.696 31.216L30.6447 31.5322L30.6465 31.5267L29.696 31.216ZM29.6 38.512L28.6357 38.7767L28.6381 38.7855L28.6406 38.7942L29.6 38.512ZM31.008 41.328L30.2209 41.9449L30.2302 41.9567L30.2398 41.9682L31.008 41.328ZM33.344 43.12L32.9223 44.0268L32.9302 44.0304L33.344 43.12ZM38.912 43.632L39.0486 44.6226L39.0625 44.6207L39.0764 44.6184L38.912 43.632ZM40.288 43.344L40.5821 44.2998L41.288 44.0826V43.344H40.288ZM40.288 36.088H43.392V34.088H40.288V36.088ZM42.392 35.088V45.456H44.392V35.088H42.392ZM43.0758 44.5073C42.8713 44.5755 42.5395 44.6625 42.0596 44.7668L42.4844 46.7212C42.9858 46.6122 43.4007 46.5072 43.7082 46.4047L43.0758 44.5073ZM42.0504 44.7689C41.6052 44.87 41.0705 44.9731 40.4436 45.0776L40.7724 47.0504C41.4255 46.9415 42.0001 46.8313 42.4936 46.7191L42.0504 44.7689ZM40.4381 45.0785C39.8522 45.1796 39.1982 45.2616 38.4746 45.3237L38.6454 47.3163C39.4152 47.2504 40.1265 47.1618 40.7779 47.0495L40.4381 45.0785ZM38.4465 45.3265C37.7383 45.4074 37.0189 45.448 36.288 45.448V47.448C37.0931 47.448 37.8884 47.4033 38.6735 47.3135L38.4465 45.3265ZM36.288 45.448C34.8415 45.448 33.5509 45.2105 32.4034 44.7515L31.6606 46.6085C33.0731 47.1735 34.6199 47.448 36.288 47.448V45.448ZM32.4034 44.7515C31.256 44.2926 30.2809 43.6284 29.4665 42.7571L28.0055 44.1229C29.0257 45.2143 30.248 46.0434 31.6606 46.6085L32.4034 44.7515ZM29.4665 42.7571C28.6537 41.8876 28.0054 40.8044 27.5334 39.4868L25.6506 40.1612C26.2026 41.7023 26.9836 43.0297 28.0055 44.1229L29.4665 42.7571ZM27.5378 39.4993C27.0901 38.1952 26.856 36.6658 26.856 34.896H24.856C24.856 36.8382 25.1125 38.5941 25.6462 40.1487L27.5378 39.4993ZM26.856 34.896C26.856 33.1384 27.1187 31.6223 27.6203 30.3298L25.7557 29.6062C25.148 31.1724 24.856 32.9416 24.856 34.896H26.856ZM27.6174 30.337C28.1512 28.9928 28.8514 27.8937 29.7068 27.0193L28.2772 25.6207C27.2126 26.7089 26.3768 28.0419 25.7586 29.599L27.6174 30.337ZM29.7068 27.0193C30.5691 26.1378 31.572 25.469 32.7234 25.0085L31.9806 23.1515C30.572 23.715 29.3349 24.5395 28.2772 25.6207L29.7068 27.0193ZM32.7181 25.0106C33.8968 24.5468 35.1586 24.312 36.512 24.312V22.312C34.9214 22.312 33.4099 22.5892 31.9859 23.1494L32.7181 25.0106ZM36.512 24.312C37.4744 24.312 38.3028 24.3736 39.0036 24.4904L39.3324 22.5176C38.4972 22.3784 37.5549 22.312 36.512 22.312V24.312ZM39.0079 24.4911C39.7675 24.6143 40.392 24.7546 40.8899 24.9078L41.4781 22.9962C40.8666 22.8081 40.1471 22.6497 39.3281 22.5169L39.0079 24.4911ZM40.8899 24.9078C41.4161 25.0697 41.8071 25.2216 42.0808 25.3584L42.9752 23.5696C42.5663 23.3651 42.0613 23.1757 41.4781 22.9962L40.8899 24.9078ZM42.1022 25.3688C42.469 25.5414 42.651 25.6412 42.7093 25.6801L43.8187 24.0159C43.621 23.8842 43.3123 23.7279 42.9538 23.5592L42.1022 25.3688ZM42.3301 24.4906L41.3381 27.0826L43.2059 27.7974L44.1979 25.2054L42.3301 24.4906ZM42.82 26.6035C42.077 26.1168 41.1407 25.7504 40.0505 25.4779L39.5655 27.4181C40.5233 27.6576 41.2296 27.9526 41.724 28.2765L42.82 26.6035ZM40.0694 25.4828C38.9597 25.1822 37.8265 25.032 36.672 25.032V27.032C37.6509 27.032 38.6083 27.1591 39.5466 27.4132L40.0694 25.4828ZM36.672 25.032C35.4195 25.032 34.2481 25.2571 33.1716 25.7219L33.9644 27.5581C34.7653 27.2122 35.6632 27.032 36.672 27.032V25.032ZM33.1638 25.7253C32.1091 26.1913 31.1994 26.8681 30.4422 27.7475L31.9578 29.0525C32.5232 28.3959 33.1922 27.8993 33.9722 27.5547L33.1638 25.7253ZM30.4318 27.7598C29.6983 28.6399 29.141 29.6954 28.7455 30.9053L30.6465 31.5267C30.9763 30.5179 31.4217 29.6961 31.9682 29.0402L30.4318 27.7598ZM28.7473 30.8998C28.3449 32.107 28.152 33.4431 28.152 34.896H30.152C30.152 33.6183 30.3218 32.501 30.6447 31.5322L28.7473 30.8998ZM28.152 34.896C28.152 36.2932 28.3097 37.5892 28.6357 38.7767L30.5643 38.2473C30.293 37.2588 30.152 36.1442 30.152 34.896H28.152ZM28.6406 38.7942C28.9917 39.9878 29.5146 41.0437 30.2209 41.9449L31.7951 40.7111C31.264 40.0336 30.8483 39.2122 30.5594 38.2298L28.6406 38.7942ZM30.2398 41.9682C30.9754 42.8509 31.8729 43.5386 32.9223 44.0267L33.7657 42.2133C32.9805 41.848 32.3206 41.3411 31.7762 40.6878L30.2398 41.9682ZM32.9302 44.0304C34.0242 44.5277 35.2694 44.76 36.64 44.76V42.76C35.4933 42.76 34.5411 42.5657 33.7578 42.2096L32.9302 44.0304ZM36.64 44.76C37.5639 44.76 38.3699 44.7162 39.0486 44.6226L38.7754 42.6414C38.2168 42.7184 37.5081 42.76 36.64 42.76V44.76ZM39.0764 44.6184C39.7202 44.5111 40.2359 44.4063 40.5821 44.2998L39.9939 42.3882C39.7854 42.4524 39.3838 42.5396 38.7476 42.6456L39.0764 44.6184ZM41.288 43.344V35.088H39.288V43.344H41.288Z" fill="white" mask="url(#path-2-outside-1_3164_876)"/>
</svg>
