<svg width="71" height="71" viewBox="0 0 71 71" fill="none" xmlns="http://www.w3.org/2000/svg">
<rect x="0.707107" y="35.3553" width="49" height="49" transform="rotate(-45 0.707107 35.3553)" fill="black" stroke="white"/>
<mask id="path-2-outside-1_3167_1634" maskUnits="userSpaceOnUse" x="22" y="22" width="25" height="25" fill="black">
<rect fill="white" x="22" y="22" width="25" height="25"/>
<path d="M41.568 46C41.2053 45.04 40.864 44.1013 40.544 43.184C40.224 42.2453 39.8933 41.296 39.552 40.336H29.504L27.488 46H24.256C25.1093 43.6533 25.9093 41.488 26.656 39.504C27.4027 37.4987 28.128 35.6 28.832 33.808C29.5573 32.016 30.272 30.3093 30.976 28.688C31.68 27.0453 32.416 25.424 33.184 23.824H36.032C36.8 25.424 37.536 27.0453 38.24 28.688C38.944 30.3093 39.648 32.016 40.352 33.808C41.0773 35.6 41.8133 37.4987 42.56 39.504C43.3067 41.488 44.1067 43.6533 44.96 46H41.568ZM38.656 37.776C37.9733 35.92 37.2907 34.128 36.608 32.4C35.9467 30.6507 35.2533 28.976 34.528 27.376C33.7813 28.976 33.0667 30.6507 32.384 32.4C31.7227 34.128 31.0613 35.92 30.4 37.776H38.656Z"/>
</mask>
<path d="M41.568 46C41.2053 45.04 40.864 44.1013 40.544 43.184C40.224 42.2453 39.8933 41.296 39.552 40.336H29.504L27.488 46H24.256C25.1093 43.6533 25.9093 41.488 26.656 39.504C27.4027 37.4987 28.128 35.6 28.832 33.808C29.5573 32.016 30.272 30.3093 30.976 28.688C31.68 27.0453 32.416 25.424 33.184 23.824H36.032C36.8 25.424 37.536 27.0453 38.24 28.688C38.944 30.3093 39.648 32.016 40.352 33.808C41.0773 35.6 41.8133 37.4987 42.56 39.504C43.3067 41.488 44.1067 43.6533 44.96 46H41.568ZM38.656 37.776C37.9733 35.92 37.2907 34.128 36.608 32.4C35.9467 30.6507 35.2533 28.976 34.528 27.376C33.7813 28.976 33.0667 30.6507 32.384 32.4C31.7227 34.128 31.0613 35.92 30.4 37.776H38.656Z" fill="white"/>
<path d="M41.568 46L40.6325 46.3534L40.8768 47H41.568V46ZM40.544 43.184L39.5975 43.5067L39.5998 43.5134L40.544 43.184ZM39.552 40.336L40.4942 40.001L40.2578 39.336H39.552V40.336ZM29.504 40.336V39.336H28.7985L28.5619 40.0007L29.504 40.336ZM27.488 46V47H28.1935L28.4301 46.3353L27.488 46ZM24.256 46L23.3162 45.6583L22.8283 47H24.256V46ZM26.656 39.504L27.5919 39.8562L27.5931 39.8529L26.656 39.504ZM28.832 33.808L27.905 33.4328L27.9012 33.4423L28.832 33.808ZM30.976 28.688L31.8933 29.0863L31.8951 29.0819L30.976 28.688ZM33.184 23.824V22.824H32.5548L32.2825 23.3913L33.184 23.824ZM36.032 23.824L36.9335 23.3913L36.6612 22.824H36.032V23.824ZM38.24 28.688L37.3208 29.0819L37.3227 29.0863L38.24 28.688ZM40.352 33.808L39.4212 34.1737L39.4251 34.1832L40.352 33.808ZM42.56 39.504L41.6228 39.8529L41.6241 39.8562L42.56 39.504ZM44.96 46V47H46.3877L45.8998 45.6583L44.96 46ZM38.656 37.776V38.776H40.0893L39.5945 37.4308L38.656 37.776ZM36.608 32.4L35.6726 32.7536L35.6752 32.7605L35.6779 32.7674L36.608 32.4ZM34.528 27.376L35.4388 26.9631L34.5412 24.9831L33.6218 26.9531L34.528 27.376ZM32.384 32.4L31.4524 32.0364L31.4501 32.0426L32.384 32.4ZM30.4 37.776L29.458 37.4403L28.9821 38.776H30.4V37.776ZM42.5035 45.6466C42.1437 44.6941 41.8052 43.7635 41.4882 42.8546L39.5998 43.5134C39.9228 44.4392 40.267 45.3859 40.6325 46.3534L42.5035 45.6466ZM41.4905 42.8613C41.1691 41.9184 40.837 40.965 40.4942 40.001L38.6098 40.671C38.9497 41.627 39.2789 42.5722 39.5975 43.5067L41.4905 42.8613ZM39.552 39.336H29.504V41.336H39.552V39.336ZM28.5619 40.0007L26.5459 45.6647L28.4301 46.3353L30.4461 40.6713L28.5619 40.0007ZM27.488 45H24.256V47H27.488V45ZM25.1958 46.3417C26.0481 43.998 26.8468 41.8362 27.5919 39.8562L25.7201 39.1518C24.9719 41.1398 24.1706 43.3087 23.3162 45.6583L25.1958 46.3417ZM27.5931 39.8529C28.338 37.8526 29.0612 35.9595 29.7628 34.1737L27.9012 33.4423C27.1948 35.2405 26.4674 37.1447 25.7189 39.1551L27.5931 39.8529ZM29.7589 34.1832C30.4814 32.3982 31.1929 30.6993 31.8933 29.0863L30.0587 28.2897C29.3511 29.9194 28.6332 31.6338 27.9051 33.4328L29.7589 34.1832ZM31.8951 29.0819C32.5936 27.4522 33.3237 25.8438 34.0855 24.2567L32.2825 23.3913C31.5083 25.0042 30.7664 26.6384 30.0569 28.2941L31.8951 29.0819ZM33.184 24.824H36.032V22.824H33.184V24.824ZM35.1305 24.2567C35.8923 25.8438 36.6224 27.4522 37.3209 29.0819L39.1591 28.2941C38.4496 26.6384 37.7077 25.0042 36.9335 23.3913L35.1305 24.2567ZM37.3227 29.0863C38.0217 30.6959 38.7212 32.3917 39.4212 34.1737L41.2828 33.4423C40.5748 31.6403 39.8663 29.9227 39.1573 28.2897L37.3227 29.0863ZM39.4251 34.1832C40.1465 35.9656 40.8791 37.8555 41.6229 39.8529L43.4971 39.1551C42.7475 37.1418 42.0082 35.2344 41.2789 33.4328L39.4251 34.1832ZM41.6241 39.8562C42.3692 41.8362 43.1679 43.998 44.0202 46.3417L45.8998 45.6583C45.0454 43.3087 44.2441 41.1398 43.4959 39.1518L41.6241 39.8562ZM44.96 45H41.568V47H44.96V45ZM39.5945 37.4308C38.9093 35.5678 38.2238 33.7684 37.5381 32.0326L35.6779 32.7674C36.3575 34.4876 37.0374 36.2722 37.7175 38.1212L39.5945 37.4308ZM37.5434 32.0464C36.875 30.2783 36.1735 28.5838 35.4388 26.9631L33.6172 27.7889C34.3332 29.3682 35.0184 31.023 35.6726 32.7536L37.5434 32.0464ZM33.6218 26.9531C32.8655 28.5738 32.1424 30.2683 31.4524 32.0365L33.3156 32.7635C33.9909 31.033 34.6972 29.3782 35.4342 27.7989L33.6218 26.9531ZM31.4501 32.0426C30.7858 33.7782 30.1218 35.5775 29.458 37.4403L31.342 38.1117C32.0009 36.2625 32.6595 34.4778 33.3179 32.7574L31.4501 32.0426ZM30.4 38.776H38.656V36.776H30.4V38.776Z" fill="white" mask="url(#path-2-outside-1_3167_1634)"/>
</svg>
