<svg width="71" height="71" viewBox="0 0 71 71" fill="none" xmlns="http://www.w3.org/2000/svg">
<rect x="0.707107" y="35.3553" width="49" height="49" transform="rotate(-45 0.707107 35.3553)" fill="white" stroke="#BB0A21"/>
<path d="M41.568 46C41.2053 45.04 40.864 44.1013 40.544 43.184C40.224 42.2453 39.8933 41.296 39.552 40.336H29.504L27.488 46H24.256C25.1093 43.6533 25.9093 41.488 26.656 39.504C27.4027 37.4987 28.128 35.6 28.832 33.808C29.5573 32.016 30.272 30.3093 30.976 28.688C31.68 27.0453 32.416 25.424 33.184 23.824H36.032C36.8 25.424 37.536 27.0453 38.24 28.688C38.944 30.3093 39.648 32.016 40.352 33.808C41.0773 35.6 41.8133 37.4987 42.56 39.504C43.3067 41.488 44.1067 43.6533 44.96 46H41.568ZM38.656 37.776C37.9733 35.92 37.2907 34.128 36.608 32.4C35.9467 30.6507 35.2533 28.976 34.528 27.376C33.7813 28.976 33.0667 30.6507 32.384 32.4C31.7227 34.128 31.0613 35.92 30.4 37.776H38.656Z" fill="#BB0A21"/>
</svg>
