<svg width="71" height="71" viewBox="0 0 71 71" fill="none" xmlns="http://www.w3.org/2000/svg">
<rect x="0.707107" y="35.3553" width="49" height="49" transform="rotate(-45 0.707107 35.3553)" fill="white" stroke="#BB0A21"/>
<path d="M32.736 46.192C32.288 46.192 31.7973 46.1813 31.264 46.16C30.752 46.1387 30.2293 46.1067 29.696 46.064C29.184 46.0213 28.672 45.968 28.16 45.904C27.648 45.84 27.1787 45.7547 26.752 45.648V24.144C27.1787 24.0373 27.648 23.952 28.16 23.888C28.672 23.824 29.184 23.7707 29.696 23.728C30.2293 23.6853 30.752 23.6533 31.264 23.632C31.776 23.6107 32.256 23.6 32.704 23.6C33.984 23.6 35.1787 23.696 36.288 23.888C37.4187 24.08 38.3893 24.4107 39.2 24.88C40.032 25.328 40.6827 25.9253 41.152 26.672C41.6213 27.4187 41.856 28.336 41.856 29.424C41.856 30.64 41.568 31.6427 40.992 32.432C40.416 33.2 39.648 33.776 38.688 34.16C39.9893 34.544 41.024 35.152 41.792 35.984C42.56 36.816 42.944 37.9893 42.944 39.504C42.944 41.7227 42.1227 43.3973 40.48 44.528C38.8587 45.6373 36.2773 46.192 32.736 46.192ZM29.824 35.664V43.472C30.0587 43.4933 30.336 43.5147 30.656 43.536C30.9333 43.5573 31.2533 43.5787 31.616 43.6C32 43.6 32.4373 43.6 32.928 43.6C33.8453 43.6 34.7093 43.5467 35.52 43.44C36.352 43.312 37.0773 43.0987 37.696 42.8C38.3147 42.5013 38.8053 42.0853 39.168 41.552C39.552 41.0187 39.744 40.3467 39.744 39.536C39.744 38.8107 39.6053 38.2027 39.328 37.712C39.0507 37.2 38.6453 36.7947 38.112 36.496C37.6 36.1973 36.9813 35.984 36.256 35.856C35.5307 35.728 34.72 35.664 33.824 35.664H29.824ZM29.824 33.168H33.088C33.856 33.168 34.5813 33.1147 35.264 33.008C35.9467 32.9013 36.5333 32.7093 37.024 32.432C37.536 32.1547 37.9307 31.792 38.208 31.344C38.5067 30.896 38.656 30.3307 38.656 29.648C38.656 29.008 38.5067 28.4747 38.208 28.048C37.9093 27.6 37.4933 27.248 36.96 26.992C36.448 26.7147 35.84 26.512 35.136 26.384C34.432 26.256 33.6853 26.192 32.896 26.192C32.1067 26.192 31.488 26.2027 31.04 26.224C30.592 26.2453 30.1867 26.2773 29.824 26.32V33.168Z" fill="#BB0A21"/>
</svg>
