<svg width="28" height="28" viewBox="0 0 28 28" fill="none" xmlns="http://www.w3.org/2000/svg">
<path d="M15.1654 25.6667H5.83203C3.4987 25.6667 2.33203 24.5 2.33203 22.1667V12.8333C2.33203 10.5 3.4987 9.33334 5.83203 9.33334H11.6654V22.1667C11.6654 24.5 12.832 25.6667 15.1654 25.6667Z" stroke="#292D32" stroke-width="1.5" stroke-miterlimit="10" stroke-linecap="round" stroke-linejoin="round"/>
<path d="M11.7937 4.66666C11.7003 5.01666 11.6654 5.40166 11.6654 5.83332V9.33332H5.83203V6.99999C5.83203 5.71666 6.88203 4.66666 8.16536 4.66666H11.7937Z" stroke="#292D32" stroke-width="1.5" stroke-miterlimit="10" stroke-linecap="round" stroke-linejoin="round"/>
<path d="M16.332 9.33334V15.1667" stroke="#292D32" stroke-width="1.5" stroke-miterlimit="10" stroke-linecap="round" stroke-linejoin="round"/>
<path d="M21 9.33334V15.1667" stroke="#292D32" stroke-width="1.5" stroke-miterlimit="10" stroke-linecap="round" stroke-linejoin="round"/>
<path d="M19.832 19.8333H17.4987C16.857 19.8333 16.332 20.3583 16.332 21V25.6667H20.9987V21C20.9987 20.3583 20.4737 19.8333 19.832 19.8333Z" stroke="#292D32" stroke-width="1.5" stroke-miterlimit="10" stroke-linecap="round" stroke-linejoin="round"/>
<path d="M7 15.1667V19.8333" stroke="#292D32" stroke-width="1.5" stroke-miterlimit="10" stroke-linecap="round" stroke-linejoin="round"/>
<path d="M11.668 22.1667V5.83334C11.668 3.50001 12.8346 2.33334 15.168 2.33334H22.168C24.5013 2.33334 25.668 3.50001 25.668 5.83334V22.1667C25.668 24.5 24.5013 25.6667 22.168 25.6667H15.168C12.8346 25.6667 11.668 24.5 11.668 22.1667Z" stroke="#292D32" stroke-width="1.5" stroke-miterlimit="10" stroke-linecap="round" stroke-linejoin="round"/>
</svg>
