<svg width="24" height="24" viewBox="0 0 24 24" fill="none" xmlns="http://www.w3.org/2000/svg">
<path d="M14.2726 16.2213C11.3463 14.982 9.01919 12.6495 7.78671 9.72033L11.204 6.29695L4.91212 0L1.72495 3.18617C1.17214 3.74213 0.735073 4.4022 0.439022 5.12818C0.142972 5.85416 -0.00617957 6.63163 0.000196096 7.41563C0.000196096 14.7006 9.29938 23.9998 16.5844 23.9998C17.3682 24.0064 18.1456 23.8574 18.8715 23.5613C19.5973 23.2652 20.2572 22.828 20.8128 22.275L24 19.0879L17.703 12.7909L14.2726 16.2213ZM19.3926 20.8538C19.0229 21.2195 18.5844 21.5082 18.1023 21.7032C17.6203 21.8981 17.1043 21.9955 16.5844 21.9896C10.3196 21.9896 2.0104 13.6804 2.0104 7.41563C2.00448 6.89582 2.10182 6.38002 2.29679 5.89812C2.49176 5.41623 2.78046 4.97784 3.14616 4.60839L4.91212 2.84242L8.36665 6.29695L5.41668 9.24692L5.66293 9.86406C6.38786 11.8032 7.52112 13.5639 8.98594 15.0268C10.4508 16.4897 12.2129 17.6207 14.153 18.3431L14.7621 18.5753L17.703 15.6333L21.1576 19.0879L19.3926 20.8538Z" fill="white"/>
</svg>
