<svg width="32" height="32" viewBox="0 0 32 32" fill="none" xmlns="http://www.w3.org/2000/svg">
<rect width="32" height="32" rx="4" fill="#F6F6F9" fill-opacity="0.11"/>
<path fill-rule="evenodd" clip-rule="evenodd" d="M9.63606 22.364C9.24554 21.9734 9.24554 21.3403 9.63606 20.9498L20.9498 9.63605C21.3403 9.24552 21.9735 9.24552 22.364 9.63605C22.7545 10.0266 22.7545 10.6597 22.364 11.0503L11.0503 22.364C10.6598 22.7545 10.0266 22.7545 9.63606 22.364Z" fill="#F6F6F9"/>
<path fill-rule="evenodd" clip-rule="evenodd" d="M9.63615 9.63606C10.0267 9.24554 10.6598 9.24554 11.0504 9.63606L22.3641 20.9498C22.7546 21.3403 22.7546 21.9735 22.3641 22.364C21.9736 22.7545 21.3404 22.7545 20.9499 22.364L9.63615 11.0503C9.24563 10.6598 9.24563 10.0266 9.63615 9.63606Z" fill="#F6F6F9"/>
</svg>
