<svg width="16" height="20" viewBox="0 0 16 20" fill="none" xmlns="http://www.w3.org/2000/svg">
<path d="M8 16L8 10M8 10L5 12M8 10L11 12M15.0002 7H12.2002C11.0801 7 10.5196 6.99997 10.0918 6.78198C9.71547 6.59024 9.40973 6.28429 9.21799 5.90797C9 5.48014 9 4.9201 9 3.8V1M15 15.8V7.3255C15 6.83632 14.9996 6.59169 14.9443 6.36151C14.8953 6.15744 14.8147 5.96238 14.705 5.78343C14.5814 5.5816 14.4089 5.40864 14.063 5.06274L10.9375 1.93726C10.5916 1.59135 10.4186 1.41842 10.2168 1.29474C10.0379 1.18508 9.84282 1.10425 9.63875 1.05526C9.40858 1 9.1639 1 8.67471 1H4.2002C3.08009 1 2.51962 1 2.0918 1.21799C1.71547 1.40973 1.40973 1.71572 1.21799 2.09204C1 2.51986 1 3.07991 1 4.20001V15.8C1 16.9201 1 17.4801 1.21799 17.908C1.40973 18.2843 1.71547 18.5902 2.0918 18.782C2.51962 19 3.08009 19 4.2002 19H11.8002C12.9203 19 13.48 19 13.9078 18.782C14.2841 18.5902 14.5905 18.2843 14.7822 17.908C15.0002 17.4801 15 16.9201 15 15.8Z" stroke="#606AFF" stroke-width="2" stroke-linecap="round" stroke-linejoin="round"/>
</svg>
