<svg width="52" height="52" viewBox="0 0 52 52" fill="none" xmlns="http://www.w3.org/2000/svg">
<path fill-rule="evenodd" clip-rule="evenodd" d="M46.75 28.9C47.2201 28.9 47.6 28.5201 47.6 28.05C47.6 27.58 47.2201 27.2 46.75 27.2H45.05C44.58 27.2 44.2 27.58 44.2 28.05V36.55C44.2 37.0201 44.58 37.4 45.05 37.4H46.75C47.2201 37.4 47.6 37.0201 47.6 36.55C47.6 36.08 47.2201 35.7 46.75 35.7H45.9V28.9H46.75ZM46.75 22.1H38.25C37.7799 22.1 37.4 22.4799 37.4 22.95V41.65C37.4 42.1201 37.7799 42.5 38.25 42.5H46.75C47.2201 42.5 47.6 42.1201 47.6 41.65C47.6 41.18 47.2201 40.8 46.75 40.8H39.1V23.8H46.75C47.2201 23.8 47.6 23.4201 47.6 22.95C47.6 22.4799 47.2201 22.1 46.75 22.1ZM4.25 35.7C3.7808 35.7 3.4 36.08 3.4 36.55C3.4 37.0201 3.7808 37.4 4.25 37.4H5.95C6.4192 37.4 6.8 37.0201 6.8 36.55V28.05C6.8 27.58 6.4192 27.2 5.95 27.2H4.25C3.7808 27.2 3.4 27.58 3.4 28.05C3.4 28.5201 3.7808 28.9 4.25 28.9H5.1V35.7H4.25ZM4.25 42.5H12.75C13.2192 42.5 13.6 42.1201 13.6 41.65V22.95C13.6 22.4799 13.2192 22.1 12.75 22.1H4.25C3.7808 22.1 3.4 22.4799 3.4 22.95C3.4 23.4201 3.7808 23.8 4.25 23.8H11.9V40.8H4.25C3.7808 40.8 3.4 41.18 3.4 41.65C3.4 42.1201 3.7808 42.5 4.25 42.5ZM17.7251 6.7796L20.5097 7.684L24.65 4.66735V1.74335C21.5475 2.05275 18.9346 4.0392 17.7251 6.7796ZM26.35 1.74335V4.6665L30.5014 7.67975L33.275 6.7796C32.0654 4.0392 29.4525 2.05275 26.35 1.74335ZM34 10.2C34 9.58035 33.9295 8.9777 33.8028 8.39545L31.0242 9.2973L29.4262 14.3072L31.1355 16.5461C32.8874 14.9881 34 12.7236 34 10.2ZM25.5 18.7C27.0521 18.7 28.5047 18.275 29.7585 17.5449L28.0441 15.3H22.9313L21.2373 17.5423C22.4919 18.2733 23.9454 18.7 25.5 18.7ZM21.6478 8.959L23.1209 13.6H27.8673L29.3513 8.94625L25.5009 6.1506L21.6478 8.959ZM19.862 16.5436L21.5586 14.2978L19.9716 9.2973L17.1972 8.39545C17.0706 8.97855 17 9.58035 17 10.2C17 12.7228 18.111 14.9855 19.862 16.5436ZM15.3 10.2C15.3 9.10605 15.4776 8.0546 15.7972 7.06605C15.7989 7.0601 15.7981 7.05415 15.7998 7.0482C15.8024 7.0397 15.8092 7.03375 15.8126 7.0261C17.1505 2.9529 20.9848 0 25.5 0C30.0169 0 33.853 2.9546 35.1891 7.03035C35.1917 7.03715 35.1968 7.0414 35.1994 7.0482C35.201 7.05245 35.1993 7.05755 35.201 7.06265C35.5224 8.05205 35.7 9.1052 35.7 10.2C35.7 13.5567 34.0629 16.5308 31.5528 18.3906C31.5375 18.4051 31.529 18.4254 31.5112 18.4382C31.4882 18.4561 31.4611 18.4637 31.4356 18.4782C29.7619 19.6826 27.7151 20.4 25.5 20.4C23.2866 20.4 21.2432 19.6843 19.5696 18.4824C19.5441 18.4671 19.516 18.4603 19.4922 18.4416C19.4735 18.428 19.4641 18.4059 19.4472 18.3914C16.9371 16.5308 15.3 13.5567 15.3 10.2ZM24.65 35.5793V29.0207C23.188 29.4007 22.1 30.7207 22.1 32.3C22.1 33.8793 23.188 35.1994 24.65 35.5793ZM26.35 29.0207V35.5793C27.8129 35.1994 28.9 33.8793 28.9 32.3C28.9 30.7207 27.8129 29.4007 26.35 29.0207ZM24.65 46.75V37.3235C22.242 36.9172 20.4 34.822 20.4 32.3C20.4 29.7781 22.242 27.6828 24.65 27.2765V22.95C24.65 22.4799 25.0308 22.1 25.5 22.1C25.9692 22.1 26.35 22.4799 26.35 22.95V27.2765C28.7581 27.6828 30.6 29.7781 30.6 32.3C30.6 34.822 28.7581 36.9172 26.35 37.3235V46.75C26.35 47.2201 25.9692 47.6 25.5 47.6C25.0308 47.6 24.65 47.2201 24.65 46.75ZM51 17.85V46.75C51 49.0935 49.0935 51 46.75 51H4.25C1.90655 51 0 49.0935 0 46.75V17.85C0 15.5066 1.90655 13.6 4.25 13.6H13.6C14.0692 13.6 14.45 13.9799 14.45 14.45C14.45 14.9201 14.0692 15.3 13.6 15.3H4.25C2.8441 15.3 1.7 16.4441 1.7 17.85V46.75C1.7 48.1559 2.8441 49.3 4.25 49.3H46.75C48.1559 49.3 49.3 48.1559 49.3 46.75V17.85C49.3 16.4441 48.1559 15.3 46.75 15.3H37.4C36.93 15.3 36.55 14.9201 36.55 14.45C36.55 13.9799 36.93 13.6 37.4 13.6H46.75C49.0935 13.6 51 15.5066 51 17.85Z" fill="black"/>
</svg>
