<svg width="31" height="31" viewBox="0 0 31 31" fill="none" xmlns="http://www.w3.org/2000/svg">
<rect x="0.320312" y="0.0707092" width="30.5657" height="30.5657" rx="2.14141" fill="#EDEFF6"/>
<path d="M15.6016 22.9161C15.6016 22.9161 7.00781 18.1036 7.00781 12.2598C7.00781 11.2267 7.36574 10.2256 8.02069 9.42667C8.67564 8.62775 9.58716 8.08043 10.6002 7.87783C11.6132 7.67523 12.6651 7.82986 13.5769 8.31542C14.4888 8.80097 15.2042 9.58745 15.6016 10.5411V10.5411C15.9989 9.58745 16.7143 8.80097 17.6262 8.31542C18.538 7.82986 19.59 7.67523 20.603 7.87783C21.616 8.08043 22.5275 8.62775 23.1824 9.42667C23.8374 10.2256 24.1953 11.2267 24.1953 12.2598C24.1953 18.1036 15.6016 22.9161 15.6016 22.9161Z" stroke="#BB0A21" stroke-width="1.38209" stroke-linecap="round" stroke-linejoin="round"/>
</svg>
