<svg width="48" height="35" viewBox="0 0 48 35" fill="none" xmlns="http://www.w3.org/2000/svg">
<path d="M48 0C47.1403 3.61905 46.2328 7.52381 45.2776 11.7143C44.3224 15.9048 43.4627 20 42.6985 24C41.9343 28 41.3134 31.6667 40.8358 35H27.2239L26.2209 33.4286C27.0806 30.0952 28.1791 26.5238 29.5164 22.7143C30.8537 18.8095 32.3343 14.9048 33.9582 11C35.5821 7.09524 37.1582 3.42857 38.6866 0H48ZM21.4925 0C20.6328 3.61905 19.7254 7.52381 18.7702 11.7143C17.8149 15.9048 16.9552 20 16.191 24C15.4269 28 14.806 31.6667 14.3284 35H0.859702L0 33.4286C0.859702 30.0952 1.95821 26.5238 3.29552 22.7143C4.63284 18.8095 6.06567 14.9048 7.59403 11C9.21791 7.09524 10.794 3.42857 12.3224 0H21.4925Z" fill="#505050"/>
</svg>
