<?xml version="1.0" standalone="no"?>
<!DOCTYPE svg PUBLIC "-//W3C//DTD SVG 20010904//EN"
 "http://www.w3.org/TR/2001/REC-SVG-20010904/DTD/svg10.dtd">
<svg version="1.0" xmlns="http://www.w3.org/2000/svg"
 width="343.000000pt" height="121.000000pt" viewBox="0 0 343.000000 121.000000"
 preserveAspectRatio="xMidYMid meet">

<g transform="translate(0.000000,121.000000) scale(0.100000,-0.100000)"
fill="#BB0A21" stroke="none">
<path d="M30 599 l0 -590 43 3 42 3 3 588 2 587 -45 0 -45 0 0 -591z"/>
<path d="M3310 599 l0 -590 43 3 42 3 3 588 2 587 -45 0 -45 0 0 -591z"/>
<path d="M868 883 c-3 -254 -4 -270 -25 -309 -30 -57 -79 -103 -133 -127 -36
-16 -73 -21 -182 -25 l-138 -5 0 -43 0 -44 129 0 c98 0 144 4 190 19 114 35
203 124 236 235 12 38 15 109 15 308 l0 258 -44 0 -45 0 -3 -267z"/>
<path d="M1602 1139 c-202 -40 -351 -245 -327 -451 15 -123 107 -253 222 -312
193 -97 436 -25 531 159 22 42 27 67 30 153 l4 102 -46 0 -46 0 0 -71 c0 -96
-15 -142 -67 -199 -58 -64 -122 -91 -219 -91 -123 0 -231 64 -284 168 -21 41
-25 62 -25 143 0 109 17 152 85 220 76 76 103 84 300 90 l175 5 0 45 0 45
-145 2 c-80 0 -164 -3 -188 -8z"/>
<path d="M2642 1110 c-11 -25 -74 -162 -140 -305 -187 -406 -212 -462 -212
-469 0 -3 22 -6 48 -6 l48 0 128 278 c70 152 133 287 140 300 11 21 23 0 151
-278 l138 -300 48 0 c27 0 49 2 49 5 0 6 -344 755 -365 795 l-13 25 -20 -45z"/>
<path d="M413 113 c12 -3 17 -15 17 -39 0 -29 -4 -34 -22 -34 -20 -1 -21 -2
-6 -10 30 -18 48 -1 48 46 0 42 -1 44 -27 43 -17 -1 -21 -3 -10 -6z"/>
<path d="M600 80 c-23 -45 -27 -75 -6 -47 17 22 52 22 65 0 16 -27 13 -4 -5
44 -9 24 -21 43 -25 43 -5 0 -18 -18 -29 -40z m40 -12 c0 -5 -7 -8 -15 -8 -17
0 -18 2 -9 25 5 13 8 14 15 3 5 -7 9 -16 9 -20z"/>
<path d="M802 73 c3 -46 4 -48 36 -51 18 -2 32 1 32 7 0 6 -11 11 -25 11 -22
0 -25 4 -25 40 0 22 -5 40 -11 40 -6 0 -9 -19 -7 -47z"/>
<path d="M1157 99 c-8 -11 -12 -29 -10 -40 12 -44 84 -49 82 -6 -1 17 -2 18
-6 5 -7 -26 -50 -23 -59 4 -8 26 21 51 49 42 13 -4 17 -2 13 5 -12 18 -54 12
-69 -10z"/>
<path d="M1370 68 c1 -46 2 -51 14 -35 16 21 35 22 42 2 4 -8 10 -15 16 -15 5
0 5 6 0 17 -7 11 -6 23 1 34 15 24 -7 49 -44 49 -28 0 -29 -1 -29 -52z m44 36
c23 -9 20 -34 -4 -34 -13 0 -20 7 -20 20 0 22 1 23 24 14z"/>
<path d="M1591 106 c-21 -25 -9 -69 21 -80 50 -17 89 42 52 78 -19 20 -58 21
-73 2z m62 -18 c14 -21 2 -48 -22 -48 -30 0 -45 34 -25 55 18 18 33 16 47 -7z"/>
<path d="M1810 86 c0 -51 34 -79 68 -57 17 10 29 91 14 91 -6 0 -12 -17 -14
-37 -2 -30 -7 -38 -23 -38 -16 0 -21 8 -23 38 -4 46 -22 49 -22 3z"/>
<path d="M2041 68 c1 -29 3 -45 6 -35 2 9 13 17 23 17 10 0 26 7 34 16 24 23
4 54 -34 54 -30 0 -30 -1 -29 -52z m48 33 c18 -11 5 -31 -20 -31 -18 0 -26 20
-12 33 8 9 15 9 32 -2z"/>
<path d="M2417 93 c-8 -16 -18 -39 -22 -53 -7 -24 -7 -24 12 -8 11 10 27 18
36 18 9 0 21 -8 26 -17 18 -32 13 11 -6 52 -20 42 -28 44 -46 8z m33 -24 c0
-5 -7 -9 -15 -9 -9 0 -12 6 -9 15 6 15 24 11 24 -6z"/>
<path d="M2613 103 c-4 -10 0 -21 11 -27 51 -31 53 -35 16 -36 -29 -1 -32 -2
-17 -11 24 -14 57 -2 57 21 0 13 -9 22 -25 26 -31 8 -27 30 4 27 13 -2 20 1
16 7 -10 16 -55 11 -62 -7z"/>
<path d="M2823 70 c0 -30 2 -43 4 -28 2 16 2 40 0 55 -2 16 -4 3 -4 -27z"/>
<path d="M2982 74 c-22 -44 -22 -79 -1 -41 12 21 42 22 59 2 7 -9 15 -14 17
-12 5 6 -37 97 -45 97 -5 0 -18 -21 -30 -46z m42 1 c4 -10 -1 -15 -14 -15 -13
0 -18 5 -14 15 4 8 10 15 14 15 4 0 10 -7 14 -15z"/>
</g>
</svg>
