<svg width="32" height="32" viewBox="0 0 32 32" fill="none" xmlns="http://www.w3.org/2000/svg">
<rect width="32" height="32" rx="4" fill="#F6F6F9" fill-opacity="0.11"/>
<path fill-rule="evenodd" clip-rule="evenodd" d="M7 13C7 12.4477 7.44772 12 8 12H24C24.5523 12 25 12.4477 25 13C25 13.5523 24.5523 14 24 14H8C7.44772 14 7 13.5523 7 13Z" fill="#F6F6F9"/>
<path fill-rule="evenodd" clip-rule="evenodd" d="M15 19C15 18.4477 15.4477 18 16 18H24C24.5523 18 25 18.4477 25 19C25 19.5523 24.5523 20 24 20H16C15.4477 20 15 19.5523 15 19Z" fill="#F6F6F9"/>
</svg>
