<svg width="401" height="702" viewBox="0 0 401 702" fill="none" xmlns="http://www.w3.org/2000/svg">
<path d="M379.35 0.00137748C379.35 0.00137748 383.4 5.38492 390 6.93019C396.65 8.47546 400.95 14.2079 400.95 14.2079" stroke="url(#paint0_linear_762_3785)" stroke-opacity="0.2" stroke-width="0.8" stroke-miterlimit="10"/>
<path d="M361.35 6.00561e-05C361.35 6.00561e-05 367.05 18.4437 381.4 23.3287C395.35 28.0144 401 46.9564 401 46.9564" stroke="url(#paint1_linear_762_3785)" stroke-opacity="0.2" stroke-width="0.8" stroke-miterlimit="10"/>
<path d="M343.35 0.00183119C343.35 0.00183119 350.7 31.5054 372.75 39.6804C394 47.6062 401 79.708 401 79.708" stroke="url(#paint2_linear_762_3785)" stroke-opacity="0.2" stroke-width="0.8" stroke-miterlimit="10"/>
<path d="M325.3 0.00211087C325.3 0.00211087 334.35 44.5159 364.1 56.0806C392.65 67.0968 401 112.458 401 112.458" stroke="url(#paint3_linear_762_3785)" stroke-opacity="0.2" stroke-width="0.8" stroke-miterlimit="10"/>
<path d="M307.3 0.000332753C307.3 0.000332753 318 57.5742 355.45 72.4288C391.35 86.6353 401 145.156 401 145.156" stroke="url(#paint4_linear_762_3785)" stroke-opacity="0.2" stroke-width="0.8" stroke-miterlimit="10"/>
<path d="M289.25 0.00213159C289.25 0.00213159 301.6 70.6361 346.8 88.8304C390 106.227 401 177.908 401 177.908" stroke="url(#paint5_linear_762_3785)" stroke-opacity="0.2" stroke-width="0.8" stroke-miterlimit="10"/>
<path d="M271.25 0.000405788C271.25 0.000405788 285.3 83.6445 338.15 105.179C388.65 125.716 401 210.606 401 210.606" stroke="url(#paint6_linear_762_3785)" stroke-opacity="0.2" stroke-width="0.8" stroke-miterlimit="10"/>
<path d="M253.25 0.0010436C253.25 0.0010436 268.95 96.7052 329.55 121.579C387.35 145.307 401 243.406 401 243.406" stroke="url(#paint7_linear_762_3785)" stroke-opacity="0.2" stroke-width="0.8" stroke-miterlimit="10"/>
<path d="M235.2 0.00124043C235.2 0.00124043 252.55 109.765 320.85 137.979C386 164.847 401 276.156 401 276.156" stroke="url(#paint8_linear_762_3785)" stroke-opacity="0.2" stroke-width="0.8" stroke-miterlimit="10"/>
<path d="M217.2 -7.92966e-06C217.2 -7.92966e-06 236.2 122.774 312.25 154.328C384.649 184.386 400.999 308.905 400.999 308.905" stroke="url(#paint9_linear_762_3785)" stroke-opacity="0.2" stroke-width="0.8" stroke-miterlimit="10"/>
<path d="M199.2 0.00134296C199.2 0.00134296 219.9 135.836 303.6 170.729C383.35 203.927 401 341.606 401 341.606" stroke="url(#paint10_linear_762_3785)" stroke-opacity="0.2" stroke-width="0.8" stroke-miterlimit="10"/>
<path d="M181.15 0.00157312C181.15 0.00157312 203.5 148.896 294.95 187.079C382 223.468 401 374.356 401 374.356" stroke="url(#paint11_linear_762_3785)" stroke-opacity="0.2" stroke-width="0.8" stroke-miterlimit="10"/>
<path d="M163.15 0.000330318C163.15 0.000330318 187.15 161.905 286.3 203.478C380.7 243.007 401 407.105 401 407.105" stroke="url(#paint12_linear_762_3785)" stroke-opacity="0.2" stroke-width="0.8" stroke-miterlimit="10"/>
<path d="M145.15 0.00205196C145.15 0.00205196 170.8 174.967 277.65 219.83C379.35 262.549 401 439.856 401 439.856" stroke="url(#paint13_linear_762_3785)" stroke-opacity="0.2" stroke-width="0.8" stroke-miterlimit="10"/>
<path d="M127.1 0.000367403C127.1 0.000367403 154.45 188.025 269 236.228C378 282.087 401 472.555 401 472.555" stroke="url(#paint14_linear_762_3785)" stroke-opacity="0.2" stroke-width="0.8" stroke-miterlimit="10"/>
<path d="M109.1 0.000570295C109.1 0.000570295 138.1 201.036 260.35 252.578C376.7 301.628 401 505.305 401 505.305" stroke="url(#paint15_linear_762_3785)" stroke-opacity="0.2" stroke-width="0.8" stroke-miterlimit="10"/>
<path d="M91.1 0.00235377C91.1 0.00235377 121.75 214.097 251.75 268.979C375.35 321.17 401 538.056 401 538.056" stroke="url(#paint16_linear_762_3785)" stroke-opacity="0.2" stroke-width="0.8" stroke-miterlimit="10"/>
<path d="M73.0498 0.00252804C73.0498 0.00252804 105.4 227.158 243.05 285.38C374 340.71 401 570.806 401 570.806" stroke="url(#paint17_linear_762_3785)" stroke-opacity="0.2" stroke-width="0.8" stroke-miterlimit="10"/>
<path d="M55.0498 0.001241C55.0498 0.001241 89.0498 240.167 234.45 301.728C372.7 360.249 401 603.555 401 603.555" stroke="url(#paint18_linear_762_3785)" stroke-opacity="0.2" stroke-width="0.8" stroke-miterlimit="10"/>
<path d="M37.0501 0.00264303C37.0501 0.00264303 72.7001 253.228 225.8 318.129C371.35 379.791 401 636.256 401 636.256" stroke="url(#paint19_linear_762_3785)" stroke-opacity="0.2" stroke-width="0.8" stroke-miterlimit="10"/>
<path d="M19.0001 0.00287991C19.0001 0.00287991 56.3001 266.288 217.15 334.48C370 399.381 401 669.006 401 669.006" stroke="url(#paint20_linear_762_3785)" stroke-opacity="0.2" stroke-width="0.8" stroke-miterlimit="10"/>
<path d="M1 0.00152614C1 0.00152614 40 279.297 208.5 350.878C368.7 418.92 401 701.755 401 701.755" stroke="url(#paint21_linear_762_3785)" stroke-opacity="0.2" stroke-width="0.8" stroke-miterlimit="10"/>
<defs>
<linearGradient id="paint0_linear_762_3785" x1="379.35" y1="7.10465" x2="400.95" y2="7.10465" gradientUnits="userSpaceOnUse">
<stop stop-color="white"/>
<stop offset="1" stop-color="white" stop-opacity="0.2"/>
</linearGradient>
<linearGradient id="paint1_linear_762_3785" x1="361.35" y1="23.4783" x2="401" y2="23.4783" gradientUnits="userSpaceOnUse">
<stop stop-color="white"/>
<stop offset="1" stop-color="white" stop-opacity="0.2"/>
</linearGradient>
<linearGradient id="paint2_linear_762_3785" x1="343.35" y1="39.8549" x2="401" y2="39.8549" gradientUnits="userSpaceOnUse">
<stop stop-color="white"/>
<stop offset="1" stop-color="white" stop-opacity="0.2"/>
</linearGradient>
<linearGradient id="paint3_linear_762_3785" x1="325.3" y1="56.2301" x2="401" y2="56.2301" gradientUnits="userSpaceOnUse">
<stop stop-color="white"/>
<stop offset="1" stop-color="white" stop-opacity="0.2"/>
</linearGradient>
<linearGradient id="paint4_linear_762_3785" x1="307.3" y1="72.5783" x2="401" y2="72.5783" gradientUnits="userSpaceOnUse">
<stop stop-color="white"/>
<stop offset="1" stop-color="white" stop-opacity="0.2"/>
</linearGradient>
<linearGradient id="paint5_linear_762_3785" x1="289.25" y1="88.955" x2="401" y2="88.955" gradientUnits="userSpaceOnUse">
<stop stop-color="white"/>
<stop offset="1" stop-color="white" stop-opacity="0.2"/>
</linearGradient>
<linearGradient id="paint6_linear_762_3785" x1="271.25" y1="105.303" x2="401" y2="105.303" gradientUnits="userSpaceOnUse">
<stop stop-color="white"/>
<stop offset="1" stop-color="white" stop-opacity="0.2"/>
</linearGradient>
<linearGradient id="paint7_linear_762_3785" x1="253.25" y1="121.704" x2="401" y2="121.704" gradientUnits="userSpaceOnUse">
<stop stop-color="white"/>
<stop offset="1" stop-color="white" stop-opacity="0.2"/>
</linearGradient>
<linearGradient id="paint8_linear_762_3785" x1="235.2" y1="138.079" x2="401" y2="138.079" gradientUnits="userSpaceOnUse">
<stop stop-color="white"/>
<stop offset="1" stop-color="white" stop-opacity="0.2"/>
</linearGradient>
<linearGradient id="paint9_linear_762_3785" x1="217.2" y1="154.452" x2="400.999" y2="154.452" gradientUnits="userSpaceOnUse">
<stop stop-color="white"/>
<stop offset="1" stop-color="white" stop-opacity="0.2"/>
</linearGradient>
<linearGradient id="paint10_linear_762_3785" x1="199.2" y1="170.804" x2="401" y2="170.804" gradientUnits="userSpaceOnUse">
<stop stop-color="white"/>
<stop offset="1" stop-color="white" stop-opacity="0.2"/>
</linearGradient>
<linearGradient id="paint11_linear_762_3785" x1="181.15" y1="187.179" x2="401" y2="187.179" gradientUnits="userSpaceOnUse">
<stop stop-color="white"/>
<stop offset="1" stop-color="white" stop-opacity="0.2"/>
</linearGradient>
<linearGradient id="paint12_linear_762_3785" x1="163.15" y1="203.553" x2="401" y2="203.553" gradientUnits="userSpaceOnUse">
<stop stop-color="white"/>
<stop offset="1" stop-color="white" stop-opacity="0.2"/>
</linearGradient>
<linearGradient id="paint13_linear_762_3785" x1="145.15" y1="219.929" x2="401" y2="219.929" gradientUnits="userSpaceOnUse">
<stop stop-color="white"/>
<stop offset="1" stop-color="white" stop-opacity="0.2"/>
</linearGradient>
<linearGradient id="paint14_linear_762_3785" x1="127.1" y1="236.278" x2="401" y2="236.278" gradientUnits="userSpaceOnUse">
<stop stop-color="white"/>
<stop offset="1" stop-color="white" stop-opacity="0.2"/>
</linearGradient>
<linearGradient id="paint15_linear_762_3785" x1="109.1" y1="252.653" x2="401" y2="252.653" gradientUnits="userSpaceOnUse">
<stop stop-color="white"/>
<stop offset="1" stop-color="white" stop-opacity="0.2"/>
</linearGradient>
<linearGradient id="paint16_linear_762_3785" x1="91.1" y1="269.029" x2="401" y2="269.029" gradientUnits="userSpaceOnUse">
<stop stop-color="white"/>
<stop offset="1" stop-color="white" stop-opacity="0.2"/>
</linearGradient>
<linearGradient id="paint17_linear_762_3785" x1="73.0498" y1="285.404" x2="401" y2="285.404" gradientUnits="userSpaceOnUse">
<stop stop-color="white"/>
<stop offset="1" stop-color="white" stop-opacity="0.2"/>
</linearGradient>
<linearGradient id="paint18_linear_762_3785" x1="55.0499" y1="301.778" x2="401" y2="301.778" gradientUnits="userSpaceOnUse">
<stop stop-color="white"/>
<stop offset="1" stop-color="white" stop-opacity="0.2"/>
</linearGradient>
<linearGradient id="paint19_linear_762_3785" x1="37.0502" y1="318.129" x2="401" y2="318.129" gradientUnits="userSpaceOnUse">
<stop stop-color="white"/>
<stop offset="1" stop-color="white" stop-opacity="0.2"/>
</linearGradient>
<linearGradient id="paint20_linear_762_3785" x1="19.0001" y1="334.505" x2="401" y2="334.505" gradientUnits="userSpaceOnUse">
<stop stop-color="white"/>
<stop offset="1" stop-color="white" stop-opacity="0.2"/>
</linearGradient>
<linearGradient id="paint21_linear_762_3785" x1="1.00002" y1="350.878" x2="401" y2="350.878" gradientUnits="userSpaceOnUse">
<stop stop-color="white"/>
<stop offset="1" stop-color="white" stop-opacity="0.2"/>
</linearGradient>
</defs>
</svg>
