<svg width="36" height="36" viewBox="0 0 36 36" fill="none" xmlns="http://www.w3.org/2000/svg">
<g id="bank-note-03">
<path id="Icon" d="M21 13.5H17.25C16.0074 13.5 15 14.5074 15 15.75C15 16.9926 16.0074 18 17.25 18H18.75C19.9926 18 21 19.0074 21 20.25C21 21.4926 19.9926 22.5 18.75 22.5H15M18 12V13.5M18 22.5V24M27 18H27.015M9 18H9.015M3 12.3L3 23.7C3 25.3802 3 26.2202 3.32698 26.862C3.6146 27.4265 4.07354 27.8854 4.63803 28.173C5.27976 28.5 6.11984 28.5 7.8 28.5L28.2 28.5C29.8802 28.5 30.7202 28.5 31.362 28.173C31.9265 27.8854 32.3854 27.4265 32.673 26.862C33 26.2202 33 25.3802 33 23.7V12.3C33 10.6198 33 9.77977 32.673 9.13803C32.3854 8.57354 31.9265 8.1146 31.362 7.82698C30.7202 7.5 29.8802 7.5 28.2 7.5L7.8 7.5C6.11984 7.5 5.27976 7.5 4.63803 7.82698C4.07354 8.1146 3.6146 8.57354 3.32698 9.13803C3 9.77976 3 10.6198 3 12.3ZM27.75 18C27.75 18.4142 27.4142 18.75 27 18.75C26.5858 18.75 26.25 18.4142 26.25 18C26.25 17.5858 26.5858 17.25 27 17.25C27.4142 17.25 27.75 17.5858 27.75 18ZM9.75 18C9.75 18.4142 9.41421 18.75 9 18.75C8.58579 18.75 8.25 18.4142 8.25 18C8.25 17.5858 8.58579 17.25 9 17.25C9.41421 17.25 9.75 17.5858 9.75 18Z" stroke="black" stroke-width="2" stroke-linecap="round" stroke-linejoin="round"/>
</g>
</svg>
