<svg width="70" height="70" viewBox="0 0 70 70" fill="none" xmlns="http://www.w3.org/2000/svg">
<path d="M40.474 23.415V25.347C40.474 25.5327 40.4003 25.7107 40.269 25.842C40.1377 25.9733 39.9597 26.047 39.774 26.047H36.659V29.169C36.659 29.3547 36.5852 29.5327 36.454 29.664C36.3227 29.7953 36.1447 29.869 35.959 29.869H34.034C33.8483 29.869 33.6703 29.7953 33.539 29.664C33.4077 29.5327 33.334 29.3547 33.334 29.169V26.04H30.226C30.0403 26.04 29.8623 25.9663 29.731 25.835C29.5997 25.7037 29.526 25.5257 29.526 25.34V23.415C29.5277 23.2843 29.566 23.1566 29.6365 23.0465C29.707 22.9364 29.8069 22.8482 29.925 22.792C30.0181 22.7443 30.1214 22.7203 30.226 22.722H33.341V19.6C33.341 19.4144 33.4147 19.2363 33.546 19.105C33.6773 18.9738 33.8553 18.9 34.041 18.9H35.973C36.1587 18.9 36.3367 18.9738 36.468 19.105C36.5992 19.2363 36.673 19.4144 36.673 19.6V22.715H39.788C39.8926 22.7133 39.9959 22.7373 40.089 22.785C40.2055 22.8437 40.3033 22.9338 40.3713 23.0451C40.4393 23.1565 40.4749 23.2846 40.474 23.415Z" stroke="black" stroke-width="2" stroke-linecap="round" stroke-linejoin="round"/>
<path d="M42.63 22.792C42.2642 21.04 41.3063 19.4674 39.9174 18.3385C38.5285 17.2097 36.7933 16.5935 35.0035 16.5935C33.2137 16.5935 31.4785 17.2097 30.0896 18.3385C28.7007 19.4674 27.7428 21.04 27.377 22.792H10.815V32.2H59.185V22.792H42.63ZM40.474 25.347C40.474 25.5326 40.4003 25.7107 40.269 25.8419C40.1377 25.9732 39.9597 26.047 39.774 26.047H36.659V29.169C36.659 29.3546 36.5852 29.5327 36.454 29.6639C36.3227 29.7952 36.1447 29.869 35.959 29.869H34.034C33.8483 29.869 33.6703 29.7952 33.539 29.6639C33.4077 29.5327 33.334 29.3546 33.334 29.169V26.04H30.226C30.0403 26.04 29.8623 25.9662 29.731 25.8349C29.5997 25.7037 29.526 25.5256 29.526 25.34V23.415C29.5277 23.2842 29.566 23.1566 29.6365 23.0464C29.707 22.9363 29.8069 22.8482 29.925 22.792C30.0181 22.7443 30.1214 22.7202 30.226 22.722H33.341V19.6C33.341 19.4143 33.4147 19.2363 33.546 19.105C33.6773 18.9737 33.8553 18.9 34.041 18.9H35.973C36.1587 18.9 36.3367 18.9737 36.468 19.105C36.5993 19.2363 36.673 19.4143 36.673 19.6V22.715H39.788C39.8926 22.7132 39.9959 22.7373 40.089 22.785C40.2071 22.8412 40.307 22.9293 40.3775 23.0395C40.448 23.1496 40.4863 23.2772 40.488 23.408L40.474 25.347Z" stroke="black" stroke-width="2" stroke-linecap="round" stroke-linejoin="round"/>
<path d="M40.474 23.415V25.347C40.474 25.5327 40.4003 25.7107 40.269 25.842C40.1377 25.9733 39.9597 26.047 39.774 26.047H36.659V29.169C36.659 29.3547 36.5852 29.5327 36.454 29.664C36.3227 29.7953 36.1447 29.869 35.959 29.869H34.034C33.8483 29.869 33.6703 29.7953 33.539 29.664C33.4077 29.5327 33.334 29.3547 33.334 29.169V26.04H30.226C30.0403 26.04 29.8623 25.9663 29.731 25.835C29.5997 25.7037 29.526 25.5257 29.526 25.34V23.415C29.5277 23.2843 29.566 23.1566 29.6365 23.0465C29.707 22.9364 29.8069 22.8482 29.925 22.792C30.0181 22.7443 30.1214 22.7203 30.226 22.722H33.341V19.6C33.341 19.4144 33.4147 19.2363 33.546 19.105C33.6773 18.9738 33.8553 18.9 34.041 18.9H35.973C36.1587 18.9 36.3367 18.9738 36.468 19.105C36.5992 19.2363 36.673 19.4144 36.673 19.6V22.715H39.788C39.8926 22.7133 39.9959 22.7373 40.089 22.785C40.2055 22.8437 40.3033 22.9338 40.3713 23.0451C40.4393 23.1565 40.4749 23.2846 40.474 23.415Z" stroke="black" stroke-width="2" stroke-linecap="round" stroke-linejoin="round"/>
<path d="M54.425 13.426V22.792H42.63C42.2642 21.04 41.3063 19.4674 39.9174 18.3386C38.5285 17.2098 36.7933 16.5936 35.0035 16.5936C33.2137 16.5936 31.4785 17.2098 30.0896 18.3386C28.7007 19.4674 27.7428 21.04 27.377 22.792H15.582V13.426H54.425Z" stroke="black" stroke-width="2" stroke-linecap="round" stroke-linejoin="round"/>
<path d="M54.425 32.179H15.582V52.423H54.425V32.179Z" stroke="black" stroke-width="2" stroke-linecap="round" stroke-linejoin="round"/>
<path d="M59.178 52.423H10.815V56.574H59.178V52.423Z" stroke="black" stroke-width="2" stroke-linecap="round" stroke-linejoin="round"/>
<path d="M40.166 36.057H29.834V52.423H40.166V36.057Z" stroke="black" stroke-width="2" stroke-linecap="round" stroke-linejoin="round"/>
<path d="M35.007 36.057V52.423" stroke="black" stroke-width="2" stroke-linecap="round" stroke-linejoin="round"/>
<path d="M26.803 36.057H18.62V44.24H26.803V36.057Z" stroke="black" stroke-width="2" stroke-linecap="round" stroke-linejoin="round"/>
<path d="M43.1455 44.1932L51.3285 44.1113L51.2467 35.9283L43.0637 36.0102L43.1455 44.1932Z" stroke="black" stroke-width="2" stroke-linecap="round" stroke-linejoin="round"/>
</svg>
