<svg width="46" height="40" viewBox="0 0 46 40" fill="none" xmlns="http://www.w3.org/2000/svg">
<g opacity="0.2">
<path d="M44.3919 20.2879H38.4183V23.1113C38.4183 28.7017 40.9442 33.8332 45.3096 37.2915C45.3679 37.2915 45.3679 37.35 45.424 37.4063V37.4648C45.9983 37.9827 46.1126 38.791 45.5967 39.4236C45.3096 39.7703 44.7936 40 44.3338 39.9415C44.2754 39.9415 44.2194 40 44.161 40C33.8241 38.8472 25.7257 29.5104 25.7257 18.7885L25.728 1.55577C25.728 0.6912 26.4166 0 27.278 0H44.4477C45.3091 0 45.9977 0.6912 45.9977 1.55577L46 18.7885C45.9417 19.5968 45.2533 20.2879 44.3919 20.2879Z" fill="#F6F6F9"/>
<path d="M18.7225 20.2879H12.6926V23.1113C12.6926 28.7017 15.2185 33.8332 19.5839 37.2915C19.6422 37.2915 19.6422 37.35 19.6422 37.4063C19.7005 37.4063 19.7005 37.4063 19.7005 37.4648C20.2165 37.9827 20.3331 38.791 19.8732 39.4236C19.5278 39.7703 19.0702 40 18.6103 39.9415C18.552 39.9415 18.4959 40 18.4376 40C8.10065 38.8472 0.00224271 29.5104 0.00224271 18.7885L0 1.55577C0 0.6912 0.688669 0 1.55008 0H18.7197C19.5811 0 20.2698 0.6912 20.2698 1.55577L20.272 18.7885C20.2137 19.5968 19.5255 20.2879 18.7225 20.2879Z" fill="#F6F6F9"/>
</g>
</svg>
