<svg width="744" height="344" viewBox="0 0 744 344" fill="none" xmlns="http://www.w3.org/2000/svg">
<g opacity="0.5">
<path fill-rule="evenodd" clip-rule="evenodd" d="M27.9319 -272.636L6.97018 -183.221L-55.4435 -115.844L-76.4064 -26.4259L-138.819 40.9492L-159.781 130.364L-222.194 197.742L-243.157 287.158L-305.571 354.535L-326.531 443.949L-388.945 511.326L-409.908 600.744L-472.133 667.918L-470.646 669.324L-408.039 601.738L-387.076 512.32L-324.662 444.943L-303.701 355.529L-241.288 288.152L-220.325 198.735L-157.912 131.358L-136.95 41.943L-74.5373 -25.432L-53.5731 -114.851L8.83932 -182.227L29.8011 -271.642L92.2136 -339.018L113.242 -428.711L111.243 -429.156L90.3444 -340.012L27.9319 -272.636Z" fill="url(#paint0_linear_729_3035)"/>
<path fill-rule="evenodd" clip-rule="evenodd" d="M22.6144 -174.903L-39.7981 -107.528L-60.7622 -18.1085L-123.175 49.2666L-144.136 138.681L-206.55 206.058L-227.513 295.475L-289.926 362.851L-310.887 452.266L-373.3 519.643L-394.264 609.06L-456.488 676.234L-455 677.641L-392.395 610.054L-371.431 520.637L-309.018 453.26L-288.056 363.845L-225.644 296.469L-204.68 207.052L-142.267 139.675L-121.306 50.2604L-58.8931 -17.1158L-37.9289 -106.534L24.4835 -173.91L45.4453 -263.324L107.859 -330.702L128.887 -420.394L126.888 -420.839L105.99 -331.695L43.5761 -264.318L22.6144 -174.903Z" fill="url(#paint1_linear_729_3035)"/>
<path fill-rule="evenodd" clip-rule="evenodd" d="M36.519 -167.511L-25.8934 -100.136L-46.8576 -10.7164L-109.27 56.6587L-130.232 146.075L-192.646 213.45L-213.608 302.868L-276.022 370.244L-296.983 459.659L-359.396 527.035L-380.359 616.453L-442.584 683.627L-441.096 685.034L-378.49 617.447L-357.526 528.029L-295.114 460.652L-274.152 371.239L-211.739 303.861L-190.775 214.445L-128.364 147.067L-107.401 57.6526L-44.9884 -9.72253L-24.0243 -99.1411L38.3882 -166.517L59.3499 -255.931L121.762 -323.309L142.792 -413.001L140.792 -413.447L119.893 -324.303L57.4796 -256.925L36.519 -167.511Z" fill="url(#paint2_linear_729_3035)"/>
<path fill-rule="evenodd" clip-rule="evenodd" d="M52.1581 -159.194L-10.2532 -91.8192L-31.2173 -2.40063L-93.6298 64.9757L-114.593 154.391L-177.005 221.767L-197.968 311.184L-260.381 378.561L-281.342 467.974L-343.756 535.352L-364.72 624.769L-426.943 691.943L-425.455 693.35L-362.85 625.763L-341.886 536.346L-279.473 468.969L-258.512 379.554L-196.099 312.178L-175.135 222.761L-112.722 155.384L-91.7607 65.9695L-29.3482 -1.40677L-8.38406 -90.8253L54.0284 -158.2L74.9901 -247.615L137.404 -314.992L158.432 -404.685L156.433 -405.13L135.534 -315.987L73.121 -248.609L52.1581 -159.194Z" fill="url(#paint3_linear_729_3035)"/>
<path fill-rule="evenodd" clip-rule="evenodd" d="M66.0639 -151.802L3.65137 -84.4268L-17.3128 4.9917L-79.724 72.368L-100.687 161.783L-163.099 229.159L-184.064 318.577L-246.476 385.953L-267.438 475.368L-329.85 542.744L-350.814 632.161L-413.037 699.337L-411.55 700.743L-348.944 633.155L-327.98 543.738L-265.567 476.362L-244.606 386.947L-182.193 319.57L-161.23 230.153L-98.8179 162.777L-77.8549 73.3619L-15.4424 5.98557L5.52173 -83.433L67.9342 -150.808L88.8959 -240.223L151.308 -307.601L172.338 -397.292L170.339 -397.737L149.439 -308.594L87.0256 -241.217L66.0639 -151.802Z" fill="url(#paint4_linear_729_3035)"/>
<path fill-rule="evenodd" clip-rule="evenodd" d="M81.7061 -143.486L19.2948 -76.1097L-1.66934 13.3088L-64.0818 80.6852L-85.0448 170.1L-147.457 237.476L-168.42 326.894L-230.833 394.27L-251.796 483.684L-314.208 551.061L-335.171 640.479L-397.395 707.654L-395.907 709.06L-333.302 641.472L-312.338 552.055L-249.925 484.678L-228.964 395.264L-166.551 327.888L-145.587 238.47L-83.1744 171.094L-62.2127 81.679L0.199799 14.3027L21.1639 -75.1158L83.5764 -142.491L104.538 -231.906L166.952 -299.283L187.98 -388.975L185.981 -389.42L165.081 -300.277L102.669 -232.9L81.7061 -143.486Z" fill="url(#paint5_linear_729_3035)"/>
<path fill-rule="evenodd" clip-rule="evenodd" d="M95.6117 -136.093L33.1992 -68.7177L12.235 20.7008L-50.1762 88.0771L-71.1392 177.492L-133.552 244.868L-154.516 334.286L-216.928 401.662L-237.89 491.076L-300.302 558.453L-321.267 647.87L-383.49 715.044L-382.003 716.452L-319.396 648.864L-298.433 559.446L-236.02 492.071L-215.059 402.656L-152.645 335.28L-131.683 245.862L-69.27 178.486L-48.3083 89.0698L14.1054 21.6947L35.0683 -67.7238L97.482 -135.099L118.443 -224.514L180.856 -291.891L201.885 -381.584L199.886 -382.029L178.987 -292.885L116.573 -225.508L95.6117 -136.093Z" fill="url(#paint6_linear_729_3035)"/>
<path fill-rule="evenodd" clip-rule="evenodd" d="M109.516 -128.7L47.1039 -61.3252L26.1397 28.0946L-36.2728 95.4697L-57.2345 184.885L-119.647 252.261L-140.611 341.678L-203.024 409.055L-223.985 498.47L-286.398 565.846L-307.362 655.263L-369.586 722.438L-368.099 723.844L-305.493 656.258L-284.529 566.84L-222.116 499.463L-201.154 410.048L-138.741 342.672L-117.779 253.255L-55.3653 185.878L-34.4036 96.4636L28.0089 29.0885L48.973 -60.3313L111.385 -127.706L132.347 -217.121L194.761 -284.498L215.789 -374.191L213.79 -374.636L192.891 -285.493L130.478 -218.114L109.516 -128.7Z" fill="url(#paint7_linear_729_3035)"/>
<path fill-rule="evenodd" clip-rule="evenodd" d="M125.159 -120.383L62.7461 -53.0081L41.782 36.4104L-20.6294 103.787L-41.5923 193.202L-104.005 260.578L-124.969 349.995L-187.381 417.372L-208.343 506.785L-270.756 574.163L-291.72 663.58L-353.943 730.754L-352.456 732.161L-289.849 664.574L-268.886 575.156L-206.473 507.78L-185.512 418.365L-123.099 350.989L-102.136 261.572L-39.7231 194.196L-18.7614 104.779L43.6523 37.4043L64.6152 -52.0143L127.029 -119.389L147.989 -208.804L210.403 -276.182L231.432 -365.874L229.433 -366.319L208.534 -277.176L146.12 -209.798L125.159 -120.383Z" fill="url(#paint8_linear_729_3035)"/>
<path fill-rule="evenodd" clip-rule="evenodd" d="M139.065 -112.991L76.6521 -45.6158L55.6891 43.8039L-6.72455 111.179L-27.6863 200.594L-90.0987 267.97L-111.062 357.388L-173.475 424.764L-194.436 514.179L-256.85 581.555L-277.813 670.974L-340.037 738.146L-338.551 739.554L-275.945 671.966L-254.98 582.548L-192.568 515.173L-171.606 425.758L-109.193 358.382L-88.2308 268.964L-25.8172 201.588L-4.85538 112.173L57.5571 44.7966L78.5212 -44.6219L140.934 -111.997L161.895 -201.412L224.309 -268.789L245.337 -358.482L243.339 -358.927L222.44 -269.782L160.026 -202.406L139.065 -112.991Z" fill="url(#paint9_linear_729_3035)"/>
<path fill-rule="evenodd" clip-rule="evenodd" d="M154.706 -104.674L92.2927 -37.2992L71.3298 52.1194L8.9173 119.496L-12.0444 208.911L-74.4581 276.287L-95.4211 365.704L-157.835 433.081L-178.795 522.495L-241.209 589.872L-262.172 679.289L-324.396 746.463L-322.909 747.87L-260.303 680.283L-239.339 590.866L-176.926 523.488L-155.964 434.074L-93.5519 366.698L-72.589 277.281L-10.1765 209.905L10.7865 120.49L73.1989 53.1133L94.1631 -36.3053L156.576 -103.68L177.537 -193.095L239.95 -260.473L260.978 -350.165L258.979 -350.61L238.081 -261.467L175.667 -194.089L154.706 -104.674Z" fill="url(#paint10_linear_729_3035)"/>
<path fill-rule="evenodd" clip-rule="evenodd" d="M168.611 -97.2818L106.199 -29.9067L85.2348 59.5131L22.8224 126.888L1.8606 216.303L-60.5519 283.679L-81.5148 373.097L-143.929 440.473L-164.89 529.888L-227.303 597.264L-248.266 686.682L-310.49 753.855L-309.004 755.263L-246.398 687.675L-225.434 598.258L-163.021 530.882L-142.058 441.467L-79.6457 374.091L-58.6827 284.673L3.72971 217.297L24.6927 127.882L87.104 60.5057L108.069 -28.9128L170.481 -96.2879L191.443 -185.703L253.856 -253.08L274.884 -342.773L272.886 -343.218L251.987 -254.073L189.573 -186.697L168.611 -97.2818Z" fill="url(#paint11_linear_729_3035)"/>
<path fill-rule="evenodd" clip-rule="evenodd" d="M184.253 -88.9649L121.84 -21.5898L100.877 67.8287L38.4642 135.204L17.5025 224.62L-44.9112 291.996L-65.8742 381.414L-128.288 448.79L-149.248 538.204L-211.662 605.58L-232.625 694.999L-294.85 762.172L-293.362 763.58L-230.756 695.992L-209.792 606.574L-147.379 539.198L-126.417 449.784L-64.0051 382.407L-43.0421 292.99L19.3704 225.614L40.3333 136.198L102.746 68.8226L123.71 -20.5959L186.121 -87.9722L207.084 -177.386L269.497 -244.763L290.526 -334.456L288.526 -334.901L267.627 -245.757L205.214 -178.38L184.253 -88.9649Z" fill="url(#paint12_linear_729_3035)"/>
<path fill-rule="evenodd" clip-rule="evenodd" d="M198.16 -81.5727L135.747 -14.1976L114.784 75.2222L52.3704 142.597L31.4087 232.012L-31.0038 299.388L-51.9667 388.806L-114.38 456.182L-135.342 545.597L-197.755 612.973L-218.718 702.391L-280.943 769.565L-279.455 770.972L-216.85 703.385L-195.885 613.967L-133.473 546.591L-112.51 457.176L-50.0976 389.8L-29.1347 300.382L33.2779 233.006L54.2408 143.591L116.652 76.2148L137.617 -13.2037L200.029 -80.5788L220.99 -169.994L283.404 -237.371L304.432 -327.063L302.434 -327.509L281.535 -238.365L219.121 -170.988L198.16 -81.5727Z" fill="url(#paint13_linear_729_3035)"/>
<path fill-rule="evenodd" clip-rule="evenodd" d="M213.801 -73.2565L151.388 -5.88025L130.424 83.5383L68.013 150.913L47.05 240.328L-15.3624 307.706L-36.3266 397.122L-98.7391 464.499L-119.701 553.913L-182.113 621.289L-203.077 710.708L-265.301 777.882L-263.813 779.289L-201.207 711.702L-180.244 622.283L-117.83 554.907L-96.8687 465.493L-34.4562 398.116L-13.4933 308.7L48.9192 241.323L69.8821 151.907L132.295 84.5322L153.259 -4.88638L215.67 -72.2627L236.633 -161.676L299.045 -229.054L320.074 -318.746L318.075 -319.192L297.176 -230.048L234.763 -162.67L213.801 -73.2565Z" fill="url(#paint14_linear_729_3035)"/>
<path fill-rule="evenodd" clip-rule="evenodd" d="M227.705 -65.8644L165.293 1.51187L144.329 90.9305L81.9161 158.307L60.9544 247.722L-1.45811 315.098L-22.4223 404.515L-84.8347 471.892L-105.796 561.305L-168.209 628.683L-189.173 718.1L-251.396 785.28L-249.909 786.686L-187.304 719.094L-166.34 629.677L-103.927 562.299L-82.9644 472.885L-20.5519 405.509L0.411011 316.092L62.8235 248.716L83.7865 159.301L146.198 91.9243L167.163 2.50577L229.574 -64.8693L250.536 -154.284L312.95 -221.662L333.978 -311.354L331.981 -311.799L311.079 -222.656L248.667 -155.278L227.705 -65.8644Z" fill="url(#paint15_linear_729_3035)"/>
<path fill-rule="evenodd" clip-rule="evenodd" d="M243.348 -57.5475L180.935 9.82758L159.971 99.2473L97.5587 166.622L76.5969 256.037L14.1844 323.415L-6.77969 412.831L-69.1922 480.207L-90.1539 569.622L-152.566 636.999L-173.531 726.417L-235.754 793.595L-234.267 795.001L-171.66 727.411L-150.697 637.992L-88.2836 570.616L-67.323 481.201L-4.90935 413.825L16.0536 324.408L78.466 257.031L99.4278 167.616L161.841 100.241L182.804 10.8214L245.217 -56.5537L266.179 -145.969L328.592 -213.345L349.621 -303.037L347.622 -303.483L326.723 -214.339L264.31 -146.961L243.348 -57.5475Z" fill="url(#paint16_linear_729_3035)"/>
<path fill-rule="evenodd" clip-rule="evenodd" d="M257.251 -50.155L194.839 17.2213L173.875 106.64L111.462 174.015L90.4993 263.43L28.0868 330.807L7.12386 420.224L-55.2886 487.601L-76.2503 577.015L-138.663 644.391L-159.627 733.81L-221.852 800.988L-220.364 802.394L-157.758 734.803L-136.795 645.385L-74.3812 578.009L-53.4195 488.594L8.99301 421.219L29.9559 331.8L92.3697 264.425L113.331 175.009L175.744 107.634L196.708 18.214L259.12 -49.1611L280.082 -138.576L342.496 -205.952L363.523 -295.645L361.525 -296.091L340.625 -206.946L278.213 -139.569L257.251 -50.155Z" fill="url(#paint17_linear_729_3035)"/>
<path fill-rule="evenodd" clip-rule="evenodd" d="M272.895 -41.8381L210.482 25.537L189.518 114.957L127.106 182.332L106.144 271.747L43.7313 339.123L22.7672 428.54L-39.6453 495.917L-60.607 585.332L-123.02 652.708L-143.984 742.125L-206.207 809.303L-204.72 810.709L-142.113 743.12L-121.15 653.702L-58.7367 586.326L-37.7762 496.911L24.6375 429.534L45.6005 340.117L108.013 272.741L128.975 183.326L191.388 115.951L212.351 26.5309L274.764 -40.8442L295.725 -130.259L358.139 -197.635L379.168 -287.328L377.169 -287.774L356.27 -198.629L293.856 -131.252L272.895 -41.8381Z" fill="url(#paint18_linear_729_3035)"/>
<path fill-rule="evenodd" clip-rule="evenodd" d="M286.8 -34.446L224.388 32.9291L203.423 122.349L141.011 189.724L120.048 279.139L57.6356 346.516L36.6727 435.933L-25.7398 503.31L-46.7015 592.724L-109.114 660.1L-130.078 749.519L-192.303 816.696L-190.815 818.102L-128.209 750.512L-107.246 661.094L-44.8324 593.718L-23.8706 504.303L38.5418 436.926L59.5048 347.509L121.918 280.134L142.88 190.718L205.293 123.343L226.257 33.923L288.669 -33.4521L309.631 -122.867L372.045 -190.243L393.072 -279.936L391.074 -280.382L370.174 -191.237L307.762 -123.86L286.8 -34.446Z" fill="url(#paint19_linear_729_3035)"/>
<path fill-rule="evenodd" clip-rule="evenodd" d="M302.443 -26.1286L240.029 41.2465L219.066 130.666L156.652 198.041L135.691 287.456L73.2782 354.833L52.3153 444.25L-10.0984 511.626L-31.059 601.041L-93.4726 668.417L-114.436 757.836L-176.66 825.011L-175.173 826.417L-112.566 758.829L-91.6035 669.411L-29.191 602.035L-8.22928 512.62L54.1844 445.244L75.1473 355.826L137.56 288.45L158.522 199.035L220.935 131.659L241.898 42.2404L304.311 -25.1347L325.272 -114.55L387.686 -181.927L408.714 -271.62L406.716 -272.064L385.817 -182.92L323.403 -115.544L302.443 -26.1286Z" fill="url(#paint20_linear_729_3035)"/>
<path fill-rule="evenodd" clip-rule="evenodd" d="M341.879 -111.434L320.917 -22.0188L258.504 45.3576L237.541 134.776L175.128 202.151L154.167 291.566L91.7528 358.944L70.7899 448.36L8.37621 515.737L-12.5843 605.151L-74.998 672.529L-95.961 761.946L-158.186 829.12L-156.698 830.526L-94.0918 762.94L-73.1289 673.522L-10.7152 606.145L10.2466 516.731L72.659 449.354L93.6219 359.938L156.036 292.56L176.997 203.145L239.41 135.77L260.374 46.3515L322.786 -21.0249L343.748 -110.44L406.161 -177.816L427.189 -267.509L425.19 -267.955L404.292 -178.81L341.879 -111.434Z" fill="url(#paint21_linear_729_3035)"/>
<path fill-rule="evenodd" clip-rule="evenodd" d="M336.56 -13.7019L274.147 53.6732L253.183 143.093L190.771 210.468L169.809 299.883L107.395 367.259L86.4324 456.677L24.02 524.053L3.05826 613.468L-59.3554 680.844L-80.3184 770.262L-142.543 837.434L-141.054 838.84L-78.4492 771.255L-57.4851 681.838L4.92738 614.462L25.8891 525.047L88.3016 457.671L109.266 368.253L171.678 300.877L192.64 211.462L255.052 144.086L276.017 54.6671L338.429 -12.708L359.391 -102.123L421.804 -169.5L442.833 -259.192L440.834 -259.638L419.935 -170.494L357.522 -103.117L336.56 -13.7019Z" fill="url(#paint22_linear_729_3035)"/>
<path fill-rule="evenodd" clip-rule="evenodd" d="M350.466 -6.30928L288.054 61.0658L267.09 150.486L204.677 217.861L183.715 307.277L121.302 374.652L100.339 464.069L37.925 531.446L16.9645 620.861L-45.4492 688.237L-66.4122 777.655L-128.637 844.828L-127.148 846.234L-64.543 778.649L-43.5788 689.231L18.8336 621.854L39.7954 532.441L102.208 465.063L123.172 375.647L185.583 308.27L206.546 218.855L268.959 151.479L289.923 62.0609L352.335 -5.3154L373.297 -94.7291L435.71 -162.107L456.739 -251.799L454.739 -252.245L433.84 -163.1L371.427 -95.7242L350.466 -6.30928Z" fill="url(#paint23_linear_729_3035)"/>
<path fill-rule="evenodd" clip-rule="evenodd" d="M366.106 2.00642L303.694 69.3827L282.73 158.801L220.318 226.178L199.355 315.593L136.942 382.969L115.979 472.386L53.5669 539.762L32.6051 629.176L-29.8086 696.554L-50.7715 785.971L-112.996 853.143L-111.508 854.548L-48.9024 786.965L-27.9382 697.548L34.4743 630.17L55.436 540.756L117.848 473.38L138.813 383.963L201.225 316.586L222.187 227.171L284.599 159.795L305.563 70.3766L367.976 3.0015L388.938 -86.4134L451.351 -153.791L472.38 -243.483L470.381 -243.928L449.481 -154.785L387.069 -87.4073L366.106 2.00642Z" fill="url(#paint24_linear_729_3035)"/>
<path fill-rule="evenodd" clip-rule="evenodd" d="M380.013 9.39973L317.6 76.7748L296.636 166.193L234.225 233.57L213.262 322.985L150.849 390.361L129.885 479.778L67.4726 547.155L46.5109 636.568L-15.9016 703.946L-36.8657 793.364L-99.0879 860.536L-97.6018 861.942L-34.9954 794.358L-14.0312 704.94L48.3812 637.563L69.343 548.148L131.755 480.772L152.718 391.355L215.131 323.979L236.094 234.564L298.506 167.187L319.47 77.7687L381.883 10.3936L402.845 -79.0213L465.257 -146.399L486.287 -236.09L484.288 -236.536L463.388 -147.393L400.974 -80.0152L380.013 9.39973Z" fill="url(#paint25_linear_729_3035)"/>
<path fill-rule="evenodd" clip-rule="evenodd" d="M395.653 17.7159L333.242 85.0922L312.278 174.511L249.865 241.886L228.902 331.302L166.49 398.678L145.527 488.096L83.1145 555.472L62.1516 644.886L-0.260925 712.262L-21.2239 801.679L-83.4473 868.851L-81.9599 870.257L-19.3548 802.673L1.60942 713.257L64.0219 645.88L84.9836 556.466L147.396 489.09L168.36 399.672L230.773 332.296L251.734 242.881L314.147 175.505L335.111 86.0861L397.524 18.711L418.485 -70.7039L480.899 -138.081L501.927 -227.774L499.929 -228.219L479.029 -139.075L416.616 -71.6978L395.653 17.7159Z" fill="url(#paint26_linear_729_3035)"/>
<path fill-rule="evenodd" clip-rule="evenodd" d="M409.559 25.108L347.146 92.4843L326.182 181.903L263.771 249.279L242.808 338.694L180.395 406.07L159.431 495.488L97.0188 562.864L76.057 652.278L13.6446 719.655L-7.31958 809.073L-69.543 876.244L-68.0556 877.65L-5.44923 810.067L15.5137 720.648L77.9274 653.273L98.8879 563.858L161.302 496.482L182.265 407.064L244.677 339.688L265.639 250.272L328.052 182.897L349.015 93.4781L411.429 26.1031L432.39 -63.3119L494.803 -130.689L515.832 -220.382L513.833 -220.827L492.934 -131.683L430.52 -64.3057L409.559 25.108Z" fill="url(#paint27_linear_729_3035)"/>
<path fill-rule="evenodd" clip-rule="evenodd" d="M423.463 32.5013L361.051 99.8764L340.086 189.296L277.674 256.671L256.712 346.086L194.3 413.462L173.336 502.88L110.923 570.256L89.9613 659.671L27.5489 727.047L6.58471 816.466L-55.6387 883.637L-54.1526 885.043L8.45384 817.46L29.418 728.041L91.8305 660.665L112.792 571.25L175.206 503.874L196.168 414.456L258.581 347.08L279.543 257.665L341.956 190.29L362.92 100.87L425.332 33.4951L446.294 -55.9198L508.708 -123.296L529.736 -212.989L527.737 -213.435L506.837 -124.291L444.425 -56.9136L423.463 32.5013Z" fill="url(#paint28_linear_729_3035)"/>
<path fill-rule="evenodd" clip-rule="evenodd" d="M439.106 40.8175L376.693 108.194L355.729 197.612L293.318 264.989L272.355 354.404L209.942 421.78L188.978 511.197L126.566 578.573L105.604 667.987L43.1914 735.365L22.2273 824.781L-39.9961 891.952L-38.5088 893.358L24.0976 825.775L45.0606 736.357L107.474 668.981L128.435 579.567L190.848 512.191L211.811 422.774L274.224 355.397L295.186 265.981L357.599 198.606L378.562 109.188L440.976 41.8125L461.936 -47.6024L524.35 -114.98L545.379 -204.672L543.38 -205.117L522.481 -115.974L460.067 -48.5962L439.106 40.8175Z" fill="url(#paint29_linear_729_3035)"/>
<path fill-rule="evenodd" clip-rule="evenodd" d="M453.012 48.2108L390.599 115.586L369.636 205.006L307.223 272.381L286.261 361.796L223.849 429.172L202.886 518.589L140.472 585.966L119.511 675.381L57.0977 742.757L36.1347 832.174L-26.0898 899.346L-24.6038 900.751L38.0027 833.168L58.9668 743.749L121.379 676.374L142.341 586.959L204.755 519.583L225.716 430.166L288.13 362.789L309.092 273.373L371.504 205.998L392.468 116.58L454.881 49.2046L475.843 -40.2103L538.256 -107.588L559.285 -197.28L557.286 -197.725L536.387 -108.58L473.974 -41.2042L453.012 48.2108Z" fill="url(#paint30_linear_729_3035)"/>
<path fill-rule="evenodd" clip-rule="evenodd" d="M468.654 56.5276L406.24 123.903L385.277 213.321L322.865 280.696L301.903 370.113L239.489 437.489L218.526 526.906L156.113 594.282L135.152 683.697L72.7383 751.073L51.7753 840.489L-10.4492 907.66L-8.96192 909.066L53.6445 841.483L74.6087 752.068L137.021 684.69L157.983 595.276L220.395 527.9L241.358 438.483L303.771 371.106L324.734 281.691L387.146 214.315L408.11 124.897L470.523 57.5215L491.485 -31.8934L553.897 -99.2709L574.925 -188.963L572.927 -189.408L552.028 -100.265L489.614 -32.8873L468.654 56.5276Z" fill="url(#paint31_linear_729_3035)"/>
<path fill-rule="evenodd" clip-rule="evenodd" d="M482.559 63.9202L420.146 131.295L399.182 220.715L336.77 288.09L315.808 377.505L253.395 444.881L232.432 534.299L170.019 601.675L149.057 691.09L86.6446 758.466L65.6816 847.882L3.45703 915.054L4.94315 916.46L67.5495 848.876L88.5137 759.46L150.926 692.084L171.889 602.669L234.302 535.293L255.265 445.875L317.677 378.499L338.64 289.084L401.051 221.708L422.017 132.289L484.428 64.9141L505.391 -24.5008L567.803 -91.8784L588.832 -181.571L586.833 -182.016L565.934 -92.8722L503.52 -25.4947L482.559 63.9202Z" fill="url(#paint32_linear_729_3035)"/>
<path fill-rule="evenodd" clip-rule="evenodd" d="M498.201 72.2357L435.787 139.612L414.824 229.03L352.411 296.406L331.45 385.822L269.036 453.198L248.073 542.615L185.659 609.992L164.699 699.405L102.285 766.782L81.3222 856.197L19.0977 923.368L20.585 924.786L83.1914 857.191L104.156 767.776L166.568 700.399L187.53 610.986L249.942 543.608L270.905 454.192L333.318 386.816L354.281 297.4L416.693 230.024L437.657 140.606L500.068 73.2295L521.031 -16.1842L583.444 -83.5617L604.473 -173.254L602.473 -173.7L581.575 -84.5556L519.161 -17.178L498.201 72.2357Z" fill="url(#paint33_linear_729_3035)"/>
<path fill-rule="evenodd" clip-rule="evenodd" d="M512.107 79.6292L449.694 147.004L428.731 236.424L366.318 303.799L345.356 393.214L282.944 460.59L261.981 550.008L199.567 617.384L178.605 706.799L116.193 774.175L95.2297 863.59L33.0039 930.762L34.4925 932.18L97.0976 864.584L118.062 775.169L180.474 707.792L201.437 618.378L263.85 551.002L284.813 461.584L347.225 394.208L368.188 304.793L430.599 237.417L451.565 147.998L513.976 80.6231L534.938 -8.79182L597.351 -76.1694L618.38 -165.862L616.381 -166.307L595.482 -77.1632L533.069 -9.78571L512.107 79.6292Z" fill="url(#paint34_linear_729_3035)"/>
<path fill-rule="evenodd" clip-rule="evenodd" d="M527.748 87.9451L465.336 155.32L444.372 244.74L381.96 312.115L360.997 401.53L298.585 468.908L277.621 558.324L215.208 625.7L194.246 715.115L131.834 782.492L110.87 871.905L48.6465 939.088L50.1338 940.494L112.74 872.899L133.703 783.486L196.117 716.109L217.079 626.695L279.491 559.318L300.454 469.901L362.867 402.524L383.829 313.109L446.242 245.734L467.206 156.315L529.617 88.939L550.58 -0.474686L612.993 -67.8522L634.021 -157.545L632.022 -157.991L611.124 -68.8461L548.71 -1.46857L527.748 87.9451Z" fill="url(#paint35_linear_729_3035)"/>
<path fill-rule="evenodd" clip-rule="evenodd" d="M541.652 95.3375L479.24 162.714L458.276 252.132L395.863 319.507L374.902 408.924L312.489 476.3L291.525 565.717L229.113 633.093L208.151 722.507L145.738 789.886L124.774 879.298L62.5508 946.482L64.0381 947.888L126.643 880.292L147.607 790.88L210.02 723.501L230.983 634.087L293.395 566.711L314.358 477.294L376.771 409.917L397.734 320.503L460.145 253.126L481.11 163.708L543.522 96.3326L564.483 6.91765L626.897 -60.4599L647.925 -150.152L645.928 -150.597L625.027 -61.4538L562.614 5.92377L541.652 95.3375Z" fill="url(#paint36_linear_729_3035)"/>
<path fill-rule="evenodd" clip-rule="evenodd" d="M557.295 103.655L494.883 171.03L473.918 260.449L411.506 327.825L390.544 417.24L328.132 484.616L307.168 574.033L244.755 641.409L223.793 730.824L161.381 798.201L140.417 887.613L78.1934 954.797L79.6807 956.203L142.287 888.607L163.25 799.195L225.664 731.818L246.624 642.403L309.038 575.027L330.001 485.61L392.413 418.233L413.375 328.818L475.789 261.443L496.752 172.024L559.164 104.648L580.126 15.2336L642.54 -52.1427L663.568 -141.835L661.569 -142.281L640.67 -53.1366L578.257 14.2409L557.295 103.655Z" fill="url(#paint37_linear_729_3035)"/>
<path fill-rule="evenodd" clip-rule="evenodd" d="M571.199 111.047L508.786 178.422L487.822 267.842L425.409 335.217L404.447 424.632L342.034 492.009L321.071 581.425L258.659 648.803L237.697 738.216L175.284 805.594L154.32 895.006L92.0957 962.19L93.583 963.596L156.189 896L177.152 806.588L239.566 739.21L260.528 649.795L322.94 582.419L343.903 493.002L406.317 425.627L427.279 336.211L489.691 268.835L510.655 179.416L573.068 112.041L594.029 22.6257L656.443 -44.7506L677.47 -134.443L675.473 -134.889L654.573 -45.7445L592.16 21.633L571.199 111.047Z" fill="url(#paint38_linear_729_3035)"/>
<path fill-rule="evenodd" clip-rule="evenodd" d="M586.842 119.364L524.429 186.739L503.465 276.158L441.053 343.534L420.091 432.948L357.679 500.325L336.714 589.742L274.302 657.118L253.34 746.533L190.928 813.909L169.964 903.333L107.74 970.505L109.228 971.911L171.834 904.327L192.797 814.902L255.211 747.527L276.171 658.112L338.585 590.736L359.548 501.319L421.96 433.942L442.922 344.527L505.336 277.152L526.299 187.733L588.711 120.357L609.673 30.9426L672.086 -36.4337L693.115 -126.126L691.116 -126.572L670.217 -37.4288L607.804 29.9487L586.842 119.364Z" fill="url(#paint39_linear_729_3035)"/>
<path fill-rule="evenodd" clip-rule="evenodd" d="M600.747 126.756L538.335 194.131L517.371 283.551L454.958 350.926L433.995 440.341L371.583 507.719L350.62 597.135L288.207 664.511L267.246 753.926L204.833 821.302L183.869 910.715L121.645 977.898L123.132 979.304L185.738 911.709L206.701 822.296L269.115 754.92L290.077 665.505L352.489 598.129L373.452 508.711L435.866 441.335L456.827 351.92L519.24 284.545L540.204 195.125L602.617 127.75L623.578 38.3351L685.992 -29.0412L707.019 -118.734L705.022 -119.18L684.122 -30.035L621.709 37.3425L600.747 126.756Z" fill="url(#paint40_linear_729_3035)"/>
<path fill-rule="evenodd" clip-rule="evenodd" d="M616.39 135.073L553.976 202.448L533.013 291.868L470.6 359.243L449.638 448.658L387.225 516.034L366.263 605.452L303.849 672.828L282.888 762.243L220.475 829.617L199.512 919.041L137.287 986.213L138.774 987.619L201.381 920.035L222.344 830.611L284.756 763.237L305.718 673.822L368.132 606.445L389.095 517.028L451.507 449.652L472.469 360.236L534.882 292.861L555.845 203.442L618.258 136.067L639.22 46.652L701.633 -20.7255L722.662 -110.418L720.663 -110.863L699.764 -21.7182L637.351 45.6581L616.39 135.073Z" fill="url(#paint41_linear_729_3035)"/>
</g>
<defs>
<linearGradient id="paint0_linear_729_3035" x1="111.436" y1="-429.671" x2="-472.37" y2="668.407" gradientUnits="userSpaceOnUse">
<stop stop-color="#CF122D"/>
<stop offset="0.796875" stop-color="#141C3A"/>
</linearGradient>
<linearGradient id="paint1_linear_729_3035" x1="127.081" y1="-421.354" x2="-456.726" y2="676.724" gradientUnits="userSpaceOnUse">
<stop stop-color="#CF122D"/>
<stop offset="0.796875" stop-color="#141C3A"/>
</linearGradient>
<linearGradient id="paint2_linear_729_3035" x1="140.985" y1="-413.962" x2="-442.822" y2="684.116" gradientUnits="userSpaceOnUse">
<stop stop-color="#CF122D"/>
<stop offset="0.796875" stop-color="#141C3A"/>
</linearGradient>
<linearGradient id="paint3_linear_729_3035" x1="156.626" y1="-405.645" x2="-427.181" y2="692.433" gradientUnits="userSpaceOnUse">
<stop stop-color="#CF122D"/>
<stop offset="0.796875" stop-color="#141C3A"/>
</linearGradient>
<linearGradient id="paint4_linear_729_3035" x1="170.531" y1="-398.253" x2="-413.276" y2="699.826" gradientUnits="userSpaceOnUse">
<stop stop-color="#CF122D"/>
<stop offset="0.796875" stop-color="#141C3A"/>
</linearGradient>
<linearGradient id="paint5_linear_729_3035" x1="186.174" y1="-389.936" x2="-397.633" y2="708.143" gradientUnits="userSpaceOnUse">
<stop stop-color="#CF122D"/>
<stop offset="0.796875" stop-color="#141C3A"/>
</linearGradient>
<linearGradient id="paint6_linear_729_3035" x1="200.079" y1="-382.544" x2="-383.728" y2="715.535" gradientUnits="userSpaceOnUse">
<stop stop-color="#CF122D"/>
<stop offset="0.796875" stop-color="#141C3A"/>
</linearGradient>
<linearGradient id="paint7_linear_729_3035" x1="213.983" y1="-375.151" x2="-369.824" y2="722.927" gradientUnits="userSpaceOnUse">
<stop stop-color="#CF122D"/>
<stop offset="0.796875" stop-color="#141C3A"/>
</linearGradient>
<linearGradient id="paint8_linear_729_3035" x1="229.625" y1="-366.834" x2="-354.181" y2="731.244" gradientUnits="userSpaceOnUse">
<stop stop-color="#CF122D"/>
<stop offset="0.796875" stop-color="#141C3A"/>
</linearGradient>
<linearGradient id="paint9_linear_729_3035" x1="243.531" y1="-359.442" x2="-340.275" y2="738.637" gradientUnits="userSpaceOnUse">
<stop stop-color="#CF122D"/>
<stop offset="0.796875" stop-color="#141C3A"/>
</linearGradient>
<linearGradient id="paint10_linear_729_3035" x1="259.172" y1="-351.125" x2="-324.634" y2="746.953" gradientUnits="userSpaceOnUse">
<stop stop-color="#CF122D"/>
<stop offset="0.796875" stop-color="#141C3A"/>
</linearGradient>
<linearGradient id="paint11_linear_729_3035" x1="273.078" y1="-343.733" x2="-310.728" y2="754.346" gradientUnits="userSpaceOnUse">
<stop stop-color="#CF122D"/>
<stop offset="0.796875" stop-color="#141C3A"/>
</linearGradient>
<linearGradient id="paint12_linear_729_3035" x1="288.719" y1="-335.416" x2="-295.088" y2="762.661" gradientUnits="userSpaceOnUse">
<stop stop-color="#CF122D"/>
<stop offset="0.796875" stop-color="#141C3A"/>
</linearGradient>
<linearGradient id="paint13_linear_729_3035" x1="302.626" y1="-328.024" x2="-281.18" y2="770.055" gradientUnits="userSpaceOnUse">
<stop stop-color="#CF122D"/>
<stop offset="0.796875" stop-color="#141C3A"/>
</linearGradient>
<linearGradient id="paint14_linear_729_3035" x1="318.268" y1="-319.707" x2="-265.539" y2="778.371" gradientUnits="userSpaceOnUse">
<stop stop-color="#CF122D"/>
<stop offset="0.796875" stop-color="#141C3A"/>
</linearGradient>
<linearGradient id="paint15_linear_729_3035" x1="332.172" y1="-312.314" x2="-251.635" y2="785.759" gradientUnits="userSpaceOnUse">
<stop stop-color="#CF122D"/>
<stop offset="0.796875" stop-color="#141C3A"/>
</linearGradient>
<linearGradient id="paint16_linear_729_3035" x1="347.815" y1="-303.997" x2="-235.992" y2="794.086" gradientUnits="userSpaceOnUse">
<stop stop-color="#CF122D"/>
<stop offset="0.796875" stop-color="#141C3A"/>
</linearGradient>
<linearGradient id="paint17_linear_729_3035" x1="361.718" y1="-296.605" x2="-222.088" y2="801.468" gradientUnits="userSpaceOnUse">
<stop stop-color="#CF122D"/>
<stop offset="0.796875" stop-color="#141C3A"/>
</linearGradient>
<linearGradient id="paint18_linear_729_3035" x1="377.361" y1="-288.288" x2="-206.445" y2="809.794" gradientUnits="userSpaceOnUse">
<stop stop-color="#CF122D"/>
<stop offset="0.796875" stop-color="#141C3A"/>
</linearGradient>
<linearGradient id="paint19_linear_729_3035" x1="391.267" y1="-280.896" x2="-192.539" y2="817.188" gradientUnits="userSpaceOnUse">
<stop stop-color="#CF122D"/>
<stop offset="0.796875" stop-color="#141C3A"/>
</linearGradient>
<linearGradient id="paint20_linear_729_3035" x1="406.908" y1="-272.58" x2="-176.898" y2="825.502" gradientUnits="userSpaceOnUse">
<stop stop-color="#CF122D"/>
<stop offset="0.796875" stop-color="#141C3A"/>
</linearGradient>
<linearGradient id="paint21_linear_729_3035" x1="425.383" y1="-268.468" x2="-158.424" y2="829.611" gradientUnits="userSpaceOnUse">
<stop stop-color="#CF122D"/>
<stop offset="0.796875" stop-color="#141C3A"/>
</linearGradient>
<linearGradient id="paint22_linear_729_3035" x1="441.027" y1="-260.153" x2="-142.781" y2="837.926" gradientUnits="userSpaceOnUse">
<stop stop-color="#CF122D"/>
<stop offset="0.796875" stop-color="#141C3A"/>
</linearGradient>
<linearGradient id="paint23_linear_729_3035" x1="454.932" y1="-252.76" x2="-128.875" y2="845.319" gradientUnits="userSpaceOnUse">
<stop stop-color="#CF122D"/>
<stop offset="0.796875" stop-color="#141C3A"/>
</linearGradient>
<linearGradient id="paint24_linear_729_3035" x1="470.574" y1="-244.443" x2="-113.234" y2="853.634" gradientUnits="userSpaceOnUse">
<stop stop-color="#CF122D"/>
<stop offset="0.796875" stop-color="#141C3A"/>
</linearGradient>
<linearGradient id="paint25_linear_729_3035" x1="484.479" y1="-237.051" x2="-99.3272" y2="861.027" gradientUnits="userSpaceOnUse">
<stop stop-color="#CF122D"/>
<stop offset="0.713542" stop-color="#1C1C3A"/>
</linearGradient>
<linearGradient id="paint26_linear_729_3035" x1="500.121" y1="-228.734" x2="-83.6866" y2="869.342" gradientUnits="userSpaceOnUse">
<stop stop-color="#CF122D"/>
<stop offset="0.713542" stop-color="#1C1C3A"/>
</linearGradient>
<linearGradient id="paint27_linear_729_3035" x1="514.026" y1="-221.342" x2="-69.781" y2="876.735" gradientUnits="userSpaceOnUse">
<stop stop-color="#CF122D"/>
<stop offset="0.713542" stop-color="#1C1C3A"/>
</linearGradient>
<linearGradient id="paint28_linear_729_3035" x1="527.93" y1="-213.95" x2="-55.8767" y2="884.129" gradientUnits="userSpaceOnUse">
<stop stop-color="#CF122D"/>
<stop offset="0.713542" stop-color="#1C1C3A"/>
</linearGradient>
<linearGradient id="paint29_linear_729_3035" x1="543.572" y1="-205.632" x2="-40.234" y2="892.444" gradientUnits="userSpaceOnUse">
<stop stop-color="#CF122D"/>
<stop offset="0.713542" stop-color="#1C1C3A"/>
</linearGradient>
<linearGradient id="paint30_linear_729_3035" x1="557.479" y1="-198.24" x2="-26.3279" y2="899.837" gradientUnits="userSpaceOnUse">
<stop stop-color="#CF122D"/>
<stop offset="0.713542" stop-color="#1C1C3A"/>
</linearGradient>
<linearGradient id="paint31_linear_729_3035" x1="573.119" y1="-189.923" x2="-10.6873" y2="908.152" gradientUnits="userSpaceOnUse">
<stop stop-color="#CF122D"/>
<stop offset="0.713542" stop-color="#1C1C3A"/>
</linearGradient>
<linearGradient id="paint32_linear_729_3035" x1="587.026" y1="-182.531" x2="3.219" y2="915.545" gradientUnits="userSpaceOnUse">
<stop stop-color="#CF122D"/>
<stop offset="0.713542" stop-color="#1C1C3A"/>
</linearGradient>
<linearGradient id="paint33_linear_729_3035" x1="602.666" y1="-174.214" x2="18.8595" y2="923.859" gradientUnits="userSpaceOnUse">
<stop stop-color="#CF122D"/>
<stop offset="0.713542" stop-color="#1C1C3A"/>
</linearGradient>
<linearGradient id="paint34_linear_729_3035" x1="616.574" y1="-166.822" x2="32.7671" y2="931.253" gradientUnits="userSpaceOnUse">
<stop stop-color="#CF122D"/>
<stop offset="0.713542" stop-color="#1C1C3A"/>
</linearGradient>
<linearGradient id="paint35_linear_729_3035" x1="632.215" y1="-158.505" x2="48.4085" y2="939.568" gradientUnits="userSpaceOnUse">
<stop stop-color="#CF122D"/>
<stop offset="0.713542" stop-color="#1C1C3A"/>
</linearGradient>
<linearGradient id="paint36_linear_729_3035" x1="646.119" y1="-151.112" x2="62.3129" y2="946.961" gradientUnits="userSpaceOnUse">
<stop stop-color="#CF122D"/>
<stop offset="0.713542" stop-color="#1C1C3A"/>
</linearGradient>
<linearGradient id="paint37_linear_729_3035" x1="661.762" y1="-142.795" x2="77.9555" y2="955.288" gradientUnits="userSpaceOnUse">
<stop stop-color="#CF122D"/>
<stop offset="0.713542" stop-color="#1C1C3A"/>
</linearGradient>
<linearGradient id="paint38_linear_729_3035" x1="675.665" y1="-135.403" x2="91.8588" y2="962.669" gradientUnits="userSpaceOnUse">
<stop stop-color="#CF122D"/>
<stop offset="0.713542" stop-color="#1C1C3A"/>
</linearGradient>
<linearGradient id="paint39_linear_729_3035" x1="691.309" y1="-127.087" x2="107.502" y2="970.996" gradientUnits="userSpaceOnUse">
<stop stop-color="#CF122D"/>
<stop offset="0.713542" stop-color="#1C1C3A"/>
</linearGradient>
<linearGradient id="paint40_linear_729_3035" x1="705.214" y1="-119.694" x2="121.408" y2="978.39" gradientUnits="userSpaceOnUse">
<stop stop-color="#CF122D"/>
<stop offset="0.713542" stop-color="#1C1C3A"/>
</linearGradient>
<linearGradient id="paint41_linear_729_3035" x1="720.856" y1="-111.378" x2="137.049" y2="986.704" gradientUnits="userSpaceOnUse">
<stop stop-color="#CF122D"/>
<stop offset="0.713542" stop-color="#1C1C3A"/>
</linearGradient>
</defs>
</svg>
