<svg width="32" height="31" viewBox="0 0 32 31" fill="none" xmlns="http://www.w3.org/2000/svg">
<rect x="0.90625" y="0.0707092" width="30.5657" height="30.5657" rx="2.14141" fill="#EDEFF6"/>
<path d="M10.6875 18.1035C12.2063 18.1035 13.4375 16.8723 13.4375 15.3535C13.4375 13.8348 12.2063 12.6035 10.6875 12.6035C9.16872 12.6035 7.9375 13.8348 7.9375 15.3535C7.9375 16.8723 9.16872 18.1035 10.6875 18.1035Z" stroke="#BB0A21" stroke-width="1.38209" stroke-linecap="round" stroke-linejoin="round"/>
<path d="M20.3125 24.291C21.8313 24.291 23.0625 23.0598 23.0625 21.541C23.0625 20.0223 21.8313 18.791 20.3125 18.791C18.7937 18.791 17.5625 20.0223 17.5625 21.541C17.5625 23.0598 18.7937 24.291 20.3125 24.291Z" stroke="#BB0A21" stroke-width="1.38209" stroke-linecap="round" stroke-linejoin="round"/>
<path d="M20.3125 11.916C21.8313 11.916 23.0625 10.6848 23.0625 9.16605C23.0625 7.64726 21.8313 6.41605 20.3125 6.41605C18.7937 6.41605 17.5625 7.64726 17.5625 9.16605C17.5625 10.6848 18.7937 11.916 20.3125 11.916Z" stroke="#BB0A21" stroke-width="1.38209" stroke-linecap="round" stroke-linejoin="round"/>
<path d="M17.9977 10.6528L12.9961 13.8669" stroke="#BB0A21" stroke-width="1.38209" stroke-linecap="round" stroke-linejoin="round"/>
<path d="M12.9961 16.8403L17.9977 20.0544" stroke="#BB0A21" stroke-width="1.38209" stroke-linecap="round" stroke-linejoin="round"/>
</svg>
