<svg width="48" height="49" viewBox="0 0 48 49" fill="none" xmlns="http://www.w3.org/2000/svg">
<g clip-path="url(#clip0_414_611)">
<path d="M24.0044 47.6875C24.0044 47.6875 22.3331 46.4379 20.8234 45.0165C10.9494 44.6039 2.77843 39.02 3.40315 27.1932C3.44 26.8812 3.40911 26.902 3.46258 26.37C2.89631 25.7658 1.95922 24.7801 1.46484 24.2822C5.00652 20.5763 9.13953 12.0991 3.40287 4.41273C3.78048 3.80112 4.05322 3.59846 4.61464 2.79312C5.76145 3.19244 7.03625 3.44594 8.31755 3.44594C11.6071 3.44594 13.8532 3.11674 16.6149 1.27295C18.7978 2.80108 21.1658 3.75726 24.0006 3.75726C26.8356 3.75726 29.2026 2.80108 31.3857 1.27295C34.1473 3.1166 36.3934 3.44594 39.6834 3.44594C40.9643 3.44594 42.2391 3.19244 43.3859 2.79312C43.9472 3.59832 44.2201 3.80098 44.5977 4.41273C38.8614 12.0999 42.9938 20.5767 46.5361 24.2822C46.0409 24.7801 45.1042 25.7658 44.5384 26.37C44.5921 26.9021 44.5606 26.8813 44.5974 27.1932C45.2218 39.0196 37.0504 44.6031 27.1772 45.0165C25.6676 46.4379 24.0053 47.6875 24.0053 47.6875H24.0044Z" fill="#EBBD00"/>
<path d="M48 24.2969L47.2876 23.5513C44.2445 20.3682 39.9405 12.4037 45.4318 5.04504L45.8621 4.46806L45.4838 3.85533C45.2475 3.47235 45.0465 3.2257 44.8334 2.96451C44.6603 2.75222 44.481 2.53265 44.2397 2.18669L43.7878 1.53792L43.0442 1.79673C41.9263 2.18599 40.7639 2.39187 39.6829 2.39187C36.5466 2.39187 34.4917 2.08292 31.9619 0.394028L31.3711 -0.000400543L30.7895 0.406877C28.5513 1.97342 26.3938 2.70305 23.9999 2.70305C21.6053 2.70305 19.4479 1.97342 17.2097 0.406877L16.628 -0.000400543L16.0374 0.393748C13.5076 2.08278 11.4527 2.39173 8.31686 2.39173C7.23558 2.39173 6.07298 2.18585 4.95513 1.79659L4.21155 1.53778L3.75956 2.18655C3.51826 2.53237 3.33916 2.75194 3.16587 2.96437C2.95283 3.22556 2.75183 3.47221 2.51552 3.85519L2.13722 4.46792L2.56774 5.0449C8.05839 12.4024 3.75472 20.3667 0.711991 23.5512L0 24.296L0.725843 25.0272C1.13586 25.4399 1.85312 26.1922 2.38476 26.7553L2.38143 26.8488C2.37922 26.913 2.37769 26.9653 2.36522 27.0688L2.35955 27.1371C2.07932 32.443 3.45066 36.8112 6.4359 40.1201C9.60039 43.6279 14.5458 45.7259 20.3945 46.0499C21.8444 47.3804 23.3166 48.4841 23.3824 48.5332L24.0062 48.9997L24.6291 48.5317C24.6945 48.4824 26.1577 47.3794 27.6053 46.0496C33.4532 45.7257 38.3993 43.6275 41.564 40.1198C44.5492 36.8109 45.9205 32.4428 45.6403 27.1371L45.6346 27.0688C45.6226 26.9667 45.6211 26.915 45.6188 26.8517C45.6177 26.822 45.617 26.7905 45.6155 26.7553C46.1882 26.1481 46.8821 25.4219 47.2736 25.0279L48.0006 24.2966L48 24.2969ZM44.5376 26.3701C44.5913 26.9023 44.5597 26.8815 44.5966 27.1933C45.221 39.0198 37.0496 44.6032 27.1763 45.0166C25.667 46.4381 24.0048 47.6877 24.0048 47.6877C24.0048 47.6877 22.3335 46.4381 20.8238 45.0166C10.9498 44.604 2.77884 39.0202 3.40357 27.1933C3.44041 26.8813 3.40953 26.9021 3.46299 26.3701C2.89672 25.7659 1.95964 24.7803 1.46526 24.2823C5.00694 20.5765 9.13995 12.0992 3.40329 4.41289C3.7809 3.80128 4.05364 3.59862 4.61506 2.79328C5.76187 3.1926 7.03666 3.4461 8.31797 3.4461C11.6075 3.4461 13.8536 3.11689 16.6153 1.27311C18.7982 2.80124 21.1662 3.75742 24.001 3.75742C26.836 3.75742 29.203 2.80124 31.3861 1.27311C34.1478 3.11675 36.3938 3.4461 39.6838 3.4461C40.9647 3.4461 42.2395 3.1926 43.3863 2.79328C43.9476 3.59848 44.2205 3.80114 44.5981 4.41289C38.8619 12.1 42.9942 20.5769 46.5365 24.2823C46.0411 24.7803 45.1044 25.7658 44.5385 26.3701H44.5376Z" fill="#1D1D1B"/>
<path d="M21.3761 43.2279C21.438 43.2309 21.499 43.2357 21.5613 43.2383C23.3723 43.2483 25.015 43.2575 26.4372 43.2383C26.5686 43.2329 26.6983 43.2235 26.8291 43.2163V26.6458H21.3761V43.2274V43.2279ZM10.4727 39.9222C12.0342 41.0505 13.8787 41.8732 15.9253 42.4196V26.6467H10.4727V39.9227V39.9222ZM32.2798 26.6461V42.366C34.3348 41.7953 36.1803 40.9403 37.7332 39.7723V26.6464H32.2798V26.6461Z" fill="#A40344"/>
<path d="M6.52086 19.7521C8.31982 15.594 8.98859 10.2539 5.96484 5.03371C6.72005 5.16821 7.51363 5.25229 8.31732 5.25229C11.413 5.25229 13.8504 4.96848 16.5876 3.40837C18.7459 4.72504 21.1638 5.5618 23.9948 5.56361C26.8369 5.5618 29.2543 4.7249 31.4126 3.40837C34.1501 4.96848 36.5871 5.25229 39.6832 5.25229C40.4865 5.25229 41.28 5.16821 42.0431 5.02058C39.0114 10.2523 39.6805 15.5933 41.4792 19.7516H6.521V19.7517L6.52086 19.7521Z" fill="white"/>
<path d="M27.4905 19.7521H29.359V4.46246C28.7521 4.72081 28.1277 4.93541 27.4905 5.10466V19.7519V19.7521ZM41.8093 5.06164C41.118 5.18246 40.4052 5.25327 39.6835 5.25327C39.3491 5.25327 39.0237 5.24908 38.7032 5.24112V19.7528H41.4795C39.7308 15.7105 39.0601 10.5503 41.8095 5.459V5.06178L41.8093 5.06164ZM34.9658 19.7521H36.8347V5.12729C36.1973 5.06066 35.5779 4.96192 34.9658 4.81848V19.7521ZM23.9004 5.56166V19.7535H25.6221V5.4611C25.0937 5.52353 24.555 5.56515 23.9951 5.56543C23.9627 5.56543 23.9324 5.56222 23.9004 5.56194V5.56166ZM31.2284 3.51563V19.7537H33.0973V4.22795C32.5183 3.99418 31.9555 3.72134 31.4129 3.4113C31.3523 3.44817 31.2892 3.48086 31.2284 3.51703V3.51563Z" fill="#FFDC00"/>
<path d="M31.228 3.51466C30.6265 3.87187 30.0022 4.18837 29.359 4.46204V19.7517H31.228V3.51368V3.51466ZM25.6207 19.7521H27.4896V5.10494C26.8757 5.26768 26.2512 5.38656 25.6207 5.46068V19.7531V19.7521ZM33.0966 19.7521H34.9651V4.81861C34.3281 4.66962 33.7035 4.47154 33.0966 4.22613V19.7519V19.7521ZM38.7025 5.2407C38.0566 5.22478 37.4367 5.19014 36.8336 5.12687V19.7517H38.7025V5.24V5.2407ZM13.1891 14.9405V19.7514H18.3915V14.9405H23.9343V9.69449H18.3915V4.35687C17.7707 4.07947 17.1681 3.76267 16.5871 3.40837C15.4249 4.07082 14.3166 4.50156 13.1889 4.77965V9.69449H7.74512C8.11067 11.4941 8.12341 13.2603 7.88835 14.9405H13.1891Z" fill="#DC052B"/>
<path d="M41.7122 19.9058H6.28714L6.38036 19.69C7.92084 16.1298 9.07623 10.7103 5.83252 5.11122L5.66602 4.82392L5.99098 4.88189C6.79648 5.02533 7.57925 5.09796 8.31673 5.09796C11.4804 5.09796 13.8355 4.79962 16.5118 3.27415L16.5897 3.22987L16.6663 3.27652C19.0157 4.71009 21.4129 5.40774 23.9943 5.40942C26.5824 5.40774 28.9829 4.71009 31.3328 3.27652L31.4095 3.22987L31.4872 3.27415C34.164 4.79962 36.5193 5.09796 39.6827 5.09796C40.4439 5.09796 41.2285 5.021 42.0137 4.86918L42.3444 4.80535L42.1746 5.09824C38.9245 10.7068 40.0783 16.1287 41.6188 19.6896L41.712 19.9052L41.7122 19.9058ZM24.0869 19.5974H41.2467C39.7517 16.032 38.6977 10.7356 41.7476 5.23092C41.0517 5.34769 40.3586 5.40691 39.6826 5.40691C36.4986 5.40691 34.1176 5.10745 31.4146 3.58701C29.0678 5.00242 26.6684 5.70007 24.0864 5.71781V19.5977L24.0869 19.5974ZM6.75256 19.5974H23.7808V5.71641C21.2514 5.67759 18.8944 4.97993 16.5847 3.58687C13.882 5.10745 11.501 5.40677 8.31701 5.40677C7.65945 5.40677 6.9681 5.35034 6.2568 5.23916C9.30382 10.7364 8.24844 16.032 6.75256 19.5974ZM16.0154 25.6686H17.0795V23.6474H18.5133V22.6024H17.0795V21.8111H19.5323V20.7593H16.0154V25.6686ZM23.6352 21.7495C24.0166 21.7495 24.2849 21.91 24.4554 22.2398L24.4802 22.2877L25.4638 21.8299L25.439 21.778C25.0956 21.0622 24.4763 20.6839 23.6486 20.6839C22.3715 20.6839 21.4792 21.7243 21.4792 23.2139C21.4792 24.7511 22.3175 25.7443 23.6148 25.7443C24.4606 25.7443 25.0697 25.3692 25.4254 24.6295L25.448 24.5828L24.5535 24.0478L24.5249 24.0963C24.2732 24.5209 24.0339 24.6786 23.642 24.6786C23.0011 24.6786 22.5704 24.09 22.5704 23.2139C22.5704 22.3106 22.9785 21.7495 23.6352 21.7495ZM31.3377 23.0077C31.623 22.7957 31.7849 22.4644 31.7849 22.0835C31.7849 21.2541 31.1999 20.7592 30.22 20.7592H27.9825V25.6686H30.1997C31.2941 25.6686 31.9479 25.0687 31.9479 24.0636C31.9481 23.5989 31.7271 23.2193 31.3377 23.0077ZM29.0263 21.7564H30.179C30.6446 21.7564 30.7073 21.9599 30.7073 22.1588C30.7073 22.4288 30.5548 22.5545 30.2271 22.5545H29.0263V21.7564ZM30.2336 24.6442H29.0264V23.5174H30.2336C30.659 23.5174 30.8569 23.6952 30.8569 24.0773C30.8568 24.4481 30.6415 24.6442 30.2336 24.6442Z" fill="#1D1D1B"/>
<path d="M42.8083 27.3404C42.7737 27.0037 42.7493 26.984 42.7225 26.6455H37.7313V39.7726C41.1145 37.229 43.1043 33.1958 42.8083 27.3404ZM5.18909 27.3404C4.8874 33.3128 6.96519 37.3884 10.4727 39.9221V26.6455H5.27484C5.24782 26.984 5.22372 27.0037 5.18909 27.3404ZM26.8273 43.2153C28.7537 43.1107 30.5879 42.8345 32.2804 42.3644V26.6446H26.8273V43.215V43.2153ZM15.9242 42.4181C17.62 42.8707 19.4527 43.1353 21.3769 43.2269V26.6453H15.9242V42.4182V42.4181Z" fill="#004A99"/>
<path d="M24.507 43.4038C23.607 43.4038 22.6445 43.3987 21.6288 43.3932L21.5604 43.3928C15.7496 43.1502 11.195 41.3786 8.38413 38.2699C5.93316 35.5594 4.80713 31.88 5.03708 27.3337C5.05356 27.1689 5.06755 27.0791 5.08029 26.9954C5.09974 26.8757 5.11402 26.7553 5.1231 26.6344L5.13432 26.4925H42.8643L42.8755 26.6345C42.8894 26.8137 42.903 26.9006 42.9177 26.9961C42.9308 27.0796 42.9447 27.1693 42.9609 27.3255C43.1912 31.8798 42.0652 35.5593 39.6145 38.2696C36.8037 41.3786 32.2494 43.1501 26.4439 43.3925C25.8344 43.4008 25.1889 43.4038 24.5077 43.4038H24.507ZM5.41482 26.8013C5.40639 26.8823 5.39563 26.963 5.38254 27.0433C5.37049 27.1231 5.35706 27.2086 5.34196 27.3579C5.11686 31.811 6.2163 35.4151 8.61006 38.0626C11.3649 41.1095 15.8456 42.8461 21.5676 43.0853L21.6304 43.0854C23.4128 43.0953 25.0312 43.1034 26.4352 43.0853C32.1527 42.8461 36.6334 41.1095 39.3882 38.0626C41.7819 35.4151 42.8809 31.811 42.6556 27.3498C42.6409 27.209 42.6275 27.1238 42.6154 27.0442C42.6042 26.9717 42.5937 26.9038 42.5827 26.8013H5.4151H5.41482Z" fill="#1D1D1B"/>
<path d="M18.8857 34.7373C18.8857 31.8855 21.1785 29.5737 24.0063 29.5737C26.8348 29.5737 29.1275 31.8855 29.1275 34.7373C29.1275 37.5891 26.8348 39.9009 24.0063 39.9009C21.1785 39.9009 18.8857 37.5891 18.8857 34.7373Z" fill="#EBBD00"/>
<path d="M23.9789 29.4466C26.866 29.4466 29.206 31.8063 29.206 34.7174C29.206 37.6282 26.866 39.9879 23.9789 39.9879C21.0921 39.9879 18.752 37.6282 18.752 34.7174C18.752 31.8063 21.0921 29.4466 23.9789 29.4466ZM21.3115 35.6737C20.3654 34.8052 20.3624 33.0402 20.6164 31.8677C20.6871 31.5415 20.7766 31.2217 20.8678 30.8563C19.7561 31.7684 19.0459 33.1592 19.0459 34.7174C19.0459 35.3769 19.1729 36.0064 19.4044 36.5822C19.4878 36.5935 19.5734 36.5995 19.6602 36.5995C20.3905 36.5995 20.9877 36.2592 21.3115 35.6737ZM26.3899 36.0544C26.2284 36.8882 25.344 37.513 24.5113 38.014C23.6524 38.5303 22.2681 38.7972 21.2259 38.8457C22.0391 39.3988 22.998 39.6936 23.9789 39.692C25.8395 39.692 27.4593 38.6535 28.2998 37.1204C28.1522 35.8925 26.9948 35.749 26.3899 36.0544ZM20.8433 38.5579C21.8721 38.566 23.4539 38.3048 24.3609 37.7596C25.5324 37.055 26.4428 36.3026 26.0104 35.2593C25.7917 34.7324 25.065 34.1225 24.1226 34.7947C24.0625 35.5737 23.1092 36.2606 22.4251 36.172C22.0784 36.1272 21.7875 36.0167 21.5459 35.8571C21.1611 36.5195 20.4728 36.8956 19.6601 36.8956C19.6203 36.8956 19.5804 36.8945 19.541 36.8924C19.8517 37.5353 20.2958 38.1033 20.8433 38.5579ZM23.9664 31.6172C24.7821 31.2763 25.913 31.7195 26.7746 32.2048C27.5884 32.6631 28.4379 33.5184 28.9035 34.4164C28.7499 31.8234 26.6265 29.7651 24.0217 29.7429C23.2432 30.2581 23.3496 31.2302 23.9664 31.6172ZM23.8281 34.7914C22.8182 34.0485 22.8801 32.8789 23.3149 32.1849C23.4213 32.0146 23.5456 31.8807 23.6839 31.778C23.0963 31.3054 22.9787 30.3881 23.5479 29.7616C22.721 29.8333 21.9257 30.1154 21.2364 30.5816C21.0212 31.5157 20.7469 32.3692 20.7608 33.3445C20.7792 34.6601 21.3191 35.7302 22.4629 35.8779C22.9963 35.9471 23.7665 35.3741 23.8281 34.7914ZM28.8919 35.1749C28.6101 34.146 27.5982 33.0081 26.6318 32.4635C25.44 31.7924 24.1362 31.4271 23.5629 32.343C23.1947 32.9311 23.1436 33.9024 23.9784 34.5352C25.1132 33.745 26.0194 34.5134 26.2809 35.1452C26.3651 35.3477 26.4075 35.5401 26.415 35.7233C27.0849 35.4857 28.1731 35.6388 28.5082 36.6923C28.7153 36.2103 28.8448 35.6981 28.8919 35.1749Z" fill="#1D1D1B"/>
</g>
<defs>
<clipPath id="clip0_414_611">
<rect width="48" height="49" fill="white"/>
</clipPath>
</defs>
</svg>
