<svg width="75" height="30" viewBox="0 0 75 30" fill="none" xmlns="http://www.w3.org/2000/svg">
<g filter="url(#filter0_b_147_6643)">
<rect width="75" height="30" rx="4" fill="#F6F6F9" fill-opacity="0.11"/>
<path d="M15 12.0833V15H17.9167M15 20.25C12.1005 20.25 9.75 17.8995 9.75 15C9.75 12.1005 12.1005 9.75 15 9.75C17.8995 9.75 20.25 12.1005 20.25 15C20.25 17.8995 17.8995 20.25 15 20.25Z" stroke="white" stroke-width="1.5" stroke-linecap="round" stroke-linejoin="round"/>
<path d="M34.2686 19.144C33.6126 19.144 33.0166 18.988 32.4806 18.676C31.9446 18.364 31.5166 17.908 31.1966 17.308C30.8846 16.7 30.7286 15.964 30.7286 15.1C30.7286 14.244 30.8886 13.512 31.2086 12.904C31.5366 12.288 31.9726 11.82 32.5166 11.5C33.0606 11.172 33.6606 11.008 34.3166 11.008C34.8126 11.008 35.2526 11.108 35.6366 11.308C36.0206 11.508 36.3366 11.74 36.5846 12.004L35.8406 12.904C35.6406 12.696 35.4166 12.532 35.1686 12.412C34.9286 12.284 34.6566 12.22 34.3526 12.22C33.9286 12.22 33.5486 12.336 33.2126 12.568C32.8846 12.792 32.6246 13.116 32.4326 13.54C32.2486 13.964 32.1566 14.472 32.1566 15.064C32.1566 15.96 32.3526 16.664 32.7446 17.176C33.1366 17.68 33.6606 17.932 34.3166 17.932C34.6686 17.932 34.9806 17.86 35.2526 17.716C35.5246 17.564 35.7726 17.368 35.9966 17.128L36.7406 18.004C36.4206 18.372 36.0526 18.656 35.6366 18.856C35.2286 19.048 34.7726 19.144 34.2686 19.144ZM37.9307 19V13.108H39.3107V15.4H40.1747L40.7267 14.212C40.8867 13.86 41.0507 13.596 41.2187 13.42C41.3867 13.244 41.5667 13.124 41.7587 13.06C41.9587 12.996 42.1827 12.964 42.4307 12.964C42.5907 12.964 42.7307 12.988 42.8507 13.036L42.6227 14.32C42.5507 14.296 42.4787 14.284 42.4067 14.284C42.2627 14.284 42.1267 14.324 41.9987 14.404C41.8787 14.484 41.7507 14.676 41.6147 14.98L41.2067 15.904L43.2107 19H41.6867L40.1987 16.504H39.3107V19H37.9307ZM46.3427 19.144C45.8547 19.144 45.3987 19.024 44.9747 18.784C44.5507 18.536 44.2067 18.184 43.9427 17.728C43.6787 17.264 43.5467 16.708 43.5467 16.06C43.5467 15.404 43.6787 14.848 43.9427 14.392C44.2067 13.928 44.5507 13.576 44.9747 13.336C45.3987 13.088 45.8547 12.964 46.3427 12.964C46.8387 12.964 47.2987 13.088 47.7227 13.336C48.1467 13.576 48.4907 13.928 48.7547 14.392C49.0187 14.848 49.1507 15.404 49.1507 16.06C49.1507 16.708 49.0187 17.264 48.7547 17.728C48.4907 18.184 48.1467 18.536 47.7227 18.784C47.2987 19.024 46.8387 19.144 46.3427 19.144ZM46.3427 18.016C46.7747 18.016 47.1147 17.836 47.3627 17.476C47.6107 17.116 47.7347 16.644 47.7347 16.06C47.7347 15.468 47.6107 14.992 47.3627 14.632C47.1147 14.272 46.7747 14.092 46.3427 14.092C45.9107 14.092 45.5707 14.272 45.3227 14.632C45.0827 14.992 44.9627 15.468 44.9627 16.06C44.9627 16.644 45.0827 17.116 45.3227 17.476C45.5707 17.836 45.9107 18.016 46.3427 18.016ZM50.5166 21.328V13.108H51.6566L51.7526 13.732H51.8006C52.0486 13.524 52.3246 13.344 52.6286 13.192C52.9406 13.04 53.2566 12.964 53.5766 12.964C54.3126 12.964 54.8806 13.236 55.2806 13.78C55.6886 14.324 55.8926 15.052 55.8926 15.964C55.8926 16.636 55.7726 17.212 55.5326 17.692C55.2926 18.164 54.9806 18.524 54.5966 18.772C54.2206 19.02 53.8126 19.144 53.3726 19.144C53.1166 19.144 52.8606 19.088 52.6046 18.976C52.3486 18.856 52.1006 18.696 51.8606 18.496L51.8966 19.48V21.328H50.5166ZM53.0846 18.004C53.4766 18.004 53.8046 17.832 54.0686 17.488C54.3326 17.144 54.4646 16.64 54.4646 15.976C54.4646 15.384 54.3646 14.924 54.1646 14.596C53.9646 14.268 53.6406 14.104 53.1926 14.104C52.7766 14.104 52.3446 14.324 51.8966 14.764V17.512C52.1126 17.688 52.3206 17.816 52.5206 17.896C52.7206 17.968 52.9086 18.004 53.0846 18.004ZM59.7021 19.144C59.2141 19.144 58.7581 19.024 58.3341 18.784C57.9101 18.536 57.5661 18.184 57.3021 17.728C57.0381 17.264 56.9061 16.708 56.9061 16.06C56.9061 15.404 57.0381 14.848 57.3021 14.392C57.5661 13.928 57.9101 13.576 58.3341 13.336C58.7581 13.088 59.2141 12.964 59.7021 12.964C60.1981 12.964 60.6581 13.088 61.0821 13.336C61.5061 13.576 61.8501 13.928 62.1141 14.392C62.3781 14.848 62.5101 15.404 62.5101 16.06C62.5101 16.708 62.3781 17.264 62.1141 17.728C61.8501 18.184 61.5061 18.536 61.0821 18.784C60.6581 19.024 60.1981 19.144 59.7021 19.144ZM59.7021 18.016C60.1341 18.016 60.4741 17.836 60.7221 17.476C60.9701 17.116 61.0941 16.644 61.0941 16.06C61.0941 15.468 60.9701 14.992 60.7221 14.632C60.4741 14.272 60.1341 14.092 59.7021 14.092C59.2701 14.092 58.9301 14.272 58.6821 14.632C58.4421 14.992 58.3221 15.468 58.3221 16.06C58.3221 16.644 58.4421 17.116 58.6821 17.476C58.9301 17.836 59.2701 18.016 59.7021 18.016Z" fill="#F6F6F9"/>
</g>
<defs>
<filter id="filter0_b_147_6643" x="-20" y="-20" width="115" height="70" filterUnits="userSpaceOnUse" color-interpolation-filters="sRGB">
<feFlood flood-opacity="0" result="BackgroundImageFix"/>
<feGaussianBlur in="BackgroundImageFix" stdDeviation="10"/>
<feComposite in2="SourceAlpha" operator="in" result="effect1_backgroundBlur_147_6643"/>
<feBlend mode="normal" in="SourceGraphic" in2="effect1_backgroundBlur_147_6643" result="shape"/>
</filter>
</defs>
</svg>
