<svg width="32" height="32" viewBox="0 0 32 32" fill="none" xmlns="http://www.w3.org/2000/svg">
<path d="M10.0634 28.6684C22.1389 28.6684 28.7437 18.6639 28.7437 9.98809C28.7437 9.70393 28.7437 9.42105 28.7245 9.13945C30.0094 8.21006 31.1185 7.0593 32 5.74105C30.8019 6.27225 29.5307 6.62046 28.2291 6.77401C29.5998 5.9536 30.6255 4.66306 31.1155 3.14265C29.8268 3.90746 28.4168 4.44642 26.9466 4.73625C25.9567 3.68369 24.6475 2.98671 23.2216 2.75317C21.7957 2.51962 20.3326 2.76254 19.0586 3.44432C17.7847 4.12611 16.771 5.20875 16.1743 6.52472C15.5777 7.84068 15.4314 9.31661 15.7581 10.7241C13.1479 10.5932 10.5943 9.9148 8.26327 8.73306C5.9322 7.55132 3.87569 5.8926 2.2272 3.86457C1.38764 5.3099 1.1305 7.02088 1.50813 8.64914C1.88577 10.2774 2.86979 11.7005 4.25984 12.6287C3.21498 12.5981 2.19286 12.3162 1.28 11.807V11.8902C1.28041 13.406 1.80513 14.875 2.76516 16.048C3.72519 17.221 5.06141 18.0259 6.5472 18.326C5.58064 18.5897 4.5665 18.6282 3.58272 18.4387C4.00242 19.7431 4.81924 20.8838 5.91899 21.7012C7.01873 22.5187 8.34644 22.9721 9.71648 22.998C8.35525 24.068 6.79642 24.8591 5.12917 25.326C3.46191 25.793 1.71895 25.9266 0 25.7193C3.00244 27.646 6.4959 28.668 10.0634 28.6633" fill="white"/>
</svg>
