<svg width="52" height="52" viewBox="0 0 52 52" fill="none" xmlns="http://www.w3.org/2000/svg">
<path d="M37.229 35.8744C36.2082 35.8744 35.3785 35.0462 35.3785 34.0231C35.3785 33.0032 36.2059 32.1734 37.229 32.1734C38.2513 32.1734 39.0794 33.0016 39.0794 34.0231C39.0779 35.0462 38.2513 35.8744 37.229 35.8744ZM37.229 29.8345C34.915 29.8345 33.0372 31.7108 33.0372 34.0254C33.0372 36.3409 34.915 38.2164 37.229 38.2164C39.5429 38.2164 41.4199 36.3408 41.4199 34.0254C41.4184 31.7108 39.5429 29.8345 37.229 29.8345Z" fill="black"/>
<path d="M9.11942 35.8744C8.09825 35.8744 7.26931 35.0462 7.26931 34.0231C7.26931 33.0032 8.09825 32.1734 9.11942 32.1734C10.1406 32.1734 10.9695 33.0016 10.9695 34.0231C10.9703 35.0462 10.1413 35.8744 9.11942 35.8744ZM9.11942 29.8345C6.80549 29.8345 4.92963 31.7108 4.92963 34.0254C4.92963 36.3409 6.80558 38.2164 9.11942 38.2164C11.4337 38.2164 13.31 36.3408 13.31 34.0254C13.31 31.7108 11.4345 29.8345 9.11942 29.8345Z" fill="black"/>
<path d="M48.6466 18.2669C48.6466 19.2927 47.7629 20.1241 46.6725 20.1241H32.4321C31.3425 20.1241 30.4579 19.2927 30.4579 18.2669V4.87599C30.4579 3.85168 31.3425 3.0204 32.4321 3.0204H46.674C47.7636 3.0204 48.6482 3.85168 48.6482 4.87599V18.2669H48.6466ZM48.6826 0.582031H30.5174C29.1288 0.582031 28 1.64546 28 2.9585V20.1088C28 21.4219 29.1281 22.4861 30.5174 22.4861H48.6826C50.0704 22.4861 51.1999 21.4219 51.1999 20.1088V2.95778C51.2 1.64546 50.0712 0.582031 48.6826 0.582031Z" fill="black"/>
<path d="M38.2262 11.3221C38.4611 11.3757 38.7499 11.3941 39.146 11.3941C40.6113 11.3941 41.5162 10.6529 41.5162 9.4055C41.5162 8.28412 40.7381 7.61488 39.3628 7.61488C38.8031 7.61488 38.4219 7.66937 38.2246 7.72379L38.2262 11.3221ZM35.4958 5.78827C36.3444 5.64306 37.5389 5.53503 39.2204 5.53503C40.9198 5.53503 42.1323 5.86032 42.9456 6.5112C43.7236 7.12683 44.2465 8.13818 44.2465 9.33354C44.2465 10.5254 43.849 11.5386 43.1264 12.2263C42.1848 13.1113 40.7937 13.5096 39.1656 13.5096C38.8054 13.5096 38.4798 13.492 38.2262 13.4568V17.8134H35.4975V5.78827H35.4958Z" fill="black"/>
<path d="M43.8482 38.6955C43.8482 39.8055 42.8854 40.6955 41.6924 40.6955H4.79174C3.59646 40.6955 2.63398 39.8055 2.63398 38.6955V29.5065C2.63398 28.409 3.59646 27.5064 4.79174 27.5064H41.6907C42.8837 27.5064 43.8465 28.409 43.8465 29.5065V38.6963H43.8481V38.6955H43.8482ZM43.859 24.9221H4.85284L12.946 10.9406C12.946 10.9406 13.2388 10.3675 14.6039 10.3675H22.9785C22.9785 10.3675 24.9656 10.5014 24.8936 9.12413C24.8188 8.39226 24.4165 7.89319 23.5507 7.89319C22.6978 7.89319 12.4098 7.89319 12.4098 7.89319C12.4098 7.89319 11.8849 7.9171 11.3123 8.90453C10.8011 9.78403 3.64532 22.1793 2.04885 24.9593C0.890442 25.1659 0 26.2994 0 27.6771V40.3667C0 41.9026 1.08532 43.1213 2.42541 43.1213H4.85203V49.2059C4.85203 49.9597 5.34007 50.5687 5.9491 50.5687H9.86183C10.4579 50.5687 10.9581 49.9598 10.9581 49.2059V43.1213H35.3879V49.2512C35.3879 50.0089 35.8748 50.618 36.4729 50.618H40.3366C40.9331 50.618 41.4216 50.0089 41.4216 49.2512V43.1213H43.8591C45.2008 43.1213 46.2857 41.9026 46.2857 40.3667V27.6771C46.2857 26.1522 45.2007 24.9221 43.859 24.9221Z" fill="black"/>
</svg>
